<?xml version="1.0" encoding="utf-8" standalone="no"?>
<!DOCTYPE svg PUBLIC "-//W3C//DTD SVG 1.1//EN"
  "http://www.w3.org/Graphics/SVG/1.1/DTD/svg11.dtd">
<svg xmlns:xlink="http://www.w3.org/1999/xlink" width="432pt" height="288pt" viewBox="0 0 432 288" xmlns="http://www.w3.org/2000/svg" version="1.1">
 <metadata>
  <rdf:RDF xmlns:dc="http://purl.org/dc/elements/1.1/" xmlns:cc="http://creativecommons.org/ns#" xmlns:rdf="http://www.w3.org/1999/02/22-rdf-syntax-ns#">
   <cc:Work>
    <dc:type rdf:resource="http://purl.org/dc/dcmitype/StillImage"/>
    <dc:date>2025-02-13T15:58:22.092047</dc:date>
    <dc:format>image/svg+xml</dc:format>
    <dc:creator>
     <cc:Agent>
      <dc:title>Matplotlib v3.10.0, https://matplotlib.org/</dc:title>
     </cc:Agent>
    </dc:creator>
   </cc:Work>
  </rdf:RDF>
 </metadata>
 <defs>
  <style type="text/css">*{stroke-linejoin: round; stroke-linecap: butt}</style>
 </defs>
 <g id="figure_1">
  <g id="patch_1">
   <path d="M 0 288 
L 432 288 
L 432 0 
L 0 0 
z
" style="fill: #ffffff"/>
  </g>
  <g id="axes_1">
   <g id="patch_2">
    <path d="M 54 256.32 
L 388.8 256.32 
L 388.8 34.56 
L 54 34.56 
z
" style="fill: #ffffff"/>
   </g>
   <g id="matplotlib.axis_1">
    <g id="xtick_1">
     <g id="line2d_1">
      <path d="M 69.218182 256.32 
L 69.218182 34.56 
" clip-path="url(#pddd630525e)" style="fill: none; stroke-dasharray: 3.7,1.6; stroke-dashoffset: 0; stroke: #808080"/>
     </g>
     <g id="line2d_2">
      <defs>
       <path id="m11e9f3575d" d="M 0 0 
L 0 3.5 
" style="stroke: #000000; stroke-width: 0.8"/>
      </defs>
      <g>
       <use xlink:href="#m11e9f3575d" x="69.218182" y="256.32" style="stroke: #000000; stroke-width: 0.8"/>
      </g>
     </g>
     <g id="text_1">
      <!-- $\mathdefault{0}$ -->
      <g transform="translate(66.218182 271.646875) scale(0.12 -0.12)">
       <defs>
        <path id="Cmr10-30" d="M 1600 -141 
Q 816 -141 533 504 
Q 250 1150 250 2041 
Q 250 2597 351 3087 
Q 453 3578 754 3920 
Q 1056 4263 1600 4263 
Q 2022 4263 2290 4056 
Q 2559 3850 2700 3523 
Q 2841 3197 2892 2823 
Q 2944 2450 2944 2041 
Q 2944 1491 2842 1011 
Q 2741 531 2444 195 
Q 2147 -141 1600 -141 
z
M 1600 25 
Q 1956 25 2131 390 
Q 2306 756 2347 1200 
Q 2388 1644 2388 2144 
Q 2388 2625 2347 3031 
Q 2306 3438 2132 3767 
Q 1959 4097 1600 4097 
Q 1238 4097 1063 3765 
Q 888 3434 847 3029 
Q 806 2625 806 2144 
Q 806 1788 823 1472 
Q 841 1156 916 820 
Q 991 484 1158 254 
Q 1325 25 1600 25 
z
" transform="scale(0.015625)"/>
       </defs>
       <use xlink:href="#Cmr10-30" transform="translate(0 0.390625)"/>
      </g>
     </g>
    </g>
    <g id="xtick_2">
     <g id="line2d_3">
      <path d="M 130.705785 256.32 
L 130.705785 34.56 
" clip-path="url(#pddd630525e)" style="fill: none; stroke-dasharray: 3.7,1.6; stroke-dashoffset: 0; stroke: #808080"/>
     </g>
     <g id="line2d_4">
      <g>
       <use xlink:href="#m11e9f3575d" x="130.705785" y="256.32" style="stroke: #000000; stroke-width: 0.8"/>
      </g>
     </g>
     <g id="text_2">
      <!-- $\mathdefault{20}$ -->
      <g transform="translate(124.705785 271.646875) scale(0.12 -0.12)">
       <defs>
        <path id="Cmr10-32" d="M 319 0 
L 319 172 
Q 319 188 331 206 
L 1325 1306 
Q 1550 1550 1690 1715 
Q 1831 1881 1968 2097 
Q 2106 2313 2186 2536 
Q 2266 2759 2266 3009 
Q 2266 3272 2169 3511 
Q 2072 3750 1880 3894 
Q 1688 4038 1416 4038 
Q 1138 4038 916 3870 
Q 694 3703 603 3438 
Q 628 3444 672 3444 
Q 816 3444 917 3347 
Q 1019 3250 1019 3097 
Q 1019 2950 917 2848 
Q 816 2747 672 2747 
Q 522 2747 420 2851 
Q 319 2956 319 3097 
Q 319 3338 409 3548 
Q 500 3759 670 3923 
Q 841 4088 1055 4175 
Q 1269 4263 1509 4263 
Q 1875 4263 2190 4108 
Q 2506 3953 2690 3670 
Q 2875 3388 2875 3009 
Q 2875 2731 2753 2481 
Q 2631 2231 2440 2026 
Q 2250 1822 1953 1562 
Q 1656 1303 1563 1216 
L 838 519 
L 1453 519 
Q 1906 519 2211 526 
Q 2516 534 2534 550 
Q 2609 631 2688 1141 
L 2875 1141 
L 2694 0 
L 319 0 
z
" transform="scale(0.015625)"/>
       </defs>
       <use xlink:href="#Cmr10-32" transform="translate(0 0.390625)"/>
       <use xlink:href="#Cmr10-30" transform="translate(50 0.390625)"/>
      </g>
     </g>
    </g>
    <g id="xtick_3">
     <g id="line2d_5">
      <path d="M 192.193388 256.32 
L 192.193388 34.56 
" clip-path="url(#pddd630525e)" style="fill: none; stroke-dasharray: 3.7,1.6; stroke-dashoffset: 0; stroke: #808080"/>
     </g>
     <g id="line2d_6">
      <g>
       <use xlink:href="#m11e9f3575d" x="192.193388" y="256.32" style="stroke: #000000; stroke-width: 0.8"/>
      </g>
     </g>
     <g id="text_3">
      <!-- $\mathdefault{40}$ -->
      <g transform="translate(186.193388 271.646875) scale(0.12 -0.12)">
       <defs>
        <path id="Cmr10-34" d="M 178 1056 
L 178 1281 
L 2156 4231 
Q 2178 4263 2222 4263 
L 2316 4263 
Q 2388 4263 2388 4191 
L 2388 1281 
L 3016 1281 
L 3016 1056 
L 2388 1056 
L 2388 428 
Q 2388 297 2575 261 
Q 2763 225 3009 225 
L 3009 0 
L 1247 0 
L 1247 225 
Q 1494 225 1681 261 
Q 1869 297 1869 428 
L 1869 1056 
L 178 1056 
z
M 391 1281 
L 1906 1281 
L 1906 3547 
L 391 1281 
z
" transform="scale(0.015625)"/>
       </defs>
       <use xlink:href="#Cmr10-34" transform="translate(0 0.390625)"/>
       <use xlink:href="#Cmr10-30" transform="translate(50 0.390625)"/>
      </g>
     </g>
    </g>
    <g id="xtick_4">
     <g id="line2d_7">
      <path d="M 253.680992 256.32 
L 253.680992 34.56 
" clip-path="url(#pddd630525e)" style="fill: none; stroke-dasharray: 3.7,1.6; stroke-dashoffset: 0; stroke: #808080"/>
     </g>
     <g id="line2d_8">
      <g>
       <use xlink:href="#m11e9f3575d" x="253.680992" y="256.32" style="stroke: #000000; stroke-width: 0.8"/>
      </g>
     </g>
     <g id="text_4">
      <!-- $\mathdefault{60}$ -->
      <g transform="translate(247.680992 271.646875) scale(0.12 -0.12)">
       <defs>
        <path id="Cmr10-36" d="M 1600 -141 
Q 1203 -141 937 70 
Q 672 281 526 617 
Q 381 953 325 1322 
Q 269 1691 269 2069 
Q 269 2575 466 3084 
Q 663 3594 1045 3928 
Q 1428 4263 1953 4263 
Q 2172 4263 2361 4180 
Q 2550 4097 2658 3936 
Q 2766 3775 2766 3547 
Q 2766 3416 2677 3327 
Q 2588 3238 2456 3238 
Q 2331 3238 2240 3328 
Q 2150 3419 2150 3547 
Q 2150 3672 2240 3762 
Q 2331 3853 2456 3853 
L 2491 3853 
Q 2409 3969 2261 4023 
Q 2113 4078 1953 4078 
Q 1759 4078 1595 3993 
Q 1431 3909 1300 3765 
Q 1169 3622 1081 3448 
Q 994 3275 945 3053 
Q 897 2831 884 2637 
Q 872 2444 872 2150 
Q 984 2413 1190 2580 
Q 1397 2747 1656 2747 
Q 1941 2747 2175 2631 
Q 2409 2516 2578 2311 
Q 2747 2106 2836 1843 
Q 2925 1581 2925 1313 
Q 2925 938 2758 598 
Q 2591 259 2287 59 
Q 1984 -141 1600 -141 
z
M 1600 63 
Q 1847 63 1997 175 
Q 2147 288 2217 473 
Q 2288 659 2305 848 
Q 2322 1038 2322 1313 
Q 2322 1675 2287 1931 
Q 2253 2188 2100 2383 
Q 1947 2578 1631 2578 
Q 1372 2578 1205 2403 
Q 1038 2228 961 1961 
Q 884 1694 884 1447 
Q 884 1363 891 1319 
Q 891 1309 889 1303 
Q 888 1297 884 1288 
Q 884 1013 940 731 
Q 997 450 1156 256 
Q 1316 63 1600 63 
z
" transform="scale(0.015625)"/>
       </defs>
       <use xlink:href="#Cmr10-36" transform="translate(0 0.390625)"/>
       <use xlink:href="#Cmr10-30" transform="translate(50 0.390625)"/>
      </g>
     </g>
    </g>
    <g id="xtick_5">
     <g id="line2d_9">
      <path d="M 315.168595 256.32 
L 315.168595 34.56 
" clip-path="url(#pddd630525e)" style="fill: none; stroke-dasharray: 3.7,1.6; stroke-dashoffset: 0; stroke: #808080"/>
     </g>
     <g id="line2d_10">
      <g>
       <use xlink:href="#m11e9f3575d" x="315.168595" y="256.32" style="stroke: #000000; stroke-width: 0.8"/>
      </g>
     </g>
     <g id="text_5">
      <!-- $\mathdefault{80}$ -->
      <g transform="translate(309.168595 271.646875) scale(0.12 -0.12)">
       <defs>
        <path id="Cmr10-38" d="M 269 972 
Q 269 1356 522 1651 
Q 775 1947 1172 2144 
L 934 2297 
Q 716 2441 578 2680 
Q 441 2919 441 3181 
Q 441 3488 602 3734 
Q 763 3981 1030 4122 
Q 1297 4263 1600 4263 
Q 1884 4263 2148 4147 
Q 2413 4031 2583 3815 
Q 2753 3600 2753 3303 
Q 2753 3088 2651 2903 
Q 2550 2719 2373 2572 
Q 2197 2425 1997 2322 
L 2363 2088 
Q 2616 1922 2770 1653 
Q 2925 1384 2925 1088 
Q 2925 741 2739 456 
Q 2553 172 2247 15 
Q 1941 -141 1600 -141 
Q 1269 -141 961 -6 
Q 653 128 461 383 
Q 269 638 269 972 
z
M 616 972 
Q 616 719 755 509 
Q 894 300 1122 181 
Q 1350 63 1600 63 
Q 1972 63 2275 280 
Q 2578 497 2578 856 
Q 2578 978 2529 1098 
Q 2481 1219 2395 1317 
Q 2309 1416 2203 1478 
L 1344 2034 
Q 1144 1928 976 1765 
Q 809 1603 712 1400 
Q 616 1197 616 972 
z
M 1056 2925 
L 1831 2425 
Q 2100 2581 2272 2803 
Q 2444 3025 2444 3303 
Q 2444 3519 2323 3698 
Q 2203 3878 2009 3978 
Q 1816 4078 1594 4078 
Q 1400 4078 1203 4003 
Q 1006 3928 878 3779 
Q 750 3631 750 3431 
Q 750 3131 1056 2925 
z
" transform="scale(0.015625)"/>
       </defs>
       <use xlink:href="#Cmr10-38" transform="translate(0 0.390625)"/>
       <use xlink:href="#Cmr10-30" transform="translate(50 0.390625)"/>
      </g>
     </g>
    </g>
    <g id="xtick_6">
     <g id="line2d_11">
      <path d="M 376.656198 256.32 
L 376.656198 34.56 
" clip-path="url(#pddd630525e)" style="fill: none; stroke-dasharray: 3.7,1.6; stroke-dashoffset: 0; stroke: #808080"/>
     </g>
     <g id="line2d_12">
      <g>
       <use xlink:href="#m11e9f3575d" x="376.656198" y="256.32" style="stroke: #000000; stroke-width: 0.8"/>
      </g>
     </g>
     <g id="text_6">
      <!-- $\mathdefault{100}$ -->
      <g transform="translate(367.656198 271.646875) scale(0.12 -0.12)">
       <defs>
        <path id="Cmr10-31" d="M 594 0 
L 594 225 
Q 1394 225 1394 428 
L 1394 3788 
Q 1063 3628 556 3628 
L 556 3853 
Q 1341 3853 1741 4263 
L 1831 4263 
Q 1853 4263 1873 4245 
Q 1894 4228 1894 4206 
L 1894 428 
Q 1894 225 2694 225 
L 2694 0 
L 594 0 
z
" transform="scale(0.015625)"/>
       </defs>
       <use xlink:href="#Cmr10-31" transform="translate(0 0.390625)"/>
       <use xlink:href="#Cmr10-30" transform="translate(50 0.390625)"/>
       <use xlink:href="#Cmr10-30" transform="translate(100 0.390625)"/>
      </g>
     </g>
    </g>
    <g id="text_7">
     <!-- Epoch -->
     <g transform="translate(204.99375 292.300625) scale(0.12 -0.12)">
      <defs>
       <path id="Cmr10-45" d="M 197 0 
L 197 225 
Q 856 225 856 428 
L 856 3944 
Q 856 4147 197 4147 
L 197 4372 
L 3816 4372 
L 3994 2906 
L 3809 2906 
Q 3741 3459 3617 3709 
Q 3494 3959 3222 4053 
Q 2950 4147 2406 4147 
L 1778 4147 
Q 1663 4147 1598 4137 
Q 1534 4128 1493 4083 
Q 1453 4038 1453 3944 
L 1453 2381 
L 1925 2381 
Q 2250 2381 2411 2436 
Q 2572 2491 2633 2645 
Q 2694 2800 2694 3128 
L 2881 3128 
L 2881 1409 
L 2694 1409 
Q 2694 1734 2633 1890 
Q 2572 2047 2411 2101 
Q 2250 2156 1925 2156 
L 1453 2156 
L 1453 428 
Q 1453 291 1531 258 
Q 1609 225 1778 225 
L 2456 225 
Q 2900 225 3173 295 
Q 3447 366 3598 530 
Q 3750 694 3833 955 
Q 3916 1216 3988 1678 
L 4172 1678 
L 3903 0 
L 197 0 
z
" transform="scale(0.015625)"/>
       <path id="Cmr10-70" d="M 166 -1241 
L 166 -1019 
Q 384 -1019 525 -981 
Q 666 -944 666 -813 
L 666 2272 
Q 666 2447 541 2490 
Q 416 2534 166 2534 
L 166 2759 
L 1113 2828 
L 1113 2431 
Q 1288 2625 1520 2726 
Q 1753 2828 2016 2828 
Q 2394 2828 2697 2623 
Q 3000 2419 3170 2086 
Q 3341 1753 3341 1381 
Q 3341 994 3152 659 
Q 2963 325 2636 126 
Q 2309 -72 1919 -72 
Q 1453 -72 1131 306 
L 1131 -813 
Q 1131 -944 1273 -981 
Q 1416 -1019 1631 -1019 
L 1631 -1241 
L 166 -1241 
z
M 1131 622 
Q 1244 394 1444 245 
Q 1644 97 1881 97 
Q 2103 97 2273 215 
Q 2444 334 2559 534 
Q 2675 734 2729 954 
Q 2784 1175 2784 1381 
Q 2784 1638 2692 1936 
Q 2600 2234 2411 2439 
Q 2222 2644 1953 2644 
Q 1694 2644 1476 2511 
Q 1259 2378 1131 2150 
L 1131 622 
z
" transform="scale(0.015625)"/>
       <path id="Cmr10-6f" d="M 1600 -72 
Q 1216 -72 887 123 
Q 559 319 368 647 
Q 178 975 178 1363 
Q 178 1656 283 1928 
Q 388 2200 583 2414 
Q 778 2628 1037 2748 
Q 1297 2869 1600 2869 
Q 1994 2869 2317 2661 
Q 2641 2453 2828 2104 
Q 3016 1756 3016 1363 
Q 3016 978 2825 648 
Q 2634 319 2307 123 
Q 1981 -72 1600 -72 
z
M 1600 116 
Q 2113 116 2284 487 
Q 2456 859 2456 1434 
Q 2456 1756 2422 1967 
Q 2388 2178 2272 2350 
Q 2200 2456 2089 2536 
Q 1978 2616 1854 2658 
Q 1731 2700 1600 2700 
Q 1400 2700 1220 2609 
Q 1041 2519 922 2350 
Q 803 2169 770 1951 
Q 738 1734 738 1434 
Q 738 1075 800 789 
Q 863 503 1052 309 
Q 1241 116 1600 116 
z
" transform="scale(0.015625)"/>
       <path id="Cmr10-63" d="M 1594 -72 
Q 1206 -72 890 129 
Q 575 331 394 667 
Q 213 1003 213 1381 
Q 213 1759 392 2106 
Q 572 2453 889 2661 
Q 1206 2869 1594 2869 
Q 1969 2869 2276 2722 
Q 2584 2575 2584 2241 
Q 2584 2116 2495 2023 
Q 2406 1931 2278 1931 
Q 2150 1931 2061 2023 
Q 1972 2116 1972 2241 
Q 1972 2353 2044 2436 
Q 2116 2519 2222 2541 
Q 2000 2681 1600 2681 
Q 1294 2681 1106 2478 
Q 919 2275 844 1975 
Q 769 1675 769 1381 
Q 769 1072 861 783 
Q 953 494 1158 305 
Q 1363 116 1672 116 
Q 1975 116 2187 302 
Q 2400 488 2478 788 
Q 2478 825 2528 825 
L 2606 825 
Q 2625 825 2640 808 
Q 2656 791 2656 769 
L 2656 750 
Q 2559 372 2271 150 
Q 1984 -72 1594 -72 
z
" transform="scale(0.015625)"/>
       <path id="Cmr10-68" d="M 191 0 
L 191 225 
Q 409 225 550 259 
Q 691 294 691 428 
L 691 3788 
Q 691 3959 639 4036 
Q 588 4113 491 4130 
Q 394 4147 191 4147 
L 191 4372 
L 1141 4441 
L 1141 2241 
Q 1275 2506 1515 2667 
Q 1756 2828 2047 2828 
Q 2491 2828 2714 2615 
Q 2938 2403 2938 1966 
L 2938 428 
Q 2938 294 3078 259 
Q 3219 225 3438 225 
L 3438 0 
L 1972 0 
L 1972 225 
Q 2191 225 2331 259 
Q 2472 294 2472 428 
L 2472 1947 
Q 2472 2259 2381 2461 
Q 2291 2663 2009 2663 
Q 1638 2663 1398 2366 
Q 1159 2069 1159 1691 
L 1159 428 
Q 1159 294 1300 259 
Q 1441 225 1656 225 
L 1656 0 
L 191 0 
z
" transform="scale(0.015625)"/>
      </defs>
      <use xlink:href="#Cmr10-45"/>
      <use xlink:href="#Cmr10-70" transform="translate(68.017578 0)"/>
      <use xlink:href="#Cmr10-6f" transform="translate(123.535156 0)"/>
      <use xlink:href="#Cmr10-63" transform="translate(173.535156 0)"/>
      <use xlink:href="#Cmr10-68" transform="translate(217.919922 0)"/>
     </g>
    </g>
   </g>
   <g id="matplotlib.axis_2">
    <g id="ytick_1">
     <g id="line2d_13">
      <path d="M 54 223.014194 
L 388.8 223.014194 
" clip-path="url(#pddd630525e)" style="fill: none; stroke-dasharray: 3.7,1.6; stroke-dashoffset: 0; stroke: #808080"/>
     </g>
     <g id="line2d_14">
      <defs>
       <path id="mf2e2845bca" d="M 0 0 
L -3.5 0 
" style="stroke: #000000; stroke-width: 0.8"/>
      </defs>
      <g>
       <use xlink:href="#mf2e2845bca" x="54" y="223.014194" style="stroke: #000000; stroke-width: 0.8"/>
      </g>
     </g>
     <g id="text_8">
      <!-- $\mathdefault{0.2}$ -->
      <g transform="translate(31.64 227.177631) scale(0.12 -0.12)">
       <defs>
        <path id="Cmr10-2e" d="M 538 353 
Q 538 497 644 600 
Q 750 703 891 703 
Q 978 703 1062 656 
Q 1147 609 1194 525 
Q 1241 441 1241 353 
Q 1241 213 1137 106 
Q 1034 0 891 0 
Q 750 0 644 106 
Q 538 213 538 353 
z
" transform="scale(0.015625)"/>
       </defs>
       <use xlink:href="#Cmr10-30" transform="translate(0 0.390625)"/>
       <use xlink:href="#Cmr10-2e" transform="translate(50 0.390625)"/>
       <use xlink:href="#Cmr10-32" transform="translate(77.685547 0.390625)"/>
      </g>
     </g>
    </g>
    <g id="ytick_2">
     <g id="line2d_15">
      <path d="M 54 176.562581 
L 388.8 176.562581 
" clip-path="url(#pddd630525e)" style="fill: none; stroke-dasharray: 3.7,1.6; stroke-dashoffset: 0; stroke: #808080"/>
     </g>
     <g id="line2d_16">
      <g>
       <use xlink:href="#mf2e2845bca" x="54" y="176.562581" style="stroke: #000000; stroke-width: 0.8"/>
      </g>
     </g>
     <g id="text_9">
      <!-- $\mathdefault{0.4}$ -->
      <g transform="translate(31.64 180.726018) scale(0.12 -0.12)">
       <use xlink:href="#Cmr10-30" transform="translate(0 0.390625)"/>
       <use xlink:href="#Cmr10-2e" transform="translate(50 0.390625)"/>
       <use xlink:href="#Cmr10-34" transform="translate(77.685547 0.390625)"/>
      </g>
     </g>
    </g>
    <g id="ytick_3">
     <g id="line2d_17">
      <path d="M 54 130.110968 
L 388.8 130.110968 
" clip-path="url(#pddd630525e)" style="fill: none; stroke-dasharray: 3.7,1.6; stroke-dashoffset: 0; stroke: #808080"/>
     </g>
     <g id="line2d_18">
      <g>
       <use xlink:href="#mf2e2845bca" x="54" y="130.110968" style="stroke: #000000; stroke-width: 0.8"/>
      </g>
     </g>
     <g id="text_10">
      <!-- $\mathdefault{0.6}$ -->
      <g transform="translate(31.64 134.274405) scale(0.12 -0.12)">
       <use xlink:href="#Cmr10-30" transform="translate(0 0.390625)"/>
       <use xlink:href="#Cmr10-2e" transform="translate(50 0.390625)"/>
       <use xlink:href="#Cmr10-36" transform="translate(77.685547 0.390625)"/>
      </g>
     </g>
    </g>
    <g id="ytick_4">
     <g id="line2d_19">
      <path d="M 54 83.659355 
L 388.8 83.659355 
" clip-path="url(#pddd630525e)" style="fill: none; stroke-dasharray: 3.7,1.6; stroke-dashoffset: 0; stroke: #808080"/>
     </g>
     <g id="line2d_20">
      <g>
       <use xlink:href="#mf2e2845bca" x="54" y="83.659355" style="stroke: #000000; stroke-width: 0.8"/>
      </g>
     </g>
     <g id="text_11">
      <!-- $\mathdefault{0.8}$ -->
      <g transform="translate(31.64 87.822792) scale(0.12 -0.12)">
       <use xlink:href="#Cmr10-30" transform="translate(0 0.390625)"/>
       <use xlink:href="#Cmr10-2e" transform="translate(50 0.390625)"/>
       <use xlink:href="#Cmr10-38" transform="translate(77.685547 0.390625)"/>
      </g>
     </g>
    </g>
    <g id="ytick_5">
     <g id="line2d_21">
      <path d="M 54 37.207742 
L 388.8 37.207742 
" clip-path="url(#pddd630525e)" style="fill: none; stroke-dasharray: 3.7,1.6; stroke-dashoffset: 0; stroke: #808080"/>
     </g>
     <g id="line2d_22">
      <g>
       <use xlink:href="#mf2e2845bca" x="54" y="37.207742" style="stroke: #000000; stroke-width: 0.8"/>
      </g>
     </g>
     <g id="text_12">
      <!-- $\mathdefault{1.0}$ -->
      <g transform="translate(31.64 41.371179) scale(0.12 -0.12)">
       <use xlink:href="#Cmr10-31" transform="translate(0 0.390625)"/>
       <use xlink:href="#Cmr10-2e" transform="translate(50 0.390625)"/>
       <use xlink:href="#Cmr10-30" transform="translate(77.685547 0.390625)"/>
      </g>
     </g>
    </g>
    <g id="text_13">
     <!-- $\mu$ Model Confidence -->
     <g transform="translate(19.12 198.24) rotate(-90) scale(0.12 -0.12)">
      <defs>
       <path id="DejaVuSans-Oblique-3bc" d="M -84 -1331 
L 856 3500 
L 1434 3500 
L 1009 1322 
Q 997 1256 987 1175 
Q 978 1094 978 1013 
Q 978 722 1161 565 
Q 1344 409 1684 409 
Q 2147 409 2431 671 
Q 2716 934 2816 1459 
L 3213 3500 
L 3788 3500 
L 3266 809 
Q 3253 750 3248 706 
Q 3244 663 3244 628 
Q 3244 531 3283 486 
Q 3322 441 3406 441 
Q 3438 441 3492 456 
Q 3547 472 3647 513 
L 3559 50 
Q 3422 -19 3297 -55 
Q 3172 -91 3053 -91 
Q 2847 -91 2730 40 
Q 2613 172 2613 403 
Q 2438 153 2195 31 
Q 1953 -91 1625 -91 
Q 1334 -91 1117 43 
Q 900 178 831 397 
L 494 -1331 
L -84 -1331 
z
" transform="scale(0.015625)"/>
       <path id="Cmr10-20" transform="scale(0.015625)"/>
       <path id="Cmr10-4d" d="M 225 0 
L 225 225 
Q 884 225 884 603 
L 884 3944 
Q 884 4147 225 4147 
L 225 4372 
L 1434 4372 
Q 1513 4372 1538 4300 
L 2931 678 
L 4325 4300 
Q 4350 4372 4428 4372 
L 5638 4372 
L 5638 4147 
Q 4978 4147 4978 3944 
L 4978 428 
Q 4978 225 5638 225 
L 5638 0 
L 3775 0 
L 3775 225 
Q 4434 225 4434 428 
L 4434 4153 
L 2859 72 
Q 2831 0 2753 0 
Q 2672 0 2644 72 
L 1088 4103 
L 1088 603 
Q 1088 225 1747 225 
L 1747 0 
L 225 0 
z
" transform="scale(0.015625)"/>
       <path id="Cmr10-64" d="M 1563 -72 
Q 1184 -72 871 133 
Q 559 338 386 672 
Q 213 1006 213 1381 
Q 213 1769 402 2101 
Q 591 2434 916 2631 
Q 1241 2828 1631 2828 
Q 1866 2828 2075 2729 
Q 2284 2631 2438 2456 
L 2438 3788 
Q 2438 3959 2386 4036 
Q 2334 4113 2239 4130 
Q 2144 4147 1941 4147 
L 1941 4372 
L 2888 4441 
L 2888 581 
Q 2888 413 2939 336 
Q 2991 259 3086 242 
Q 3181 225 3384 225 
L 3384 0 
L 2419 -72 
L 2419 331 
Q 2253 141 2025 34 
Q 1797 -72 1563 -72 
z
M 909 556 
Q 1019 347 1201 222 
Q 1384 97 1600 97 
Q 1866 97 2087 250 
Q 2309 403 2419 647 
L 2419 2181 
Q 2344 2322 2230 2433 
Q 2116 2544 1973 2603 
Q 1831 2663 1672 2663 
Q 1338 2663 1134 2473 
Q 931 2284 850 1990 
Q 769 1697 769 1375 
Q 769 1119 795 928 
Q 822 738 909 556 
z
" transform="scale(0.015625)"/>
       <path id="Cmr10-65" d="M 1594 -72 
Q 1203 -72 876 133 
Q 550 338 364 680 
Q 178 1022 178 1403 
Q 178 1778 348 2115 
Q 519 2453 823 2661 
Q 1128 2869 1503 2869 
Q 1797 2869 2014 2770 
Q 2231 2672 2372 2497 
Q 2513 2322 2584 2084 
Q 2656 1847 2656 1563 
Q 2656 1478 2591 1478 
L 738 1478 
L 738 1409 
Q 738 878 952 497 
Q 1166 116 1650 116 
Q 1847 116 2014 203 
Q 2181 291 2304 447 
Q 2428 603 2472 781 
Q 2478 803 2495 820 
Q 2513 838 2534 838 
L 2591 838 
Q 2656 838 2656 756 
Q 2566 394 2266 161 
Q 1966 -72 1594 -72 
z
M 744 1638 
L 2203 1638 
Q 2203 1878 2136 2125 
Q 2069 2372 1912 2536 
Q 1756 2700 1503 2700 
Q 1141 2700 942 2361 
Q 744 2022 744 1638 
z
" transform="scale(0.015625)"/>
       <path id="Cmr10-6c" d="M 197 0 
L 197 225 
Q 416 225 556 259 
Q 697 294 697 428 
L 697 3788 
Q 697 3959 645 4036 
Q 594 4113 497 4130 
Q 400 4147 197 4147 
L 197 4372 
L 1147 4441 
L 1147 428 
Q 1147 294 1287 259 
Q 1428 225 1644 225 
L 1644 0 
L 197 0 
z
" transform="scale(0.015625)"/>
       <path id="Cmr10-43" d="M 1459 684 
Q 1678 406 2006 245 
Q 2334 84 2688 84 
Q 2984 84 3237 201 
Q 3491 319 3680 528 
Q 3869 738 3970 1003 
Q 4072 1269 4072 1563 
Q 4072 1613 4128 1613 
L 4206 1613 
Q 4256 1613 4256 1550 
Q 4256 1216 4128 905 
Q 4000 594 3765 358 
Q 3531 122 3226 -9 
Q 2922 -141 2591 -141 
Q 2131 -141 1720 45 
Q 1309 231 1004 554 
Q 700 878 529 1303 
Q 359 1728 359 2188 
Q 359 2647 529 3072 
Q 700 3497 1004 3822 
Q 1309 4147 1720 4330 
Q 2131 4513 2591 4513 
Q 2919 4513 3219 4370 
Q 3519 4228 3744 3969 
L 4116 4494 
Q 4153 4513 4159 4513 
L 4206 4513 
Q 4225 4513 4240 4497 
Q 4256 4481 4256 4459 
L 4256 2731 
Q 4256 2675 4206 2675 
L 4091 2675 
Q 4031 2675 4031 2731 
Q 4031 2916 3957 3144 
Q 3884 3372 3770 3576 
Q 3656 3781 3506 3938 
Q 3147 4288 2681 4288 
Q 2328 4288 2004 4128 
Q 1681 3969 1459 3688 
Q 1225 3388 1134 3005 
Q 1044 2622 1044 2188 
Q 1044 1753 1134 1368 
Q 1225 984 1459 684 
z
" transform="scale(0.015625)"/>
       <path id="Cmr10-6e" d="M 191 0 
L 191 225 
Q 409 225 550 259 
Q 691 294 691 428 
L 691 2175 
Q 691 2347 639 2423 
Q 588 2500 491 2517 
Q 394 2534 191 2534 
L 191 2759 
L 1119 2828 
L 1119 2203 
Q 1247 2478 1498 2653 
Q 1750 2828 2047 2828 
Q 2491 2828 2714 2615 
Q 2938 2403 2938 1966 
L 2938 428 
Q 2938 294 3078 259 
Q 3219 225 3438 225 
L 3438 0 
L 1972 0 
L 1972 225 
Q 2191 225 2331 259 
Q 2472 294 2472 428 
L 2472 1947 
Q 2472 2259 2381 2461 
Q 2291 2663 2009 2663 
Q 1638 2663 1398 2366 
Q 1159 2069 1159 1691 
L 1159 428 
Q 1159 294 1300 259 
Q 1441 225 1656 225 
L 1656 0 
L 191 0 
z
" transform="scale(0.015625)"/>
       <path id="Cmr10-66" d="M 206 0 
L 206 225 
Q 422 225 562 259 
Q 703 294 703 428 
L 703 2534 
L 213 2534 
L 213 2759 
L 703 2759 
L 703 3525 
Q 703 3731 789 3911 
Q 875 4091 1020 4225 
Q 1166 4359 1355 4436 
Q 1544 4513 1747 4513 
Q 1963 4513 2136 4384 
Q 2309 4256 2309 4044 
Q 2309 3922 2226 3839 
Q 2144 3756 2022 3756 
Q 1900 3756 1814 3839 
Q 1728 3922 1728 4044 
Q 1728 4244 1900 4313 
Q 1797 4347 1716 4347 
Q 1528 4347 1395 4214 
Q 1263 4081 1197 3890 
Q 1131 3700 1131 3513 
L 1131 2759 
L 1869 2759 
L 1869 2534 
L 1153 2534 
L 1153 428 
Q 1153 297 1340 261 
Q 1528 225 1772 225 
L 1772 0 
L 206 0 
z
" transform="scale(0.015625)"/>
       <path id="Cmr10-69" d="M 197 0 
L 197 225 
Q 416 225 556 259 
Q 697 294 697 428 
L 697 2175 
Q 697 2422 601 2478 
Q 506 2534 225 2534 
L 225 2759 
L 1147 2828 
L 1147 428 
Q 1147 294 1269 259 
Q 1391 225 1594 225 
L 1594 0 
L 197 0 
z
M 469 3928 
Q 469 4069 575 4175 
Q 681 4281 819 4281 
Q 909 4281 993 4234 
Q 1078 4188 1125 4103 
Q 1172 4019 1172 3928 
Q 1172 3791 1065 3684 
Q 959 3578 819 3578 
Q 681 3578 575 3684 
Q 469 3791 469 3928 
z
" transform="scale(0.015625)"/>
      </defs>
      <use xlink:href="#DejaVuSans-Oblique-3bc" transform="translate(0 0.484375)"/>
      <use xlink:href="#Cmr10-20" transform="translate(63.623047 0.484375)"/>
      <use xlink:href="#Cmr10-4d" transform="translate(96.923828 0.484375)"/>
      <use xlink:href="#Cmr10-6f" transform="translate(188.525391 0.484375)"/>
      <use xlink:href="#Cmr10-64" transform="translate(238.525391 0.484375)"/>
      <use xlink:href="#Cmr10-65" transform="translate(294.042969 0.484375)"/>
      <use xlink:href="#Cmr10-6c" transform="translate(338.427734 0.484375)"/>
      <use xlink:href="#Cmr10-20" transform="translate(366.113281 0.484375)"/>
      <use xlink:href="#Cmr10-43" transform="translate(399.414062 0.484375)"/>
      <use xlink:href="#Cmr10-6f" transform="translate(471.630859 0.484375)"/>
      <use xlink:href="#Cmr10-6e" transform="translate(521.630859 0.484375)"/>
      <use xlink:href="#Cmr10-66" transform="translate(577.148438 0.484375)"/>
      <use xlink:href="#Cmr10-69" transform="translate(607.666016 0.484375)"/>
      <use xlink:href="#Cmr10-64" transform="translate(635.351562 0.484375)"/>
      <use xlink:href="#Cmr10-65" transform="translate(690.869141 0.484375)"/>
      <use xlink:href="#Cmr10-6e" transform="translate(735.253906 0.484375)"/>
      <use xlink:href="#Cmr10-63" transform="translate(790.771484 0.484375)"/>
      <use xlink:href="#Cmr10-65" transform="translate(835.15625 0.484375)"/>
     </g>
    </g>
   </g>
   <g id="line2d_23">
    <path d="M 69.218182 199.788387 
L 72.292562 177.027097 
L 75.366942 165.414194 
L 78.441322 158.446452 
L 81.515702 151.47871 
L 84.590083 144.975484 
L 87.664463 138.936774 
L 90.738843 132.898065 
L 93.813223 127.788387 
L 96.887603 124.072258 
L 99.961983 120.820645 
L 103.036364 118.033548 
L 106.110744 115.246452 
L 109.185124 112.459355 
L 112.259504 109.672258 
L 115.333884 107.814194 
L 118.408264 105.491613 
L 121.482645 103.169032 
L 124.557025 100.846452 
L 127.631405 99.917419 
L 130.705785 97.594839 
L 133.780165 95.736774 
L 136.854545 93.87871 
L 139.928926 92.485161 
L 143.003306 91.091613 
L 146.077686 89.698065 
L 149.152066 89.233548 
L 152.226446 87.84 
L 155.300826 86.910968 
L 158.375207 85.981935 
L 161.449587 84.588387 
L 164.523967 83.194839 
L 167.598347 82.730323 
L 170.672727 82.265806 
L 173.747107 80.407742 
L 176.821488 80.407742 
L 179.895868 80.872258 
L 182.970248 78.549677 
L 186.044628 78.549677 
L 189.119008 77.620645 
L 192.193388 75.762581 
L 195.267769 75.762581 
L 198.342149 75.298065 
L 201.416529 73.904516 
L 204.490909 73.904516 
L 207.565289 72.510968 
L 210.639669 72.510968 
L 213.71405 72.510968 
L 216.78843 71.581935 
L 219.86281 70.652903 
L 222.93719 70.188387 
L 226.01157 69.259355 
L 229.08595 69.259355 
L 232.160331 68.330323 
L 235.234711 68.330323 
L 238.309091 67.40129 
L 241.383471 67.40129 
L 244.457851 66.936774 
L 247.532231 66.472258 
L 250.606612 64.614194 
L 253.680992 65.07871 
L 256.755372 65.07871 
L 259.829752 64.149677 
L 262.904132 63.685161 
L 265.978512 64.149677 
L 269.052893 62.756129 
L 272.127273 62.756129 
L 275.201653 62.291613 
L 278.276033 62.291613 
L 281.350413 62.291613 
L 284.424793 60.898065 
L 287.499174 60.898065 
L 290.573554 60.898065 
L 293.647934 60.433548 
L 296.722314 60.433548 
L 299.796694 59.969032 
L 302.871074 60.433548 
L 305.945455 59.969032 
L 309.019835 60.433548 
L 312.094215 59.04 
L 315.168595 58.575484 
L 318.242975 59.04 
L 321.317355 58.110968 
L 324.391736 59.04 
L 327.466116 58.575484 
L 330.540496 58.110968 
L 333.614876 58.110968 
L 336.689256 58.575484 
L 339.763636 58.110968 
L 342.838017 58.110968 
L 345.912397 58.110968 
L 348.986777 58.110968 
L 352.061157 57.181935 
L 355.135537 57.181935 
L 358.209917 57.646452 
L 361.284298 56.717419 
L 364.358678 57.181935 
L 367.433058 56.717419 
L 370.507438 56.717419 
L 373.581818 56.717419 
" clip-path="url(#pddd630525e)" style="fill: none; stroke: #ffa500; stroke-width: 1.5; stroke-linecap: square"/>
   </g>
   <g id="line2d_24">
    <path d="M 69.218182 246.24 
L 72.292562 233.698065 
L 75.366942 198.859355 
L 78.441322 185.388387 
L 81.515702 177.956129 
L 84.590083 171.452903 
L 87.664463 164.949677 
L 90.738843 156.588387 
L 93.813223 151.014194 
L 96.887603 145.44 
L 99.961983 139.40129 
L 103.036364 134.291613 
L 106.110744 129.646452 
L 109.185124 125.930323 
L 112.259504 122.67871 
L 115.333884 119.427097 
L 118.408264 115.710968 
L 121.482645 112.923871 
L 124.557025 110.60129 
L 127.631405 108.27871 
L 130.705785 106.420645 
L 133.780165 103.169032 
L 136.854545 102.24 
L 139.928926 99.452903 
L 143.003306 97.594839 
L 146.077686 96.20129 
L 149.152066 95.272258 
L 152.226446 93.87871 
L 155.300826 92.485161 
L 158.375207 91.091613 
L 161.449587 90.627097 
L 164.523967 89.233548 
L 167.598347 87.84 
L 170.672727 87.84 
L 173.747107 86.910968 
L 176.821488 85.517419 
L 179.895868 85.052903 
L 182.970248 84.123871 
L 186.044628 82.730323 
L 189.119008 82.730323 
L 192.193388 81.80129 
L 195.267769 80.872258 
L 198.342149 79.47871 
L 201.416529 78.549677 
L 204.490909 79.014194 
L 207.565289 78.549677 
L 210.639669 77.620645 
L 213.71405 75.762581 
L 216.78843 75.298065 
L 219.86281 74.833548 
L 222.93719 73.904516 
L 226.01157 73.44 
L 229.08595 72.510968 
L 232.160331 72.046452 
L 235.234711 72.046452 
L 238.309091 70.188387 
L 241.383471 70.652903 
L 244.457851 70.188387 
L 247.532231 70.652903 
L 250.606612 69.259355 
L 253.680992 67.40129 
L 256.755372 68.330323 
L 259.829752 67.865806 
L 262.904132 66.936774 
L 265.978512 67.40129 
L 269.052893 66.472258 
L 272.127273 66.007742 
L 275.201653 66.007742 
L 278.276033 65.07871 
L 281.350413 65.07871 
L 284.424793 64.614194 
L 287.499174 63.685161 
L 290.573554 63.685161 
L 293.647934 63.685161 
L 296.722314 63.220645 
L 299.796694 62.756129 
L 302.871074 61.827097 
L 305.945455 61.362581 
L 309.019835 61.362581 
L 312.094215 61.362581 
L 315.168595 60.898065 
L 318.242975 59.969032 
L 321.317355 60.433548 
L 324.391736 59.969032 
L 327.466116 59.969032 
L 330.540496 59.04 
L 333.614876 59.04 
L 336.689256 59.504516 
L 339.763636 58.575484 
L 342.838017 58.575484 
L 345.912397 58.575484 
L 348.986777 57.646452 
L 352.061157 57.646452 
L 355.135537 57.646452 
L 358.209917 57.181935 
L 361.284298 56.717419 
L 364.358678 56.252903 
L 367.433058 56.252903 
L 370.507438 56.717419 
L 373.581818 56.252903 
" clip-path="url(#pddd630525e)" style="fill: none; stroke: #ff0000; stroke-width: 1.5; stroke-linecap: square"/>
   </g>
   <g id="line2d_25">
    <path d="M 69.218182 112.923871 
L 72.292562 96.665806 
L 75.366942 85.517419 
L 78.441322 80.407742 
L 81.515702 73.44 
L 84.590083 68.330323 
L 87.664463 66.007742 
L 90.738843 63.685161 
L 93.813223 62.291613 
L 96.887603 59.504516 
L 99.961983 59.04 
L 103.036364 57.181935 
L 106.110744 56.252903 
L 109.185124 55.323871 
L 112.259504 53.930323 
L 115.333884 53.465806 
L 118.408264 53.465806 
L 121.482645 52.536774 
L 124.557025 51.143226 
L 127.631405 51.607742 
L 130.705785 51.143226 
L 133.780165 51.143226 
L 136.854545 49.749677 
L 139.928926 48.820645 
L 143.003306 49.285161 
L 146.077686 48.820645 
L 149.152066 48.820645 
L 152.226446 48.820645 
L 155.300826 48.820645 
L 158.375207 48.356129 
L 161.449587 47.427097 
L 164.523967 48.356129 
L 167.598347 47.427097 
L 170.672727 46.962581 
L 173.747107 47.891613 
L 176.821488 46.498065 
L 179.895868 46.498065 
L 182.970248 46.498065 
L 186.044628 46.498065 
L 189.119008 46.962581 
L 192.193388 46.498065 
L 195.267769 46.498065 
L 198.342149 46.498065 
L 201.416529 46.498065 
L 204.490909 46.498065 
L 207.565289 46.498065 
L 210.639669 46.498065 
L 213.71405 46.498065 
L 216.78843 46.498065 
L 219.86281 46.498065 
L 222.93719 46.498065 
L 226.01157 46.498065 
L 229.08595 45.569032 
L 232.160331 46.498065 
L 235.234711 46.498065 
L 238.309091 46.498065 
L 241.383471 46.033548 
L 244.457851 46.498065 
L 247.532231 46.033548 
L 250.606612 46.498065 
L 253.680992 46.033548 
L 256.755372 46.498065 
L 259.829752 46.033548 
L 262.904132 46.498065 
L 265.978512 46.962581 
L 269.052893 46.498065 
L 272.127273 45.569032 
L 275.201653 46.033548 
L 278.276033 46.498065 
L 281.350413 46.498065 
L 284.424793 46.498065 
L 287.499174 45.104516 
L 290.573554 45.104516 
L 293.647934 46.033548 
L 296.722314 45.104516 
L 299.796694 46.498065 
L 302.871074 45.569032 
L 305.945455 46.498065 
L 309.019835 46.033548 
L 312.094215 45.569032 
L 315.168595 46.033548 
L 318.242975 45.569032 
L 321.317355 45.104516 
L 324.391736 45.104516 
L 327.466116 46.033548 
L 330.540496 45.104516 
L 333.614876 45.104516 
L 336.689256 45.569032 
L 339.763636 45.104516 
L 342.838017 45.104516 
L 345.912397 45.104516 
L 348.986777 44.64 
L 352.061157 45.104516 
L 355.135537 45.104516 
L 358.209917 44.64 
L 361.284298 44.64 
L 364.358678 44.64 
L 367.433058 44.64 
L 370.507438 45.104516 
L 373.581818 44.64 
" clip-path="url(#pddd630525e)" style="fill: none; stroke: #1e90ff; stroke-width: 1.5; stroke-linecap: square"/>
   </g>
   <g id="line2d_26">
    <path d="M 69.218182 223.943226 
L 72.292562 195.607742 
L 75.366942 182.136774 
L 78.441322 172.381935 
L 81.515702 166.343226 
L 84.590083 162.162581 
L 87.664463 157.517419 
L 90.738843 154.265806 
L 93.813223 151.014194 
L 96.887603 149.156129 
L 99.961983 145.904516 
L 103.036364 143.581935 
L 106.110744 141.259355 
L 109.185124 138.472258 
L 112.259504 136.614194 
L 115.333884 135.220645 
L 118.408264 133.362581 
L 121.482645 131.04 
L 124.557025 130.110968 
L 127.631405 128.252903 
L 130.705785 126.859355 
L 133.780165 125.00129 
L 136.854545 124.072258 
L 139.928926 122.214194 
L 143.003306 121.285161 
L 146.077686 119.891613 
L 149.152066 118.033548 
L 152.226446 118.033548 
L 155.300826 115.710968 
L 158.375207 115.246452 
L 161.449587 114.781935 
L 164.523967 113.388387 
L 167.598347 112.459355 
L 170.672727 111.065806 
L 173.747107 110.136774 
L 176.821488 109.207742 
L 179.895868 108.743226 
L 182.970248 108.743226 
L 186.044628 108.27871 
L 189.119008 106.420645 
L 192.193388 105.956129 
L 195.267769 105.027097 
L 198.342149 104.562581 
L 201.416529 103.169032 
L 204.490909 103.633548 
L 207.565289 102.704516 
L 210.639669 102.24 
L 213.71405 101.310968 
L 216.78843 101.310968 
L 219.86281 99.917419 
L 222.93719 99.917419 
L 226.01157 99.452903 
L 229.08595 98.988387 
L 232.160331 98.523871 
L 235.234711 97.594839 
L 238.309091 98.059355 
L 241.383471 97.130323 
L 244.457851 96.20129 
L 247.532231 95.272258 
L 250.606612 94.807742 
L 253.680992 95.272258 
L 256.755372 93.87871 
L 259.829752 93.87871 
L 262.904132 92.949677 
L 265.978512 93.414194 
L 269.052893 92.020645 
L 272.127273 91.556129 
L 275.201653 91.556129 
L 278.276033 91.091613 
L 281.350413 91.091613 
L 284.424793 90.627097 
L 287.499174 89.233548 
L 290.573554 89.233548 
L 293.647934 88.769032 
L 296.722314 89.233548 
L 299.796694 88.769032 
L 302.871074 87.84 
L 305.945455 88.304516 
L 309.019835 86.446452 
L 312.094215 86.910968 
L 315.168595 86.910968 
L 318.242975 86.910968 
L 321.317355 86.446452 
L 324.391736 85.517419 
L 327.466116 85.052903 
L 330.540496 84.588387 
L 333.614876 85.517419 
L 336.689256 84.123871 
L 339.763636 83.659355 
L 342.838017 84.123871 
L 345.912397 84.123871 
L 348.986777 82.730323 
L 352.061157 82.730323 
L 355.135537 82.265806 
L 358.209917 82.265806 
L 361.284298 82.265806 
L 364.358678 81.80129 
L 367.433058 81.336774 
L 370.507438 80.872258 
L 373.581818 79.943226 
" clip-path="url(#pddd630525e)" style="fill: none; stroke: #008000; stroke-width: 1.5; stroke-linecap: square"/>
   </g>
   <g id="line2d_27">
    <path d="M 69.218182 239.272258 
L 72.292562 241.594839 
L 75.366942 241.594839 
L 78.441322 238.807742 
L 81.515702 227.659355 
L 84.590083 213.723871 
L 87.664463 205.362581 
L 90.738843 199.788387 
L 93.813223 192.820645 
L 96.887603 184.923871 
L 99.961983 178.420645 
L 103.036364 171.452903 
L 106.110744 166.343226 
L 109.185124 161.698065 
L 112.259504 154.730323 
L 115.333884 148.691613 
L 118.408264 144.046452 
L 121.482645 139.40129 
L 124.557025 135.685161 
L 127.631405 130.110968 
L 130.705785 128.252903 
L 133.780165 124.536774 
L 136.854545 120.820645 
L 139.928926 118.498065 
L 143.003306 116.175484 
L 146.077686 113.852903 
L 149.152066 111.530323 
L 152.226446 108.743226 
L 155.300826 108.743226 
L 158.375207 105.956129 
L 161.449587 103.633548 
L 164.523967 102.24 
L 167.598347 100.381935 
L 170.672727 98.523871 
L 173.747107 97.594839 
L 176.821488 96.20129 
L 179.895868 93.87871 
L 182.970248 92.485161 
L 186.044628 91.091613 
L 189.119008 90.162581 
L 192.193388 89.233548 
L 195.267769 85.981935 
L 198.342149 85.052903 
L 201.416529 83.659355 
L 204.490909 82.265806 
L 207.565289 80.872258 
L 210.639669 79.943226 
L 213.71405 78.549677 
L 216.78843 77.620645 
L 219.86281 76.227097 
L 222.93719 75.298065 
L 226.01157 73.904516 
L 229.08595 74.369032 
L 232.160331 72.510968 
L 235.234711 72.046452 
L 238.309091 70.652903 
L 241.383471 70.188387 
L 244.457851 68.794839 
L 247.532231 67.40129 
L 250.606612 67.865806 
L 253.680992 66.472258 
L 256.755372 65.07871 
L 259.829752 64.614194 
L 262.904132 63.220645 
L 265.978512 62.756129 
L 269.052893 62.756129 
L 272.127273 62.756129 
L 275.201653 61.362581 
L 278.276033 60.433548 
L 281.350413 59.969032 
L 284.424793 60.433548 
L 287.499174 59.504516 
L 290.573554 59.969032 
L 293.647934 58.575484 
L 296.722314 59.04 
L 299.796694 58.575484 
L 302.871074 58.110968 
L 305.945455 57.646452 
L 309.019835 57.181935 
L 312.094215 57.181935 
L 315.168595 55.788387 
L 318.242975 56.717419 
L 321.317355 55.788387 
L 324.391736 55.788387 
L 327.466116 55.788387 
L 330.540496 55.788387 
L 333.614876 55.788387 
L 336.689256 54.394839 
L 339.763636 54.859355 
L 342.838017 54.394839 
L 345.912397 54.394839 
L 348.986777 54.394839 
L 352.061157 53.465806 
L 355.135537 53.465806 
L 358.209917 53.930323 
L 361.284298 53.465806 
L 364.358678 53.465806 
L 367.433058 53.465806 
L 370.507438 53.465806 
L 373.581818 53.465806 
" clip-path="url(#pddd630525e)" style="fill: none; stroke: #000000; stroke-width: 1.5; stroke-linecap: square"/>
   </g>
   <g id="line2d_28">
    <path d="M 69.218182 246.24 
L 72.292562 231.84 
L 75.366942 187.710968 
L 78.441322 172.381935 
L 81.515702 164.020645 
L 84.590083 157.517419 
L 87.664463 150.085161 
L 90.738843 145.904516 
L 93.813223 137.543226 
L 96.887603 131.969032 
L 99.961983 126.859355 
L 103.036364 121.749677 
L 106.110744 118.498065 
L 109.185124 114.781935 
L 112.259504 111.065806 
L 115.333884 109.207742 
L 118.408264 105.027097 
L 121.482645 102.704516 
L 124.557025 101.310968 
L 127.631405 98.523871 
L 130.705785 96.665806 
L 133.780165 94.807742 
L 136.854545 93.87871 
L 139.928926 91.091613 
L 143.003306 89.233548 
L 146.077686 88.769032 
L 149.152066 86.446452 
L 152.226446 84.588387 
L 155.300826 84.588387 
L 158.375207 84.123871 
L 161.449587 82.730323 
L 164.523967 80.407742 
L 167.598347 81.336774 
L 170.672727 79.943226 
L 173.747107 79.47871 
L 176.821488 77.620645 
L 179.895868 76.691613 
L 182.970248 76.227097 
L 186.044628 75.298065 
L 189.119008 75.298065 
L 192.193388 74.833548 
L 195.267769 72.510968 
L 198.342149 72.975484 
L 201.416529 72.510968 
L 204.490909 71.581935 
L 207.565289 71.581935 
L 210.639669 70.188387 
L 213.71405 69.723871 
L 216.78843 68.330323 
L 219.86281 67.865806 
L 222.93719 67.40129 
L 226.01157 67.40129 
L 229.08595 65.07871 
L 232.160331 66.007742 
L 235.234711 66.007742 
L 238.309091 64.614194 
L 241.383471 64.149677 
L 244.457851 63.685161 
L 247.532231 62.756129 
L 250.606612 62.291613 
L 253.680992 61.827097 
L 256.755372 61.827097 
L 259.829752 60.898065 
L 262.904132 60.898065 
L 265.978512 60.898065 
L 269.052893 59.969032 
L 272.127273 58.575484 
L 275.201653 59.504516 
L 278.276033 59.04 
L 281.350413 58.575484 
L 284.424793 58.110968 
L 287.499174 57.646452 
L 290.573554 57.181935 
L 293.647934 56.717419 
L 296.722314 55.788387 
L 299.796694 56.252903 
L 302.871074 55.788387 
L 305.945455 55.788387 
L 309.019835 54.859355 
L 312.094215 54.859355 
L 315.168595 55.323871 
L 318.242975 54.394839 
L 321.317355 53.465806 
L 324.391736 53.465806 
L 327.466116 53.465806 
L 330.540496 53.465806 
L 333.614876 53.00129 
L 336.689256 53.00129 
L 339.763636 52.536774 
L 342.838017 52.536774 
L 345.912397 52.536774 
L 348.986777 52.536774 
L 352.061157 51.143226 
L 355.135537 51.143226 
L 358.209917 51.607742 
L 361.284298 50.214194 
L 364.358678 51.143226 
L 367.433058 50.67871 
L 370.507438 50.214194 
L 373.581818 51.143226 
" clip-path="url(#pddd630525e)" style="fill: none; stroke: #0000ff; stroke-width: 1.5; stroke-linecap: square"/>
   </g>
   <g id="line2d_29">
    <path d="M 69.218182 127.323871 
L 72.292562 105.027097 
L 75.366942 93.414194 
L 78.441322 85.981935 
L 81.515702 79.47871 
L 84.590083 74.369032 
L 87.664463 70.188387 
L 90.738843 67.40129 
L 93.813223 65.07871 
L 96.887603 64.149677 
L 99.961983 61.362581 
L 103.036364 60.898065 
L 106.110744 59.04 
L 109.185124 58.575484 
L 112.259504 56.717419 
L 115.333884 55.788387 
L 118.408264 55.788387 
L 121.482645 54.859355 
L 124.557025 53.930323 
L 127.631405 53.00129 
L 130.705785 53.465806 
L 133.780165 52.536774 
L 136.854545 51.607742 
L 139.928926 51.143226 
L 143.003306 51.143226 
L 146.077686 51.143226 
L 149.152066 51.143226 
L 152.226446 51.143226 
L 155.300826 51.143226 
L 158.375207 51.143226 
L 161.449587 51.143226 
L 164.523967 51.143226 
L 167.598347 51.143226 
L 170.672727 51.143226 
L 173.747107 51.143226 
L 176.821488 51.143226 
L 179.895868 51.143226 
L 182.970248 51.143226 
L 186.044628 51.143226 
L 189.119008 51.143226 
L 192.193388 51.607742 
L 195.267769 51.143226 
L 198.342149 51.607742 
L 201.416529 51.143226 
L 204.490909 51.607742 
L 207.565289 51.607742 
L 210.639669 51.607742 
L 213.71405 52.536774 
L 216.78843 52.536774 
L 219.86281 52.536774 
L 222.93719 53.00129 
L 226.01157 53.00129 
L 229.08595 53.00129 
L 232.160331 53.00129 
L 235.234711 52.536774 
L 238.309091 53.00129 
L 241.383471 53.00129 
L 244.457851 53.00129 
L 247.532231 53.00129 
L 250.606612 53.465806 
L 253.680992 53.465806 
L 256.755372 53.465806 
L 259.829752 53.465806 
L 262.904132 53.465806 
L 265.978512 53.465806 
L 269.052893 53.465806 
L 272.127273 53.465806 
L 275.201653 53.465806 
L 278.276033 53.465806 
L 281.350413 53.465806 
L 284.424793 53.465806 
L 287.499174 53.465806 
L 290.573554 53.465806 
L 293.647934 53.465806 
L 296.722314 53.465806 
L 299.796694 53.465806 
L 302.871074 53.465806 
L 305.945455 53.465806 
L 309.019835 53.465806 
L 312.094215 53.465806 
L 315.168595 53.465806 
L 318.242975 53.465806 
L 321.317355 53.465806 
L 324.391736 53.465806 
L 327.466116 53.465806 
L 330.540496 53.465806 
L 333.614876 53.465806 
L 336.689256 53.465806 
L 339.763636 53.465806 
L 342.838017 53.465806 
L 345.912397 53.465806 
L 348.986777 53.465806 
L 352.061157 53.465806 
L 355.135537 53.465806 
L 358.209917 53.465806 
L 361.284298 53.465806 
L 364.358678 53.465806 
L 367.433058 53.465806 
L 370.507438 53.465806 
L 373.581818 53.465806 
" clip-path="url(#pddd630525e)" style="fill: none; stroke: #8b4513; stroke-width: 1.5; stroke-linecap: square"/>
   </g>
   <g id="patch_3">
    <path d="M 54 256.32 
L 54 34.56 
" style="fill: none; stroke: #000000; stroke-width: 0.8; stroke-linejoin: miter; stroke-linecap: square"/>
   </g>
   <g id="patch_4">
    <path d="M 388.8 256.32 
L 388.8 34.56 
" style="fill: none; stroke: #000000; stroke-width: 0.8; stroke-linejoin: miter; stroke-linecap: square"/>
   </g>
   <g id="patch_5">
    <path d="M 54 256.32 
L 388.8 256.32 
" style="fill: none; stroke: #000000; stroke-width: 0.8; stroke-linejoin: miter; stroke-linecap: square"/>
   </g>
   <g id="patch_6">
    <path d="M 54 34.56 
L 388.8 34.56 
" style="fill: none; stroke: #000000; stroke-width: 0.8; stroke-linejoin: miter; stroke-linecap: square"/>
   </g>
   <g id="legend_1">
    <g id="patch_7">
     <path d="M 256.23 250.32 
L 380.4 250.32 
Q 382.8 250.32 382.8 247.92 
L 382.8 132.031875 
Q 382.8 129.631875 380.4 129.631875 
L 256.23 129.631875 
Q 253.83 129.631875 253.83 132.031875 
L 253.83 247.92 
Q 253.83 250.32 256.23 250.32 
z
" style="fill: #ffffff; opacity: 0.8; stroke: #cccccc; stroke-linejoin: miter"/>
    </g>
    <g id="line2d_30">
     <path d="M 258.63 138.631875 
L 270.63 138.631875 
L 282.63 138.631875 
" style="fill: none; stroke: #ffa500; stroke-width: 1.5; stroke-linecap: square"/>
    </g>
    <g id="text_14">
     <!-- AlexNetTH_VIB -->
     <g transform="translate(292.23 142.831875) scale(0.12 -0.12)">
      <defs>
       <path id="Cmr10-41" d="M 206 0 
L 206 225 
Q 778 225 909 603 
L 2253 4513 
Q 2272 4581 2356 4581 
L 2438 4581 
Q 2522 4581 2541 4513 
L 3944 428 
Q 4003 294 4170 259 
Q 4338 225 4588 225 
L 4588 0 
L 2803 0 
L 2803 225 
Q 3334 225 3334 397 
L 3334 428 
L 2988 1428 
L 1434 1428 
L 1147 603 
Q 1141 581 1141 538 
Q 1141 378 1292 301 
Q 1444 225 1619 225 
L 1619 0 
L 206 0 
z
M 1509 1650 
L 2913 1650 
L 2209 3694 
L 1509 1650 
z
" transform="scale(0.015625)"/>
       <path id="Cmr10-78" d="M 78 0 
L 78 225 
Q 322 225 537 320 
Q 753 416 903 603 
L 1484 1344 
L 728 2328 
Q 616 2469 483 2501 
Q 350 2534 109 2534 
L 109 2759 
L 1441 2759 
L 1441 2534 
Q 1356 2534 1282 2496 
Q 1209 2459 1209 2388 
Q 1209 2363 1228 2328 
L 1741 1663 
L 2125 2156 
Q 2203 2250 2203 2344 
Q 2203 2422 2151 2478 
Q 2100 2534 2016 2534 
L 2016 2759 
L 3194 2759 
L 3194 2534 
Q 2947 2534 2730 2439 
Q 2513 2344 2363 2156 
L 1856 1509 
L 2675 428 
Q 2797 288 2928 256 
Q 3059 225 3303 225 
L 3303 0 
L 1972 0 
L 1972 225 
Q 2050 225 2122 262 
Q 2194 300 2194 372 
Q 2194 400 2175 428 
L 1600 1191 
L 1141 603 
Q 1069 522 1069 416 
Q 1069 338 1122 281 
Q 1175 225 1247 225 
L 1247 0 
L 78 0 
z
" transform="scale(0.015625)"/>
       <path id="Cmr10-4e" d="M 197 0 
L 197 225 
Q 856 225 856 603 
L 856 4109 
Q 647 4147 197 4147 
L 197 4372 
L 1422 4372 
Q 1453 4372 1466 4347 
L 3731 1013 
L 3731 3769 
Q 3731 4147 3072 4147 
L 3072 4372 
L 4594 4372 
L 4594 4147 
Q 3938 4147 3938 3769 
L 3938 56 
Q 3938 38 3913 19 
Q 3888 0 3872 0 
L 3794 0 
Q 3763 0 3750 25 
L 1063 3981 
L 1063 603 
Q 1063 225 1722 225 
L 1722 0 
L 197 0 
z
" transform="scale(0.015625)"/>
       <path id="Cmr10-74" d="M 653 769 
L 653 2534 
L 122 2534 
L 122 2700 
Q 541 2700 737 3090 
Q 934 3481 934 3938 
L 1119 3938 
L 1119 2759 
L 2022 2759 
L 2022 2534 
L 1119 2534 
L 1119 781 
Q 1119 516 1208 316 
Q 1297 116 1528 116 
Q 1747 116 1844 327 
Q 1941 538 1941 781 
L 1941 1159 
L 2125 1159 
L 2125 769 
Q 2125 569 2051 373 
Q 1978 178 1834 53 
Q 1691 -72 1484 -72 
Q 1100 -72 876 158 
Q 653 388 653 769 
z
" transform="scale(0.015625)"/>
       <path id="Cmr10-54" d="M 1081 0 
L 1081 225 
Q 1403 225 1706 261 
Q 2009 297 2009 428 
L 2009 3944 
Q 2009 4081 1932 4114 
Q 1856 4147 1684 4147 
L 1416 4147 
Q 888 4147 666 3916 
Q 550 3800 500 3545 
Q 450 3291 416 2906 
L 231 2906 
L 353 4372 
L 4263 4372 
L 4384 2906 
L 4197 2906 
Q 4159 3319 4114 3561 
Q 4069 3803 3950 3916 
Q 3725 4147 3200 4147 
L 2931 4147 
Q 2816 4147 2752 4137 
Q 2688 4128 2647 4083 
Q 2606 4038 2606 3944 
L 2606 428 
Q 2606 297 2909 261 
Q 3213 225 3531 225 
L 3531 0 
L 1081 0 
z
" transform="scale(0.015625)"/>
       <path id="Cmr10-48" d="M 197 0 
L 197 225 
Q 856 225 856 428 
L 856 3944 
Q 856 4147 197 4147 
L 197 4372 
L 2113 4372 
L 2113 4147 
Q 1453 4147 1453 3944 
L 1453 2388 
L 3341 2388 
L 3341 3944 
Q 3341 4147 2681 4147 
L 2681 4372 
L 4594 4372 
L 4594 4147 
Q 3938 4147 3938 3944 
L 3938 428 
Q 3938 225 4594 225 
L 4594 0 
L 2681 0 
L 2681 225 
Q 3341 225 3341 428 
L 3341 2163 
L 1453 2163 
L 1453 428 
Q 1453 225 2113 225 
L 2113 0 
L 197 0 
z
" transform="scale(0.015625)"/>
       <path id="Cmr10-5f" d="M 538 3928 
Q 538 4069 644 4175 
Q 750 4281 891 4281 
Q 978 4281 1062 4234 
Q 1147 4188 1194 4103 
Q 1241 4019 1241 3928 
Q 1241 3791 1137 3684 
Q 1034 3578 891 3578 
Q 750 3578 644 3684 
Q 538 3791 538 3928 
z
" transform="scale(0.015625)"/>
       <path id="Cmr10-56" d="M 2253 -72 
L 744 3944 
Q 688 4078 528 4112 
Q 369 4147 122 4147 
L 122 4372 
L 1881 4372 
L 1881 4147 
Q 1350 4147 1350 3981 
Q 1353 3972 1354 3964 
Q 1356 3956 1356 3944 
L 2584 678 
L 3744 3769 
Q 3756 3794 3756 3847 
Q 3756 4003 3612 4075 
Q 3469 4147 3291 4147 
L 3291 4372 
L 4672 4372 
L 4672 4147 
Q 4431 4147 4248 4058 
Q 4066 3969 3988 3769 
L 2541 -72 
Q 2522 -141 2438 -141 
L 2356 -141 
Q 2272 -141 2253 -72 
z
" transform="scale(0.015625)"/>
       <path id="Cmr10-49" d="M 166 0 
L 166 225 
Q 856 225 856 428 
L 856 3944 
Q 856 4147 166 4147 
L 166 4372 
L 2144 4372 
L 2144 4147 
Q 1453 4147 1453 3944 
L 1453 428 
Q 1453 225 2144 225 
L 2144 0 
L 166 0 
z
" transform="scale(0.015625)"/>
       <path id="Cmr10-42" d="M 219 0 
L 219 225 
Q 878 225 878 428 
L 878 3944 
Q 878 4147 219 4147 
L 219 4372 
L 2572 4372 
Q 2897 4372 3228 4245 
Q 3559 4119 3776 3870 
Q 3994 3622 3994 3284 
Q 3994 2894 3673 2630 
Q 3353 2366 2925 2284 
Q 3203 2284 3497 2131 
Q 3791 1978 3978 1722 
Q 4166 1466 4166 1178 
Q 4166 828 3958 559 
Q 3750 291 3419 145 
Q 3088 0 2753 0 
L 219 0 
z
M 1434 428 
Q 1434 291 1512 258 
Q 1591 225 1759 225 
L 2572 225 
Q 2822 225 3036 356 
Q 3250 488 3375 708 
Q 3500 928 3500 1178 
Q 3500 1422 3397 1655 
Q 3294 1888 3101 2038 
Q 2909 2188 2663 2188 
L 1434 2188 
L 1434 428 
z
M 1434 2356 
L 2394 2356 
Q 2588 2356 2758 2426 
Q 2928 2497 3064 2630 
Q 3200 2763 3273 2930 
Q 3347 3097 3347 3284 
Q 3347 3450 3292 3603 
Q 3238 3756 3131 3881 
Q 3025 4006 2881 4076 
Q 2738 4147 2572 4147 
L 1759 4147 
Q 1644 4147 1580 4137 
Q 1516 4128 1475 4083 
Q 1434 4038 1434 3944 
L 1434 2356 
z
" transform="scale(0.015625)"/>
      </defs>
      <use xlink:href="#Cmr10-41"/>
      <use xlink:href="#Cmr10-6c" transform="translate(75 0)"/>
      <use xlink:href="#Cmr10-65" transform="translate(102.685547 0)"/>
      <use xlink:href="#Cmr10-78" transform="translate(147.070312 0)"/>
      <use xlink:href="#Cmr10-4e" transform="translate(199.755859 0)"/>
      <use xlink:href="#Cmr10-65" transform="translate(274.755859 0)"/>
      <use xlink:href="#Cmr10-74" transform="translate(319.140625 0)"/>
      <use xlink:href="#Cmr10-54" transform="translate(357.958984 0)"/>
      <use xlink:href="#Cmr10-48" transform="translate(430.175781 0)"/>
      <use xlink:href="#Cmr10-5f" transform="translate(505.175781 0)"/>
      <use xlink:href="#Cmr10-56" transform="translate(532.861328 0)"/>
      <use xlink:href="#Cmr10-49" transform="translate(607.861328 0)"/>
      <use xlink:href="#Cmr10-42" transform="translate(643.945312 0)"/>
     </g>
    </g>
    <g id="line2d_31">
     <path d="M 258.63 155.35875 
L 270.63 155.35875 
L 282.63 155.35875 
" style="fill: none; stroke: #ff0000; stroke-width: 1.5; stroke-linecap: square"/>
    </g>
    <g id="text_15">
     <!-- AlexNetMCDO -->
     <g transform="translate(292.23 159.55875) scale(0.12 -0.12)">
      <defs>
       <path id="Cmr10-44" d="M 213 0 
L 213 225 
Q 872 225 872 428 
L 872 3944 
Q 872 4147 213 4147 
L 213 4372 
L 2572 4372 
Q 3009 4372 3371 4183 
Q 3734 3994 3990 3678 
Q 4247 3363 4386 2963 
Q 4525 2563 4525 2144 
Q 4525 1738 4384 1355 
Q 4244 972 3980 664 
Q 3716 356 3355 178 
Q 2994 0 2572 0 
L 213 0 
z
M 1447 428 
Q 1447 291 1525 258 
Q 1603 225 1772 225 
L 2406 225 
Q 2734 225 3029 367 
Q 3325 509 3519 763 
Q 3722 1031 3790 1364 
Q 3859 1697 3859 2144 
Q 3859 2609 3790 2959 
Q 3722 3309 3519 3584 
Q 3328 3856 3034 4001 
Q 2741 4147 2406 4147 
L 1772 4147 
Q 1656 4147 1592 4137 
Q 1528 4128 1487 4083 
Q 1447 4038 1447 3944 
L 1447 428 
z
" transform="scale(0.015625)"/>
       <path id="Cmr10-4f" d="M 2491 -141 
Q 1881 -141 1395 182 
Q 909 506 634 1042 
Q 359 1578 359 2169 
Q 359 2606 517 3034 
Q 675 3463 958 3794 
Q 1241 4125 1637 4319 
Q 2034 4513 2491 4513 
Q 2944 4513 3342 4317 
Q 3741 4122 4025 3787 
Q 4309 3453 4462 3037 
Q 4616 2622 4616 2169 
Q 4616 1578 4341 1042 
Q 4066 506 3578 182 
Q 3091 -141 2491 -141 
z
M 1428 691 
Q 1616 397 1891 223 
Q 2166 50 2491 50 
Q 2700 50 2901 134 
Q 3103 219 3267 366 
Q 3431 513 3547 691 
Q 3928 1266 3928 2272 
Q 3928 3194 3547 3731 
Q 3359 4000 3079 4162 
Q 2800 4325 2491 4325 
Q 2178 4325 1897 4162 
Q 1616 4000 1428 3731 
Q 1278 3522 1195 3286 
Q 1113 3050 1078 2797 
Q 1044 2544 1044 2272 
Q 1044 1981 1076 1704 
Q 1109 1428 1198 1162 
Q 1288 897 1428 691 
z
" transform="scale(0.015625)"/>
      </defs>
      <use xlink:href="#Cmr10-41"/>
      <use xlink:href="#Cmr10-6c" transform="translate(75 0)"/>
      <use xlink:href="#Cmr10-65" transform="translate(102.685547 0)"/>
      <use xlink:href="#Cmr10-78" transform="translate(147.070312 0)"/>
      <use xlink:href="#Cmr10-4e" transform="translate(199.755859 0)"/>
      <use xlink:href="#Cmr10-65" transform="translate(274.755859 0)"/>
      <use xlink:href="#Cmr10-74" transform="translate(319.140625 0)"/>
      <use xlink:href="#Cmr10-4d" transform="translate(357.958984 0)"/>
      <use xlink:href="#Cmr10-43" transform="translate(449.560547 0)"/>
      <use xlink:href="#Cmr10-44" transform="translate(521.777344 0)"/>
      <use xlink:href="#Cmr10-4f" transform="translate(598.095703 0)"/>
     </g>
    </g>
    <g id="line2d_32">
     <path d="M 258.63 172.085625 
L 270.63 172.085625 
L 282.63 172.085625 
" style="fill: none; stroke: #1e90ff; stroke-width: 1.5; stroke-linecap: square"/>
    </g>
    <g id="text_16">
     <!-- VGG -->
     <g transform="translate(292.23 176.285625) scale(0.12 -0.12)">
      <defs>
       <path id="Cmr10-47" d="M 1472 684 
Q 1703 403 2036 243 
Q 2369 84 2731 84 
Q 3088 84 3378 265 
Q 3669 447 3669 781 
L 3669 1319 
Q 3669 1522 2869 1522 
L 2869 1747 
L 4703 1747 
L 4703 1522 
Q 4500 1522 4381 1487 
Q 4263 1453 4263 1319 
L 4263 56 
Q 4263 34 4245 17 
Q 4228 0 4206 0 
Q 4147 0 4008 140 
Q 3869 281 3788 391 
Q 3631 122 3297 -9 
Q 2963 -141 2597 -141 
Q 1975 -141 1464 179 
Q 953 500 656 1036 
Q 359 1572 359 2188 
Q 359 2641 531 3069 
Q 703 3497 1011 3822 
Q 1319 4147 1728 4330 
Q 2138 4513 2597 4513 
Q 2928 4513 3223 4370 
Q 3519 4228 3750 3969 
L 4122 4494 
Q 4159 4513 4166 4513 
L 4213 4513 
Q 4231 4513 4247 4497 
Q 4263 4481 4263 4459 
L 4263 2731 
Q 4263 2675 4213 2675 
L 4097 2675 
Q 4038 2675 4038 2731 
Q 4038 2916 3964 3144 
Q 3891 3372 3777 3576 
Q 3663 3781 3513 3938 
Q 3153 4288 2688 4288 
Q 2331 4288 2006 4128 
Q 1681 3969 1459 3688 
Q 1225 3388 1134 3005 
Q 1044 2622 1044 2188 
Q 1044 1206 1472 684 
z
" transform="scale(0.015625)"/>
      </defs>
      <use xlink:href="#Cmr10-56"/>
      <use xlink:href="#Cmr10-47" transform="translate(75 0)"/>
      <use xlink:href="#Cmr10-47" transform="translate(153.417969 0)"/>
     </g>
    </g>
    <g id="line2d_33">
     <path d="M 258.63 188.8125 
L 270.63 188.8125 
L 282.63 188.8125 
" style="fill: none; stroke: #008000; stroke-width: 1.5; stroke-linecap: square"/>
    </g>
    <g id="text_17">
     <!-- LeNet -->
     <g transform="translate(292.23 193.0125) scale(0.12 -0.12)">
      <defs>
       <path id="Cmr10-4c" d="M 197 0 
L 197 225 
Q 856 225 856 428 
L 856 3944 
Q 856 4147 197 4147 
L 197 4372 
L 2272 4372 
L 2272 4147 
Q 1453 4147 1453 3944 
L 1453 428 
Q 1453 291 1531 258 
Q 1609 225 1778 225 
L 2272 225 
Q 2750 225 3009 400 
Q 3269 575 3376 876 
Q 3484 1178 3541 1678 
L 3725 1678 
L 3547 0 
L 197 0 
z
" transform="scale(0.015625)"/>
      </defs>
      <use xlink:href="#Cmr10-4c"/>
      <use xlink:href="#Cmr10-65" transform="translate(62.5 0)"/>
      <use xlink:href="#Cmr10-4e" transform="translate(106.884766 0)"/>
      <use xlink:href="#Cmr10-65" transform="translate(181.884766 0)"/>
      <use xlink:href="#Cmr10-74" transform="translate(226.269531 0)"/>
     </g>
    </g>
    <g id="line2d_34">
     <path d="M 258.63 205.539375 
L 270.63 205.539375 
L 282.63 205.539375 
" style="fill: none; stroke: #000000; stroke-width: 1.5; stroke-linecap: square"/>
    </g>
    <g id="text_18">
     <!-- AlexNetVIB -->
     <g transform="translate(292.23 209.739375) scale(0.12 -0.12)">
      <use xlink:href="#Cmr10-41"/>
      <use xlink:href="#Cmr10-6c" transform="translate(75 0)"/>
      <use xlink:href="#Cmr10-65" transform="translate(102.685547 0)"/>
      <use xlink:href="#Cmr10-78" transform="translate(147.070312 0)"/>
      <use xlink:href="#Cmr10-4e" transform="translate(199.755859 0)"/>
      <use xlink:href="#Cmr10-65" transform="translate(274.755859 0)"/>
      <use xlink:href="#Cmr10-74" transform="translate(319.140625 0)"/>
      <use xlink:href="#Cmr10-56" transform="translate(357.958984 0)"/>
      <use xlink:href="#Cmr10-49" transform="translate(432.958984 0)"/>
      <use xlink:href="#Cmr10-42" transform="translate(469.042969 0)"/>
     </g>
    </g>
    <g id="line2d_35">
     <path d="M 258.63 222.26625 
L 270.63 222.26625 
L 282.63 222.26625 
" style="fill: none; stroke: #0000ff; stroke-width: 1.5; stroke-linecap: square"/>
    </g>
    <g id="text_19">
     <!-- AlexNet -->
     <g transform="translate(292.23 226.46625) scale(0.12 -0.12)">
      <use xlink:href="#Cmr10-41"/>
      <use xlink:href="#Cmr10-6c" transform="translate(75 0)"/>
      <use xlink:href="#Cmr10-65" transform="translate(102.685547 0)"/>
      <use xlink:href="#Cmr10-78" transform="translate(147.070312 0)"/>
      <use xlink:href="#Cmr10-4e" transform="translate(199.755859 0)"/>
      <use xlink:href="#Cmr10-65" transform="translate(274.755859 0)"/>
      <use xlink:href="#Cmr10-74" transform="translate(319.140625 0)"/>
     </g>
    </g>
    <g id="line2d_36">
     <path d="M 258.63 238.993125 
L 270.63 238.993125 
L 282.63 238.993125 
" style="fill: none; stroke: #8b4513; stroke-width: 1.5; stroke-linecap: square"/>
    </g>
    <g id="text_20">
     <!-- ResNet -->
     <g transform="translate(292.23 243.193125) scale(0.12 -0.12)">
      <defs>
       <path id="Cmr10-52" d="M 213 0 
L 213 225 
Q 872 225 872 428 
L 872 3944 
Q 872 4147 213 4147 
L 213 4372 
L 2222 4372 
Q 2581 4372 2976 4242 
Q 3372 4113 3637 3847 
Q 3903 3581 3903 3213 
Q 3903 2944 3742 2733 
Q 3581 2522 3329 2380 
Q 3078 2238 2816 2175 
Q 3103 2075 3318 1856 
Q 3534 1638 3578 1356 
L 3669 788 
Q 3731 403 3800 214 
Q 3869 25 4103 25 
Q 4303 25 4401 211 
Q 4500 397 4500 616 
Q 4500 638 4520 655 
Q 4541 672 4563 672 
L 4622 672 
Q 4684 672 4684 588 
Q 4684 413 4615 245 
Q 4547 78 4417 -31 
Q 4288 -141 4109 -141 
Q 3647 -141 3314 89 
Q 2981 319 2981 763 
L 2981 1331 
Q 2981 1650 2759 1878 
Q 2538 2106 2216 2106 
L 1447 2106 
L 1447 428 
Q 1447 225 2106 225 
L 2106 0 
L 213 0 
z
M 1447 2272 
L 2131 2272 
Q 2663 2272 2941 2486 
Q 3219 2700 3219 3213 
Q 3219 3722 2944 3934 
Q 2669 4147 2131 4147 
L 1772 4147 
Q 1656 4147 1592 4137 
Q 1528 4128 1487 4083 
Q 1447 4038 1447 3944 
L 1447 2272 
z
" transform="scale(0.015625)"/>
       <path id="Cmr10-73" d="M 213 -19 
L 213 1025 
Q 213 1075 269 1075 
L 347 1075 
Q 384 1075 397 1025 
Q 575 97 1259 97 
Q 1563 97 1767 234 
Q 1972 372 1972 659 
Q 1972 866 1812 1011 
Q 1653 1156 1434 1209 
L 1006 1294 
Q 791 1341 614 1437 
Q 438 1534 325 1695 
Q 213 1856 213 2069 
Q 213 2350 361 2529 
Q 509 2709 746 2789 
Q 984 2869 1259 2869 
Q 1588 2869 1831 2694 
L 2016 2853 
Q 2016 2869 2047 2869 
L 2094 2869 
Q 2113 2869 2128 2851 
Q 2144 2834 2144 2816 
L 2144 1978 
Q 2144 1919 2094 1919 
L 2016 1919 
Q 1959 1919 1959 1978 
Q 1959 2313 1773 2516 
Q 1588 2719 1253 2719 
Q 966 2719 755 2612 
Q 544 2506 544 2247 
Q 544 2069 695 1955 
Q 847 1841 1050 1791 
L 1484 1709 
Q 1703 1659 1892 1540 
Q 2081 1422 2192 1240 
Q 2303 1059 2303 831 
Q 2303 600 2223 429 
Q 2144 259 2001 146 
Q 1859 34 1665 -19 
Q 1472 -72 1259 -72 
Q 859 -72 575 197 
L 341 -56 
Q 341 -72 306 -72 
L 269 -72 
Q 213 -72 213 -19 
z
" transform="scale(0.015625)"/>
      </defs>
      <use xlink:href="#Cmr10-52"/>
      <use xlink:href="#Cmr10-65" transform="translate(73.583984 0)"/>
      <use xlink:href="#Cmr10-73" transform="translate(117.96875 0)"/>
      <use xlink:href="#Cmr10-4e" transform="translate(157.373047 0)"/>
      <use xlink:href="#Cmr10-65" transform="translate(232.373047 0)"/>
      <use xlink:href="#Cmr10-74" transform="translate(276.757812 0)"/>
     </g>
    </g>
   </g>
  </g>
 </g>
 <defs>
  <clipPath id="pddd630525e">
   <rect x="54" y="34.56" width="334.8" height="221.76"/>
  </clipPath>
 </defs>
</svg>
