<?xml version="1.0" encoding="utf-8" standalone="no"?>
<!DOCTYPE svg PUBLIC "-//W3C//DTD SVG 1.1//EN"
  "http://www.w3.org/Graphics/SVG/1.1/DTD/svg11.dtd">
<svg xmlns:xlink="http://www.w3.org/1999/xlink" width="864pt" height="432pt" viewBox="0 0 864 432" xmlns="http://www.w3.org/2000/svg" version="1.1">
 <metadata>
  <rdf:RDF xmlns:dc="http://purl.org/dc/elements/1.1/" xmlns:cc="http://creativecommons.org/ns#" xmlns:rdf="http://www.w3.org/1999/02/22-rdf-syntax-ns#">
   <cc:Work>
    <dc:type rdf:resource="http://purl.org/dc/dcmitype/StillImage"/>
    <dc:date>2025-04-23T05:38:38.596222</dc:date>
    <dc:format>image/svg+xml</dc:format>
    <dc:creator>
     <cc:Agent>
      <dc:title>Matplotlib v3.10.1, https://matplotlib.org/</dc:title>
     </cc:Agent>
    </dc:creator>
   </cc:Work>
  </rdf:RDF>
 </metadata>
 <defs>
  <style type="text/css">*{stroke-linejoin: round; stroke-linecap: butt}</style>
 </defs>
 <g id="figure_1">
  <g id="patch_1">
   <path d="M 0 432 
L 864 432 
L 864 0 
L 0 0 
z
" style="fill: #ffffff"/>
  </g>
  <g id="axes_1">
   <g id="patch_2">
    <path d="M 50.367266 365.799988 
L 840.63 365.799988 
L 840.63 12.96 
L 50.367266 12.96 
z
" style="fill: #ffffff"/>
   </g>
   <g id="patch_3">
    <path d="M 86.288299 365.799988 
L 99.350493 365.799988 
L 99.350493 284.048107 
L 86.288299 284.048107 
z
" clip-path="url(#pacd5dd7cca)" style="fill: #1f77b4"/>
   </g>
   <g id="patch_4">
    <path d="M 99.350493 365.799988 
L 112.412687 365.799988 
L 112.412687 284.629281 
L 99.350493 284.629281 
z
" clip-path="url(#pacd5dd7cca)" style="fill: #2ca02c"/>
   </g>
   <g id="patch_5">
    <path d="M 112.412687 365.799988 
L 125.474881 365.799988 
L 125.474881 285.016731 
L 112.412687 285.016731 
z
" clip-path="url(#pacd5dd7cca)" style="fill: #d62728"/>
   </g>
   <g id="patch_6">
    <path d="M 125.474881 365.799988 
L 138.537075 365.799988 
L 138.537075 284.532419 
L 125.474881 284.532419 
z
" clip-path="url(#pacd5dd7cca)" style="fill: #ff7f0e"/>
   </g>
   <g id="patch_7">
    <path d="M 138.537075 365.799988 
L 151.599269 365.799988 
L 151.599269 284.435556 
L 138.537075 284.435556 
z
" clip-path="url(#pacd5dd7cca)" style="fill: #8c564b"/>
   </g>
   <g id="patch_8">
    <path d="M 195.139915 365.799988 
L 208.202109 365.799988 
L 208.202109 29.761904 
L 195.139915 29.761904 
z
" clip-path="url(#pacd5dd7cca)" style="fill: #1f77b4"/>
   </g>
   <g id="patch_9">
    <path d="M 208.202109 365.799988 
L 221.264303 365.799988 
L 221.264303 30.258635 
L 208.202109 30.258635 
z
" clip-path="url(#pacd5dd7cca)" style="fill: #2ca02c"/>
   </g>
   <g id="patch_10">
    <path d="M 221.264303 365.799988 
L 234.326497 365.799988 
L 234.326497 30.175846 
L 221.264303 30.175846 
z
" clip-path="url(#pacd5dd7cca)" style="fill: #d62728"/>
   </g>
   <g id="patch_11">
    <path d="M 234.326497 365.799988 
L 247.388691 365.799988 
L 247.388691 30.175846 
L 234.326497 30.175846 
z
" clip-path="url(#pacd5dd7cca)" style="fill: #ff7f0e"/>
   </g>
   <g id="patch_12">
    <path d="M 247.388691 365.799988 
L 260.450885 365.799988 
L 260.450885 30.838153 
L 247.388691 30.838153 
z
" clip-path="url(#pacd5dd7cca)" style="fill: #8c564b"/>
   </g>
   <g id="patch_13">
    <path d="M 303.991532 365.799988 
L 317.053726 365.799988 
L 317.053726 264.715361 
L 303.991532 264.715361 
z
" clip-path="url(#pacd5dd7cca)" style="fill: #1f77b4"/>
   </g>
   <g id="patch_14">
    <path d="M 317.053726 365.799988 
L 330.11592 365.799988 
L 330.11592 264.715361 
L 317.053726 264.715361 
z
" clip-path="url(#pacd5dd7cca)" style="fill: #2ca02c"/>
   </g>
   <g id="patch_15">
    <path d="M 330.11592 365.799988 
L 343.178113 365.799988 
L 343.178113 264.549785 
L 330.11592 264.549785 
z
" clip-path="url(#pacd5dd7cca)" style="fill: #d62728"/>
   </g>
   <g id="patch_16">
    <path d="M 343.178113 365.799988 
L 356.240307 365.799988 
L 356.240307 264.963727 
L 343.178113 264.963727 
z
" clip-path="url(#pacd5dd7cca)" style="fill: #ff7f0e"/>
   </g>
   <g id="patch_17">
    <path d="M 356.240307 365.799988 
L 369.302501 365.799988 
L 369.302501 264.384208 
L 356.240307 264.384208 
z
" clip-path="url(#pacd5dd7cca)" style="fill: #8c564b"/>
   </g>
   <g id="patch_18">
    <path d="M 412.843148 365.799988 
L 425.905342 365.799988 
L 425.905342 293.525722 
L 412.843148 293.525722 
z
" clip-path="url(#pacd5dd7cca)" style="fill: #1f77b4"/>
   </g>
   <g id="patch_19">
    <path d="M 425.905342 365.799988 
L 438.967536 365.799988 
L 438.967536 292.61505 
L 425.905342 292.61505 
z
" clip-path="url(#pacd5dd7cca)" style="fill: #2ca02c"/>
   </g>
   <g id="patch_20">
    <path d="M 438.967536 365.799988 
L 452.02973 365.799988 
L 452.02973 294.105241 
L 438.967536 294.105241 
z
" clip-path="url(#pacd5dd7cca)" style="fill: #d62728"/>
   </g>
   <g id="patch_21">
    <path d="M 452.02973 365.799988 
L 465.091924 365.799988 
L 465.091924 295.015913 
L 452.02973 295.015913 
z
" clip-path="url(#pacd5dd7cca)" style="fill: #ff7f0e"/>
   </g>
   <g id="patch_22">
    <path d="M 465.091924 365.799988 
L 478.154118 365.799988 
L 478.154118 293.939664 
L 465.091924 293.939664 
z
" clip-path="url(#pacd5dd7cca)" style="fill: #8c564b"/>
   </g>
   <g id="patch_23">
    <path d="M 521.694764 365.799988 
L 534.756958 365.799988 
L 534.756958 289.717456 
L 521.694764 289.717456 
z
" clip-path="url(#pacd5dd7cca)" style="fill: #1f77b4"/>
   </g>
   <g id="patch_24">
    <path d="M 534.756958 365.799988 
L 547.819152 365.799988 
L 547.819152 289.137937 
L 534.756958 289.137937 
z
" clip-path="url(#pacd5dd7cca)" style="fill: #2ca02c"/>
   </g>
   <g id="patch_25">
    <path d="M 547.819152 365.799988 
L 560.881346 365.799988 
L 560.881346 290.048609 
L 547.819152 290.048609 
z
" clip-path="url(#pacd5dd7cca)" style="fill: #d62728"/>
   </g>
   <g id="patch_26">
    <path d="M 560.881346 365.799988 
L 573.94354 365.799988 
L 573.94354 293.194568 
L 560.881346 293.194568 
z
" clip-path="url(#pacd5dd7cca)" style="fill: #ff7f0e"/>
   </g>
   <g id="patch_27">
    <path d="M 573.94354 365.799988 
L 587.005734 365.799988 
L 587.005734 293.774087 
L 573.94354 293.774087 
z
" clip-path="url(#pacd5dd7cca)" style="fill: #8c564b"/>
   </g>
   <g id="patch_28">
    <path d="M 630.546381 365.799988 
L 643.608574 365.799988 
L 643.608574 296.588892 
L 630.546381 296.588892 
z
" clip-path="url(#pacd5dd7cca)" style="fill: #1f77b4"/>
   </g>
   <g id="patch_29">
    <path d="M 643.608574 365.799988 
L 656.670768 365.799988 
L 656.670768 297.002834 
L 643.608574 297.002834 
z
" clip-path="url(#pacd5dd7cca)" style="fill: #2ca02c"/>
   </g>
   <g id="patch_30">
    <path d="M 656.670768 365.799988 
L 669.732962 365.799988 
L 669.732962 296.920046 
L 656.670768 296.920046 
z
" clip-path="url(#pacd5dd7cca)" style="fill: #d62728"/>
   </g>
   <g id="patch_31">
    <path d="M 669.732962 365.799988 
L 682.795156 365.799988 
L 682.795156 296.671681 
L 669.732962 296.671681 
z
" clip-path="url(#pacd5dd7cca)" style="fill: #ff7f0e"/>
   </g>
   <g id="patch_32">
    <path d="M 682.795156 365.799988 
L 695.85735 365.799988 
L 695.85735 297.002834 
L 682.795156 297.002834 
z
" clip-path="url(#pacd5dd7cca)" style="fill: #8c564b"/>
   </g>
   <g id="patch_33">
    <path d="M 739.397997 365.799988 
L 752.460191 365.799988 
L 752.460191 231.020486 
L 739.397997 231.020486 
z
" clip-path="url(#pacd5dd7cca)" style="fill: #1f77b4"/>
   </g>
   <g id="patch_34">
    <path d="M 752.460191 365.799988 
L 765.522385 365.799988 
L 765.522385 231.020486 
L 752.460191 231.020486 
z
" clip-path="url(#pacd5dd7cca)" style="fill: #2ca02c"/>
   </g>
   <g id="patch_35">
    <path d="M 765.522385 365.799988 
L 778.584579 365.799988 
L 778.584579 230.854909 
L 765.522385 230.854909 
z
" clip-path="url(#pacd5dd7cca)" style="fill: #d62728"/>
   </g>
   <g id="patch_36">
    <path d="M 778.584579 365.799988 
L 791.646773 365.799988 
L 791.646773 229.77866 
L 778.584579 229.77866 
z
" clip-path="url(#pacd5dd7cca)" style="fill: #ff7f0e"/>
   </g>
   <g id="patch_37">
    <path d="M 791.646773 365.799988 
L 804.708967 365.799988 
L 804.708967 231.020486 
L 791.646773 231.020486 
z
" clip-path="url(#pacd5dd7cca)" style="fill: #8c564b"/>
   </g>
   <g id="matplotlib.axis_1">
    <g id="xtick_1">
     <g id="line2d_1">
      <defs>
       <path id="m94a2c2d77e" d="M 0 0 
L 0 3.5 
" style="stroke: #000000; stroke-width: 0.8"/>
      </defs>
      <g>
       <use xlink:href="#m94a2c2d77e" x="125.474881" y="365.799988" style="stroke: #000000; stroke-width: 0.8"/>
      </g>
     </g>
     <g id="text_1">
      <!-- AlexNetTH_VIB -->
      <g transform="translate(87.875726 416.594668) rotate(-25) scale(0.12 -0.12)">
       <defs>
        <path id="Cmr10-41" d="M 206 0 
L 206 225 
Q 778 225 909 603 
L 2253 4513 
Q 2272 4581 2356 4581 
L 2438 4581 
Q 2522 4581 2541 4513 
L 3944 428 
Q 4003 294 4170 259 
Q 4338 225 4588 225 
L 4588 0 
L 2803 0 
L 2803 225 
Q 3334 225 3334 397 
L 3334 428 
L 2988 1428 
L 1434 1428 
L 1147 603 
Q 1141 581 1141 538 
Q 1141 378 1292 301 
Q 1444 225 1619 225 
L 1619 0 
L 206 0 
z
M 1509 1650 
L 2913 1650 
L 2209 3694 
L 1509 1650 
z
" transform="scale(0.015625)"/>
        <path id="Cmr10-6c" d="M 197 0 
L 197 225 
Q 416 225 556 259 
Q 697 294 697 428 
L 697 3788 
Q 697 3959 645 4036 
Q 594 4113 497 4130 
Q 400 4147 197 4147 
L 197 4372 
L 1147 4441 
L 1147 428 
Q 1147 294 1287 259 
Q 1428 225 1644 225 
L 1644 0 
L 197 0 
z
" transform="scale(0.015625)"/>
        <path id="Cmr10-65" d="M 1594 -72 
Q 1203 -72 876 133 
Q 550 338 364 680 
Q 178 1022 178 1403 
Q 178 1778 348 2115 
Q 519 2453 823 2661 
Q 1128 2869 1503 2869 
Q 1797 2869 2014 2770 
Q 2231 2672 2372 2497 
Q 2513 2322 2584 2084 
Q 2656 1847 2656 1563 
Q 2656 1478 2591 1478 
L 738 1478 
L 738 1409 
Q 738 878 952 497 
Q 1166 116 1650 116 
Q 1847 116 2014 203 
Q 2181 291 2304 447 
Q 2428 603 2472 781 
Q 2478 803 2495 820 
Q 2513 838 2534 838 
L 2591 838 
Q 2656 838 2656 756 
Q 2566 394 2266 161 
Q 1966 -72 1594 -72 
z
M 744 1638 
L 2203 1638 
Q 2203 1878 2136 2125 
Q 2069 2372 1912 2536 
Q 1756 2700 1503 2700 
Q 1141 2700 942 2361 
Q 744 2022 744 1638 
z
" transform="scale(0.015625)"/>
        <path id="Cmr10-78" d="M 78 0 
L 78 225 
Q 322 225 537 320 
Q 753 416 903 603 
L 1484 1344 
L 728 2328 
Q 616 2469 483 2501 
Q 350 2534 109 2534 
L 109 2759 
L 1441 2759 
L 1441 2534 
Q 1356 2534 1282 2496 
Q 1209 2459 1209 2388 
Q 1209 2363 1228 2328 
L 1741 1663 
L 2125 2156 
Q 2203 2250 2203 2344 
Q 2203 2422 2151 2478 
Q 2100 2534 2016 2534 
L 2016 2759 
L 3194 2759 
L 3194 2534 
Q 2947 2534 2730 2439 
Q 2513 2344 2363 2156 
L 1856 1509 
L 2675 428 
Q 2797 288 2928 256 
Q 3059 225 3303 225 
L 3303 0 
L 1972 0 
L 1972 225 
Q 2050 225 2122 262 
Q 2194 300 2194 372 
Q 2194 400 2175 428 
L 1600 1191 
L 1141 603 
Q 1069 522 1069 416 
Q 1069 338 1122 281 
Q 1175 225 1247 225 
L 1247 0 
L 78 0 
z
" transform="scale(0.015625)"/>
        <path id="Cmr10-4e" d="M 197 0 
L 197 225 
Q 856 225 856 603 
L 856 4109 
Q 647 4147 197 4147 
L 197 4372 
L 1422 4372 
Q 1453 4372 1466 4347 
L 3731 1013 
L 3731 3769 
Q 3731 4147 3072 4147 
L 3072 4372 
L 4594 4372 
L 4594 4147 
Q 3938 4147 3938 3769 
L 3938 56 
Q 3938 38 3913 19 
Q 3888 0 3872 0 
L 3794 0 
Q 3763 0 3750 25 
L 1063 3981 
L 1063 603 
Q 1063 225 1722 225 
L 1722 0 
L 197 0 
z
" transform="scale(0.015625)"/>
        <path id="Cmr10-74" d="M 653 769 
L 653 2534 
L 122 2534 
L 122 2700 
Q 541 2700 737 3090 
Q 934 3481 934 3938 
L 1119 3938 
L 1119 2759 
L 2022 2759 
L 2022 2534 
L 1119 2534 
L 1119 781 
Q 1119 516 1208 316 
Q 1297 116 1528 116 
Q 1747 116 1844 327 
Q 1941 538 1941 781 
L 1941 1159 
L 2125 1159 
L 2125 769 
Q 2125 569 2051 373 
Q 1978 178 1834 53 
Q 1691 -72 1484 -72 
Q 1100 -72 876 158 
Q 653 388 653 769 
z
" transform="scale(0.015625)"/>
        <path id="Cmr10-54" d="M 1081 0 
L 1081 225 
Q 1403 225 1706 261 
Q 2009 297 2009 428 
L 2009 3944 
Q 2009 4081 1932 4114 
Q 1856 4147 1684 4147 
L 1416 4147 
Q 888 4147 666 3916 
Q 550 3800 500 3545 
Q 450 3291 416 2906 
L 231 2906 
L 353 4372 
L 4263 4372 
L 4384 2906 
L 4197 2906 
Q 4159 3319 4114 3561 
Q 4069 3803 3950 3916 
Q 3725 4147 3200 4147 
L 2931 4147 
Q 2816 4147 2752 4137 
Q 2688 4128 2647 4083 
Q 2606 4038 2606 3944 
L 2606 428 
Q 2606 297 2909 261 
Q 3213 225 3531 225 
L 3531 0 
L 1081 0 
z
" transform="scale(0.015625)"/>
        <path id="Cmr10-48" d="M 197 0 
L 197 225 
Q 856 225 856 428 
L 856 3944 
Q 856 4147 197 4147 
L 197 4372 
L 2113 4372 
L 2113 4147 
Q 1453 4147 1453 3944 
L 1453 2388 
L 3341 2388 
L 3341 3944 
Q 3341 4147 2681 4147 
L 2681 4372 
L 4594 4372 
L 4594 4147 
Q 3938 4147 3938 3944 
L 3938 428 
Q 3938 225 4594 225 
L 4594 0 
L 2681 0 
L 2681 225 
Q 3341 225 3341 428 
L 3341 2163 
L 1453 2163 
L 1453 428 
Q 1453 225 2113 225 
L 2113 0 
L 197 0 
z
" transform="scale(0.015625)"/>
        <path id="Cmr10-5f" d="M 538 3928 
Q 538 4069 644 4175 
Q 750 4281 891 4281 
Q 978 4281 1062 4234 
Q 1147 4188 1194 4103 
Q 1241 4019 1241 3928 
Q 1241 3791 1137 3684 
Q 1034 3578 891 3578 
Q 750 3578 644 3684 
Q 538 3791 538 3928 
z
" transform="scale(0.015625)"/>
        <path id="Cmr10-56" d="M 2253 -72 
L 744 3944 
Q 688 4078 528 4112 
Q 369 4147 122 4147 
L 122 4372 
L 1881 4372 
L 1881 4147 
Q 1350 4147 1350 3981 
Q 1353 3972 1354 3964 
Q 1356 3956 1356 3944 
L 2584 678 
L 3744 3769 
Q 3756 3794 3756 3847 
Q 3756 4003 3612 4075 
Q 3469 4147 3291 4147 
L 3291 4372 
L 4672 4372 
L 4672 4147 
Q 4431 4147 4248 4058 
Q 4066 3969 3988 3769 
L 2541 -72 
Q 2522 -141 2438 -141 
L 2356 -141 
Q 2272 -141 2253 -72 
z
" transform="scale(0.015625)"/>
        <path id="Cmr10-49" d="M 166 0 
L 166 225 
Q 856 225 856 428 
L 856 3944 
Q 856 4147 166 4147 
L 166 4372 
L 2144 4372 
L 2144 4147 
Q 1453 4147 1453 3944 
L 1453 428 
Q 1453 225 2144 225 
L 2144 0 
L 166 0 
z
" transform="scale(0.015625)"/>
        <path id="Cmr10-42" d="M 219 0 
L 219 225 
Q 878 225 878 428 
L 878 3944 
Q 878 4147 219 4147 
L 219 4372 
L 2572 4372 
Q 2897 4372 3228 4245 
Q 3559 4119 3776 3870 
Q 3994 3622 3994 3284 
Q 3994 2894 3673 2630 
Q 3353 2366 2925 2284 
Q 3203 2284 3497 2131 
Q 3791 1978 3978 1722 
Q 4166 1466 4166 1178 
Q 4166 828 3958 559 
Q 3750 291 3419 145 
Q 3088 0 2753 0 
L 219 0 
z
M 1434 428 
Q 1434 291 1512 258 
Q 1591 225 1759 225 
L 2572 225 
Q 2822 225 3036 356 
Q 3250 488 3375 708 
Q 3500 928 3500 1178 
Q 3500 1422 3397 1655 
Q 3294 1888 3101 2038 
Q 2909 2188 2663 2188 
L 1434 2188 
L 1434 428 
z
M 1434 2356 
L 2394 2356 
Q 2588 2356 2758 2426 
Q 2928 2497 3064 2630 
Q 3200 2763 3273 2930 
Q 3347 3097 3347 3284 
Q 3347 3450 3292 3603 
Q 3238 3756 3131 3881 
Q 3025 4006 2881 4076 
Q 2738 4147 2572 4147 
L 1759 4147 
Q 1644 4147 1580 4137 
Q 1516 4128 1475 4083 
Q 1434 4038 1434 3944 
L 1434 2356 
z
" transform="scale(0.015625)"/>
       </defs>
       <use xlink:href="#Cmr10-41"/>
       <use xlink:href="#Cmr10-6c" transform="translate(75 0)"/>
       <use xlink:href="#Cmr10-65" transform="translate(102.685547 0)"/>
       <use xlink:href="#Cmr10-78" transform="translate(147.070312 0)"/>
       <use xlink:href="#Cmr10-4e" transform="translate(199.755859 0)"/>
       <use xlink:href="#Cmr10-65" transform="translate(274.755859 0)"/>
       <use xlink:href="#Cmr10-74" transform="translate(319.140625 0)"/>
       <use xlink:href="#Cmr10-54" transform="translate(357.958984 0)"/>
       <use xlink:href="#Cmr10-48" transform="translate(430.175781 0)"/>
       <use xlink:href="#Cmr10-5f" transform="translate(505.175781 0)"/>
       <use xlink:href="#Cmr10-56" transform="translate(532.861328 0)"/>
       <use xlink:href="#Cmr10-49" transform="translate(607.861328 0)"/>
       <use xlink:href="#Cmr10-42" transform="translate(643.945312 0)"/>
      </g>
     </g>
    </g>
    <g id="xtick_2">
     <g id="line2d_2">
      <g>
       <use xlink:href="#m94a2c2d77e" x="234.326497" y="365.799988" style="stroke: #000000; stroke-width: 0.8"/>
      </g>
     </g>
     <g id="text_2">
      <!-- AlexNetMCDO -->
      <g transform="translate(198.845554 414.619192) rotate(-25) scale(0.12 -0.12)">
       <defs>
        <path id="Cmr10-4d" d="M 225 0 
L 225 225 
Q 884 225 884 603 
L 884 3944 
Q 884 4147 225 4147 
L 225 4372 
L 1434 4372 
Q 1513 4372 1538 4300 
L 2931 678 
L 4325 4300 
Q 4350 4372 4428 4372 
L 5638 4372 
L 5638 4147 
Q 4978 4147 4978 3944 
L 4978 428 
Q 4978 225 5638 225 
L 5638 0 
L 3775 0 
L 3775 225 
Q 4434 225 4434 428 
L 4434 4153 
L 2859 72 
Q 2831 0 2753 0 
Q 2672 0 2644 72 
L 1088 4103 
L 1088 603 
Q 1088 225 1747 225 
L 1747 0 
L 225 0 
z
" transform="scale(0.015625)"/>
        <path id="Cmr10-43" d="M 1459 684 
Q 1678 406 2006 245 
Q 2334 84 2688 84 
Q 2984 84 3237 201 
Q 3491 319 3680 528 
Q 3869 738 3970 1003 
Q 4072 1269 4072 1563 
Q 4072 1613 4128 1613 
L 4206 1613 
Q 4256 1613 4256 1550 
Q 4256 1216 4128 905 
Q 4000 594 3765 358 
Q 3531 122 3226 -9 
Q 2922 -141 2591 -141 
Q 2131 -141 1720 45 
Q 1309 231 1004 554 
Q 700 878 529 1303 
Q 359 1728 359 2188 
Q 359 2647 529 3072 
Q 700 3497 1004 3822 
Q 1309 4147 1720 4330 
Q 2131 4513 2591 4513 
Q 2919 4513 3219 4370 
Q 3519 4228 3744 3969 
L 4116 4494 
Q 4153 4513 4159 4513 
L 4206 4513 
Q 4225 4513 4240 4497 
Q 4256 4481 4256 4459 
L 4256 2731 
Q 4256 2675 4206 2675 
L 4091 2675 
Q 4031 2675 4031 2731 
Q 4031 2916 3957 3144 
Q 3884 3372 3770 3576 
Q 3656 3781 3506 3938 
Q 3147 4288 2681 4288 
Q 2328 4288 2004 4128 
Q 1681 3969 1459 3688 
Q 1225 3388 1134 3005 
Q 1044 2622 1044 2188 
Q 1044 1753 1134 1368 
Q 1225 984 1459 684 
z
" transform="scale(0.015625)"/>
        <path id="Cmr10-44" d="M 213 0 
L 213 225 
Q 872 225 872 428 
L 872 3944 
Q 872 4147 213 4147 
L 213 4372 
L 2572 4372 
Q 3009 4372 3371 4183 
Q 3734 3994 3990 3678 
Q 4247 3363 4386 2963 
Q 4525 2563 4525 2144 
Q 4525 1738 4384 1355 
Q 4244 972 3980 664 
Q 3716 356 3355 178 
Q 2994 0 2572 0 
L 213 0 
z
M 1447 428 
Q 1447 291 1525 258 
Q 1603 225 1772 225 
L 2406 225 
Q 2734 225 3029 367 
Q 3325 509 3519 763 
Q 3722 1031 3790 1364 
Q 3859 1697 3859 2144 
Q 3859 2609 3790 2959 
Q 3722 3309 3519 3584 
Q 3328 3856 3034 4001 
Q 2741 4147 2406 4147 
L 1772 4147 
Q 1656 4147 1592 4137 
Q 1528 4128 1487 4083 
Q 1447 4038 1447 3944 
L 1447 428 
z
" transform="scale(0.015625)"/>
        <path id="Cmr10-4f" d="M 2491 -141 
Q 1881 -141 1395 182 
Q 909 506 634 1042 
Q 359 1578 359 2169 
Q 359 2606 517 3034 
Q 675 3463 958 3794 
Q 1241 4125 1637 4319 
Q 2034 4513 2491 4513 
Q 2944 4513 3342 4317 
Q 3741 4122 4025 3787 
Q 4309 3453 4462 3037 
Q 4616 2622 4616 2169 
Q 4616 1578 4341 1042 
Q 4066 506 3578 182 
Q 3091 -141 2491 -141 
z
M 1428 691 
Q 1616 397 1891 223 
Q 2166 50 2491 50 
Q 2700 50 2901 134 
Q 3103 219 3267 366 
Q 3431 513 3547 691 
Q 3928 1266 3928 2272 
Q 3928 3194 3547 3731 
Q 3359 4000 3079 4162 
Q 2800 4325 2491 4325 
Q 2178 4325 1897 4162 
Q 1616 4000 1428 3731 
Q 1278 3522 1195 3286 
Q 1113 3050 1078 2797 
Q 1044 2544 1044 2272 
Q 1044 1981 1076 1704 
Q 1109 1428 1198 1162 
Q 1288 897 1428 691 
z
" transform="scale(0.015625)"/>
       </defs>
       <use xlink:href="#Cmr10-41"/>
       <use xlink:href="#Cmr10-6c" transform="translate(75 0)"/>
       <use xlink:href="#Cmr10-65" transform="translate(102.685547 0)"/>
       <use xlink:href="#Cmr10-78" transform="translate(147.070312 0)"/>
       <use xlink:href="#Cmr10-4e" transform="translate(199.755859 0)"/>
       <use xlink:href="#Cmr10-65" transform="translate(274.755859 0)"/>
       <use xlink:href="#Cmr10-74" transform="translate(319.140625 0)"/>
       <use xlink:href="#Cmr10-4d" transform="translate(357.958984 0)"/>
       <use xlink:href="#Cmr10-43" transform="translate(449.560547 0)"/>
       <use xlink:href="#Cmr10-44" transform="translate(521.777344 0)"/>
       <use xlink:href="#Cmr10-4f" transform="translate(598.095703 0)"/>
      </g>
     </g>
    </g>
    <g id="xtick_3">
     <g id="line2d_3">
      <g>
       <use xlink:href="#m94a2c2d77e" x="343.178113" y="365.799988" style="stroke: #000000; stroke-width: 0.8"/>
      </g>
     </g>
     <g id="text_3">
      <!-- VGG -->
      <g transform="translate(331.838661 392.104468) rotate(-25) scale(0.12 -0.12)">
       <defs>
        <path id="Cmr10-47" d="M 1472 684 
Q 1703 403 2036 243 
Q 2369 84 2731 84 
Q 3088 84 3378 265 
Q 3669 447 3669 781 
L 3669 1319 
Q 3669 1522 2869 1522 
L 2869 1747 
L 4703 1747 
L 4703 1522 
Q 4500 1522 4381 1487 
Q 4263 1453 4263 1319 
L 4263 56 
Q 4263 34 4245 17 
Q 4228 0 4206 0 
Q 4147 0 4008 140 
Q 3869 281 3788 391 
Q 3631 122 3297 -9 
Q 2963 -141 2597 -141 
Q 1975 -141 1464 179 
Q 953 500 656 1036 
Q 359 1572 359 2188 
Q 359 2641 531 3069 
Q 703 3497 1011 3822 
Q 1319 4147 1728 4330 
Q 2138 4513 2597 4513 
Q 2928 4513 3223 4370 
Q 3519 4228 3750 3969 
L 4122 4494 
Q 4159 4513 4166 4513 
L 4213 4513 
Q 4231 4513 4247 4497 
Q 4263 4481 4263 4459 
L 4263 2731 
Q 4263 2675 4213 2675 
L 4097 2675 
Q 4038 2675 4038 2731 
Q 4038 2916 3964 3144 
Q 3891 3372 3777 3576 
Q 3663 3781 3513 3938 
Q 3153 4288 2688 4288 
Q 2331 4288 2006 4128 
Q 1681 3969 1459 3688 
Q 1225 3388 1134 3005 
Q 1044 2622 1044 2188 
Q 1044 1206 1472 684 
z
" transform="scale(0.015625)"/>
       </defs>
       <use xlink:href="#Cmr10-56"/>
       <use xlink:href="#Cmr10-47" transform="translate(75 0)"/>
       <use xlink:href="#Cmr10-47" transform="translate(153.417969 0)"/>
      </g>
     </g>
    </g>
    <g id="xtick_4">
     <g id="line2d_4">
      <g>
       <use xlink:href="#m94a2c2d77e" x="452.02973" y="365.799988" style="stroke: #000000; stroke-width: 0.8"/>
      </g>
     </g>
     <g id="text_4">
      <!-- LeNet -->
      <g transform="translate(438.882193 393.790715) rotate(-25) scale(0.12 -0.12)">
       <defs>
        <path id="Cmr10-4c" d="M 197 0 
L 197 225 
Q 856 225 856 428 
L 856 3944 
Q 856 4147 197 4147 
L 197 4372 
L 2272 4372 
L 2272 4147 
Q 1453 4147 1453 3944 
L 1453 428 
Q 1453 291 1531 258 
Q 1609 225 1778 225 
L 2272 225 
Q 2750 225 3009 400 
Q 3269 575 3376 876 
Q 3484 1178 3541 1678 
L 3725 1678 
L 3547 0 
L 197 0 
z
" transform="scale(0.015625)"/>
       </defs>
       <use xlink:href="#Cmr10-4c"/>
       <use xlink:href="#Cmr10-65" transform="translate(62.5 0)"/>
       <use xlink:href="#Cmr10-4e" transform="translate(106.884766 0)"/>
       <use xlink:href="#Cmr10-65" transform="translate(181.884766 0)"/>
       <use xlink:href="#Cmr10-74" transform="translate(226.269531 0)"/>
      </g>
     </g>
    </g>
    <g id="xtick_5">
     <g id="line2d_5">
      <g>
       <use xlink:href="#m94a2c2d77e" x="560.881346" y="365.799988" style="stroke: #000000; stroke-width: 0.8"/>
      </g>
     </g>
     <g id="text_5">
      <!-- AlexNetVIB -->
      <g transform="translate(532.793325 407.724439) rotate(-25) scale(0.12 -0.12)">
       <use xlink:href="#Cmr10-41"/>
       <use xlink:href="#Cmr10-6c" transform="translate(75 0)"/>
       <use xlink:href="#Cmr10-65" transform="translate(102.685547 0)"/>
       <use xlink:href="#Cmr10-78" transform="translate(147.070312 0)"/>
       <use xlink:href="#Cmr10-4e" transform="translate(199.755859 0)"/>
       <use xlink:href="#Cmr10-65" transform="translate(274.755859 0)"/>
       <use xlink:href="#Cmr10-74" transform="translate(319.140625 0)"/>
       <use xlink:href="#Cmr10-56" transform="translate(357.958984 0)"/>
       <use xlink:href="#Cmr10-49" transform="translate(432.958984 0)"/>
       <use xlink:href="#Cmr10-42" transform="translate(469.042969 0)"/>
      </g>
     </g>
    </g>
    <g id="xtick_6">
     <g id="line2d_6">
      <g>
       <use xlink:href="#m94a2c2d77e" x="669.732962" y="365.799988" style="stroke: #000000; stroke-width: 0.8"/>
      </g>
     </g>
     <g id="text_6">
      <!-- AlexNet -->
      <g transform="translate(651.535025 398.500796) rotate(-25) scale(0.12 -0.12)">
       <use xlink:href="#Cmr10-41"/>
       <use xlink:href="#Cmr10-6c" transform="translate(75 0)"/>
       <use xlink:href="#Cmr10-65" transform="translate(102.685547 0)"/>
       <use xlink:href="#Cmr10-78" transform="translate(147.070312 0)"/>
       <use xlink:href="#Cmr10-4e" transform="translate(199.755859 0)"/>
       <use xlink:href="#Cmr10-65" transform="translate(274.755859 0)"/>
       <use xlink:href="#Cmr10-74" transform="translate(319.140625 0)"/>
      </g>
     </g>
    </g>
    <g id="xtick_7">
     <g id="line2d_7">
      <g>
       <use xlink:href="#m94a2c2d77e" x="778.584579" y="365.799988" style="stroke: #000000; stroke-width: 0.8"/>
      </g>
     </g>
     <g id="text_7">
      <!-- ResNet -->
      <g transform="translate(762.691779 396.350989) rotate(-25) scale(0.12 -0.12)">
       <defs>
        <path id="Cmr10-52" d="M 213 0 
L 213 225 
Q 872 225 872 428 
L 872 3944 
Q 872 4147 213 4147 
L 213 4372 
L 2222 4372 
Q 2581 4372 2976 4242 
Q 3372 4113 3637 3847 
Q 3903 3581 3903 3213 
Q 3903 2944 3742 2733 
Q 3581 2522 3329 2380 
Q 3078 2238 2816 2175 
Q 3103 2075 3318 1856 
Q 3534 1638 3578 1356 
L 3669 788 
Q 3731 403 3800 214 
Q 3869 25 4103 25 
Q 4303 25 4401 211 
Q 4500 397 4500 616 
Q 4500 638 4520 655 
Q 4541 672 4563 672 
L 4622 672 
Q 4684 672 4684 588 
Q 4684 413 4615 245 
Q 4547 78 4417 -31 
Q 4288 -141 4109 -141 
Q 3647 -141 3314 89 
Q 2981 319 2981 763 
L 2981 1331 
Q 2981 1650 2759 1878 
Q 2538 2106 2216 2106 
L 1447 2106 
L 1447 428 
Q 1447 225 2106 225 
L 2106 0 
L 213 0 
z
M 1447 2272 
L 2131 2272 
Q 2663 2272 2941 2486 
Q 3219 2700 3219 3213 
Q 3219 3722 2944 3934 
Q 2669 4147 2131 4147 
L 1772 4147 
Q 1656 4147 1592 4137 
Q 1528 4128 1487 4083 
Q 1447 4038 1447 3944 
L 1447 2272 
z
" transform="scale(0.015625)"/>
        <path id="Cmr10-73" d="M 213 -19 
L 213 1025 
Q 213 1075 269 1075 
L 347 1075 
Q 384 1075 397 1025 
Q 575 97 1259 97 
Q 1563 97 1767 234 
Q 1972 372 1972 659 
Q 1972 866 1812 1011 
Q 1653 1156 1434 1209 
L 1006 1294 
Q 791 1341 614 1437 
Q 438 1534 325 1695 
Q 213 1856 213 2069 
Q 213 2350 361 2529 
Q 509 2709 746 2789 
Q 984 2869 1259 2869 
Q 1588 2869 1831 2694 
L 2016 2853 
Q 2016 2869 2047 2869 
L 2094 2869 
Q 2113 2869 2128 2851 
Q 2144 2834 2144 2816 
L 2144 1978 
Q 2144 1919 2094 1919 
L 2016 1919 
Q 1959 1919 1959 1978 
Q 1959 2313 1773 2516 
Q 1588 2719 1253 2719 
Q 966 2719 755 2612 
Q 544 2506 544 2247 
Q 544 2069 695 1955 
Q 847 1841 1050 1791 
L 1484 1709 
Q 1703 1659 1892 1540 
Q 2081 1422 2192 1240 
Q 2303 1059 2303 831 
Q 2303 600 2223 429 
Q 2144 259 2001 146 
Q 1859 34 1665 -19 
Q 1472 -72 1259 -72 
Q 859 -72 575 197 
L 341 -56 
Q 341 -72 306 -72 
L 269 -72 
Q 213 -72 213 -19 
z
" transform="scale(0.015625)"/>
       </defs>
       <use xlink:href="#Cmr10-52"/>
       <use xlink:href="#Cmr10-65" transform="translate(73.583984 0)"/>
       <use xlink:href="#Cmr10-73" transform="translate(117.96875 0)"/>
       <use xlink:href="#Cmr10-4e" transform="translate(157.373047 0)"/>
       <use xlink:href="#Cmr10-65" transform="translate(232.373047 0)"/>
       <use xlink:href="#Cmr10-74" transform="translate(276.757812 0)"/>
      </g>
     </g>
    </g>
   </g>
   <g id="matplotlib.axis_2">
    <g id="ytick_1">
     <g id="line2d_8">
      <path d="M 50.367266 365.799988 
L 840.63 365.799988 
" clip-path="url(#pacd5dd7cca)" style="fill: none; stroke-dasharray: 2.59,1.12; stroke-dashoffset: 0; stroke: #b0b0b0; stroke-opacity: 0.7; stroke-width: 0.7"/>
     </g>
     <g id="line2d_9">
      <defs>
       <path id="m070a656f04" d="M 0 0 
L -3.5 0 
" style="stroke: #000000; stroke-width: 0.8"/>
      </defs>
      <g>
       <use xlink:href="#m070a656f04" x="50.367266" y="365.799988" style="stroke: #000000; stroke-width: 0.8"/>
      </g>
     </g>
     <g id="text_8">
      <!-- $\mathdefault{0}$ -->
      <g transform="translate(37.367266 369.963426) scale(0.12 -0.12)">
       <defs>
        <path id="Cmr10-30" d="M 1600 -141 
Q 816 -141 533 504 
Q 250 1150 250 2041 
Q 250 2597 351 3087 
Q 453 3578 754 3920 
Q 1056 4263 1600 4263 
Q 2022 4263 2290 4056 
Q 2559 3850 2700 3523 
Q 2841 3197 2892 2823 
Q 2944 2450 2944 2041 
Q 2944 1491 2842 1011 
Q 2741 531 2444 195 
Q 2147 -141 1600 -141 
z
M 1600 25 
Q 1956 25 2131 390 
Q 2306 756 2347 1200 
Q 2388 1644 2388 2144 
Q 2388 2625 2347 3031 
Q 2306 3438 2132 3767 
Q 1959 4097 1600 4097 
Q 1238 4097 1063 3765 
Q 888 3434 847 3029 
Q 806 2625 806 2144 
Q 806 1788 823 1472 
Q 841 1156 916 820 
Q 991 484 1158 254 
Q 1325 25 1600 25 
z
" transform="scale(0.015625)"/>
       </defs>
       <use xlink:href="#Cmr10-30" transform="translate(0 0.390625)"/>
      </g>
     </g>
    </g>
    <g id="ytick_2">
     <g id="line2d_10">
      <path d="M 50.367266 324.405792 
L 840.63 324.405792 
" clip-path="url(#pacd5dd7cca)" style="fill: none; stroke-dasharray: 2.59,1.12; stroke-dashoffset: 0; stroke: #b0b0b0; stroke-opacity: 0.7; stroke-width: 0.7"/>
     </g>
     <g id="line2d_11">
      <g>
       <use xlink:href="#m070a656f04" x="50.367266" y="324.405792" style="stroke: #000000; stroke-width: 0.8"/>
      </g>
     </g>
     <g id="text_9">
      <!-- $\mathdefault{5}$ -->
      <g transform="translate(37.367266 328.56923) scale(0.12 -0.12)">
       <defs>
        <path id="Cmr10-35" d="M 556 728 
Q 622 541 758 387 
Q 894 234 1080 148 
Q 1266 63 1466 63 
Q 1928 63 2103 422 
Q 2278 781 2278 1294 
Q 2278 1516 2270 1667 
Q 2263 1819 2228 1959 
Q 2169 2184 2020 2353 
Q 1872 2522 1656 2522 
Q 1441 2522 1286 2456 
Q 1131 2391 1034 2303 
Q 938 2216 863 2119 
Q 788 2022 769 2016 
L 697 2016 
Q 681 2016 657 2036 
Q 634 2056 634 2075 
L 634 4213 
Q 634 4228 654 4245 
Q 675 4263 697 4263 
L 716 4263 
Q 1147 4056 1631 4056 
Q 2106 4056 2547 4263 
L 2566 4263 
Q 2588 4263 2606 4247 
Q 2625 4231 2625 4213 
L 2625 4153 
Q 2625 4122 2613 4122 
Q 2394 3831 2064 3668 
Q 1734 3506 1381 3506 
Q 1125 3506 856 3578 
L 856 2369 
Q 1069 2541 1236 2614 
Q 1403 2688 1663 2688 
Q 2016 2688 2295 2484 
Q 2575 2281 2725 1954 
Q 2875 1628 2875 1288 
Q 2875 903 2686 575 
Q 2497 247 2172 53 
Q 1847 -141 1466 -141 
Q 1150 -141 886 21 
Q 622 184 470 459 
Q 319 734 319 1044 
Q 319 1188 412 1278 
Q 506 1369 647 1369 
Q 788 1369 883 1276 
Q 978 1184 978 1044 
Q 978 906 883 811 
Q 788 716 647 716 
Q 625 716 597 720 
Q 569 725 556 728 
z
" transform="scale(0.015625)"/>
       </defs>
       <use xlink:href="#Cmr10-35" transform="translate(0 0.390625)"/>
      </g>
     </g>
    </g>
    <g id="ytick_3">
     <g id="line2d_12">
      <path d="M 50.367266 283.011596 
L 840.63 283.011596 
" clip-path="url(#pacd5dd7cca)" style="fill: none; stroke-dasharray: 2.59,1.12; stroke-dashoffset: 0; stroke: #b0b0b0; stroke-opacity: 0.7; stroke-width: 0.7"/>
     </g>
     <g id="line2d_13">
      <g>
       <use xlink:href="#m070a656f04" x="50.367266" y="283.011596" style="stroke: #000000; stroke-width: 0.8"/>
      </g>
     </g>
     <g id="text_10">
      <!-- $\mathdefault{10}$ -->
      <g transform="translate(31.367266 287.175034) scale(0.12 -0.12)">
       <defs>
        <path id="Cmr10-31" d="M 594 0 
L 594 225 
Q 1394 225 1394 428 
L 1394 3788 
Q 1063 3628 556 3628 
L 556 3853 
Q 1341 3853 1741 4263 
L 1831 4263 
Q 1853 4263 1873 4245 
Q 1894 4228 1894 4206 
L 1894 428 
Q 1894 225 2694 225 
L 2694 0 
L 594 0 
z
" transform="scale(0.015625)"/>
       </defs>
       <use xlink:href="#Cmr10-31" transform="translate(0 0.390625)"/>
       <use xlink:href="#Cmr10-30" transform="translate(50 0.390625)"/>
      </g>
     </g>
    </g>
    <g id="ytick_4">
     <g id="line2d_14">
      <path d="M 50.367266 241.6174 
L 840.63 241.6174 
" clip-path="url(#pacd5dd7cca)" style="fill: none; stroke-dasharray: 2.59,1.12; stroke-dashoffset: 0; stroke: #b0b0b0; stroke-opacity: 0.7; stroke-width: 0.7"/>
     </g>
     <g id="line2d_15">
      <g>
       <use xlink:href="#m070a656f04" x="50.367266" y="241.6174" style="stroke: #000000; stroke-width: 0.8"/>
      </g>
     </g>
     <g id="text_11">
      <!-- $\mathdefault{15}$ -->
      <g transform="translate(31.367266 245.780837) scale(0.12 -0.12)">
       <use xlink:href="#Cmr10-31" transform="translate(0 0.390625)"/>
       <use xlink:href="#Cmr10-35" transform="translate(50 0.390625)"/>
      </g>
     </g>
    </g>
    <g id="ytick_5">
     <g id="line2d_16">
      <path d="M 50.367266 200.223204 
L 840.63 200.223204 
" clip-path="url(#pacd5dd7cca)" style="fill: none; stroke-dasharray: 2.59,1.12; stroke-dashoffset: 0; stroke: #b0b0b0; stroke-opacity: 0.7; stroke-width: 0.7"/>
     </g>
     <g id="line2d_17">
      <g>
       <use xlink:href="#m070a656f04" x="50.367266" y="200.223204" style="stroke: #000000; stroke-width: 0.8"/>
      </g>
     </g>
     <g id="text_12">
      <!-- $\mathdefault{20}$ -->
      <g transform="translate(31.367266 204.386641) scale(0.12 -0.12)">
       <defs>
        <path id="Cmr10-32" d="M 319 0 
L 319 172 
Q 319 188 331 206 
L 1325 1306 
Q 1550 1550 1690 1715 
Q 1831 1881 1968 2097 
Q 2106 2313 2186 2536 
Q 2266 2759 2266 3009 
Q 2266 3272 2169 3511 
Q 2072 3750 1880 3894 
Q 1688 4038 1416 4038 
Q 1138 4038 916 3870 
Q 694 3703 603 3438 
Q 628 3444 672 3444 
Q 816 3444 917 3347 
Q 1019 3250 1019 3097 
Q 1019 2950 917 2848 
Q 816 2747 672 2747 
Q 522 2747 420 2851 
Q 319 2956 319 3097 
Q 319 3338 409 3548 
Q 500 3759 670 3923 
Q 841 4088 1055 4175 
Q 1269 4263 1509 4263 
Q 1875 4263 2190 4108 
Q 2506 3953 2690 3670 
Q 2875 3388 2875 3009 
Q 2875 2731 2753 2481 
Q 2631 2231 2440 2026 
Q 2250 1822 1953 1562 
Q 1656 1303 1563 1216 
L 838 519 
L 1453 519 
Q 1906 519 2211 526 
Q 2516 534 2534 550 
Q 2609 631 2688 1141 
L 2875 1141 
L 2694 0 
L 319 0 
z
" transform="scale(0.015625)"/>
       </defs>
       <use xlink:href="#Cmr10-32" transform="translate(0 0.390625)"/>
       <use xlink:href="#Cmr10-30" transform="translate(50 0.390625)"/>
      </g>
     </g>
    </g>
    <g id="ytick_6">
     <g id="line2d_18">
      <path d="M 50.367266 158.829008 
L 840.63 158.829008 
" clip-path="url(#pacd5dd7cca)" style="fill: none; stroke-dasharray: 2.59,1.12; stroke-dashoffset: 0; stroke: #b0b0b0; stroke-opacity: 0.7; stroke-width: 0.7"/>
     </g>
     <g id="line2d_19">
      <g>
       <use xlink:href="#m070a656f04" x="50.367266" y="158.829008" style="stroke: #000000; stroke-width: 0.8"/>
      </g>
     </g>
     <g id="text_13">
      <!-- $\mathdefault{25}$ -->
      <g transform="translate(31.367266 162.992445) scale(0.12 -0.12)">
       <use xlink:href="#Cmr10-32" transform="translate(0 0.390625)"/>
       <use xlink:href="#Cmr10-35" transform="translate(50 0.390625)"/>
      </g>
     </g>
    </g>
    <g id="ytick_7">
     <g id="line2d_20">
      <path d="M 50.367266 117.434812 
L 840.63 117.434812 
" clip-path="url(#pacd5dd7cca)" style="fill: none; stroke-dasharray: 2.59,1.12; stroke-dashoffset: 0; stroke: #b0b0b0; stroke-opacity: 0.7; stroke-width: 0.7"/>
     </g>
     <g id="line2d_21">
      <g>
       <use xlink:href="#m070a656f04" x="50.367266" y="117.434812" style="stroke: #000000; stroke-width: 0.8"/>
      </g>
     </g>
     <g id="text_14">
      <!-- $\mathdefault{30}$ -->
      <g transform="translate(31.367266 121.598249) scale(0.12 -0.12)">
       <defs>
        <path id="Cmr10-33" d="M 609 494 
Q 759 275 1012 169 
Q 1266 63 1556 63 
Q 1928 63 2084 380 
Q 2241 697 2241 1100 
Q 2241 1281 2208 1462 
Q 2175 1644 2097 1800 
Q 2019 1956 1883 2050 
Q 1747 2144 1550 2144 
L 1125 2144 
Q 1069 2144 1069 2203 
L 1069 2259 
Q 1069 2309 1125 2309 
L 1478 2338 
Q 1703 2338 1851 2506 
Q 2000 2675 2069 2917 
Q 2138 3159 2138 3378 
Q 2138 3684 1994 3881 
Q 1850 4078 1556 4078 
Q 1313 4078 1091 3986 
Q 869 3894 738 3706 
Q 750 3709 759 3711 
Q 769 3713 781 3713 
Q 925 3713 1022 3613 
Q 1119 3513 1119 3372 
Q 1119 3234 1022 3134 
Q 925 3034 781 3034 
Q 641 3034 541 3134 
Q 441 3234 441 3372 
Q 441 3647 606 3850 
Q 772 4053 1033 4158 
Q 1294 4263 1556 4263 
Q 1750 4263 1965 4205 
Q 2181 4147 2356 4039 
Q 2531 3931 2642 3762 
Q 2753 3594 2753 3378 
Q 2753 3109 2633 2881 
Q 2513 2653 2303 2487 
Q 2094 2322 1844 2241 
Q 2122 2188 2372 2031 
Q 2622 1875 2773 1631 
Q 2925 1388 2925 1106 
Q 2925 753 2731 467 
Q 2538 181 2222 20 
Q 1906 -141 1556 -141 
Q 1256 -141 954 -26 
Q 653 88 461 316 
Q 269 544 269 863 
Q 269 1022 375 1128 
Q 481 1234 641 1234 
Q 744 1234 830 1186 
Q 916 1138 964 1050 
Q 1013 963 1013 863 
Q 1013 706 903 600 
Q 794 494 641 494 
L 609 494 
z
" transform="scale(0.015625)"/>
       </defs>
       <use xlink:href="#Cmr10-33" transform="translate(0 0.390625)"/>
       <use xlink:href="#Cmr10-30" transform="translate(50 0.390625)"/>
      </g>
     </g>
    </g>
    <g id="ytick_8">
     <g id="line2d_22">
      <path d="M 50.367266 76.040615 
L 840.63 76.040615 
" clip-path="url(#pacd5dd7cca)" style="fill: none; stroke-dasharray: 2.59,1.12; stroke-dashoffset: 0; stroke: #b0b0b0; stroke-opacity: 0.7; stroke-width: 0.7"/>
     </g>
     <g id="line2d_23">
      <g>
       <use xlink:href="#m070a656f04" x="50.367266" y="76.040615" style="stroke: #000000; stroke-width: 0.8"/>
      </g>
     </g>
     <g id="text_15">
      <!-- $\mathdefault{35}$ -->
      <g transform="translate(31.367266 80.204053) scale(0.12 -0.12)">
       <use xlink:href="#Cmr10-33" transform="translate(0 0.390625)"/>
       <use xlink:href="#Cmr10-35" transform="translate(50 0.390625)"/>
      </g>
     </g>
    </g>
    <g id="ytick_9">
     <g id="line2d_24">
      <path d="M 50.367266 34.646419 
L 840.63 34.646419 
" clip-path="url(#pacd5dd7cca)" style="fill: none; stroke-dasharray: 2.59,1.12; stroke-dashoffset: 0; stroke: #b0b0b0; stroke-opacity: 0.7; stroke-width: 0.7"/>
     </g>
     <g id="line2d_25">
      <g>
       <use xlink:href="#m070a656f04" x="50.367266" y="34.646419" style="stroke: #000000; stroke-width: 0.8"/>
      </g>
     </g>
     <g id="text_16">
      <!-- $\mathdefault{40}$ -->
      <g transform="translate(31.367266 38.809857) scale(0.12 -0.12)">
       <defs>
        <path id="Cmr10-34" d="M 178 1056 
L 178 1281 
L 2156 4231 
Q 2178 4263 2222 4263 
L 2316 4263 
Q 2388 4263 2388 4191 
L 2388 1281 
L 3016 1281 
L 3016 1056 
L 2388 1056 
L 2388 428 
Q 2388 297 2575 261 
Q 2763 225 3009 225 
L 3009 0 
L 1247 0 
L 1247 225 
Q 1494 225 1681 261 
Q 1869 297 1869 428 
L 1869 1056 
L 178 1056 
z
M 391 1281 
L 1906 1281 
L 1906 3547 
L 391 1281 
z
" transform="scale(0.015625)"/>
       </defs>
       <use xlink:href="#Cmr10-34" transform="translate(0 0.390625)"/>
       <use xlink:href="#Cmr10-30" transform="translate(50 0.390625)"/>
      </g>
     </g>
    </g>
    <g id="text_17">
     <!-- Total Query Time (min) -->
     <g transform="translate(24.367266 254.163119) rotate(-90) scale(0.12 -0.12)">
      <defs>
       <path id="Cmr10-6f" d="M 1600 -72 
Q 1216 -72 887 123 
Q 559 319 368 647 
Q 178 975 178 1363 
Q 178 1656 283 1928 
Q 388 2200 583 2414 
Q 778 2628 1037 2748 
Q 1297 2869 1600 2869 
Q 1994 2869 2317 2661 
Q 2641 2453 2828 2104 
Q 3016 1756 3016 1363 
Q 3016 978 2825 648 
Q 2634 319 2307 123 
Q 1981 -72 1600 -72 
z
M 1600 116 
Q 2113 116 2284 487 
Q 2456 859 2456 1434 
Q 2456 1756 2422 1967 
Q 2388 2178 2272 2350 
Q 2200 2456 2089 2536 
Q 1978 2616 1854 2658 
Q 1731 2700 1600 2700 
Q 1400 2700 1220 2609 
Q 1041 2519 922 2350 
Q 803 2169 770 1951 
Q 738 1734 738 1434 
Q 738 1075 800 789 
Q 863 503 1052 309 
Q 1241 116 1600 116 
z
" transform="scale(0.015625)"/>
       <path id="Cmr10-61" d="M 256 628 
Q 256 1009 556 1248 
Q 856 1488 1276 1586 
Q 1697 1684 2075 1684 
L 2075 1947 
Q 2075 2131 1994 2304 
Q 1913 2478 1759 2589 
Q 1606 2700 1422 2700 
Q 997 2700 775 2509 
Q 897 2509 976 2417 
Q 1056 2325 1056 2203 
Q 1056 2075 965 1984 
Q 875 1894 750 1894 
Q 622 1894 531 1984 
Q 441 2075 441 2203 
Q 441 2541 747 2705 
Q 1053 2869 1422 2869 
Q 1681 2869 1943 2758 
Q 2206 2647 2373 2440 
Q 2541 2234 2541 1959 
L 2541 519 
Q 2541 394 2594 289 
Q 2647 184 2759 184 
Q 2866 184 2917 290 
Q 2969 397 2969 519 
L 2969 928 
L 3156 928 
L 3156 519 
Q 3156 375 3081 245 
Q 3006 116 2879 39 
Q 2753 -38 2606 -38 
Q 2419 -38 2283 107 
Q 2147 253 2131 453 
Q 2013 213 1781 70 
Q 1550 -72 1288 -72 
Q 1044 -72 808 0 
Q 572 72 414 226 
Q 256 381 256 628 
z
M 775 628 
Q 775 403 940 250 
Q 1106 97 1331 97 
Q 1538 97 1706 200 
Q 1875 303 1975 481 
Q 2075 659 2075 856 
L 2075 1522 
Q 1784 1522 1479 1426 
Q 1175 1331 975 1128 
Q 775 925 775 628 
z
" transform="scale(0.015625)"/>
       <path id="Cmr10-20" transform="scale(0.015625)"/>
       <path id="Cmr10-51" d="M 2491 -141 
Q 1881 -141 1395 182 
Q 909 506 634 1042 
Q 359 1578 359 2169 
Q 359 2606 517 3034 
Q 675 3463 958 3794 
Q 1241 4125 1637 4319 
Q 2034 4513 2491 4513 
Q 2944 4513 3342 4317 
Q 3741 4122 4025 3787 
Q 4309 3453 4462 3037 
Q 4616 2622 4616 2169 
Q 4616 1728 4461 1309 
Q 4306 891 4011 559 
Q 3716 228 3322 44 
Q 3444 -241 3572 -398 
Q 3700 -556 3928 -556 
Q 4169 -556 4341 -390 
Q 4513 -225 4513 13 
Q 4513 34 4536 53 
Q 4559 72 4581 72 
Q 4653 72 4653 -13 
Q 4653 -472 4473 -856 
Q 4294 -1241 3884 -1241 
Q 3659 -1241 3512 -1130 
Q 3366 -1019 3289 -848 
Q 3213 -678 3169 -453 
Q 3125 -228 3091 -44 
Q 2809 -141 2491 -141 
z
M 2491 44 
Q 2778 44 3047 191 
Q 2988 466 2864 630 
Q 2741 794 2491 794 
Q 2338 794 2231 680 
Q 2125 566 2125 416 
Q 2125 253 2226 148 
Q 2328 44 2491 44 
z
M 1959 416 
Q 1959 556 2028 681 
Q 2097 806 2220 882 
Q 2344 959 2491 959 
Q 2769 959 2931 779 
Q 3094 600 3219 294 
Q 3431 453 3575 670 
Q 3719 888 3798 1127 
Q 3878 1366 3914 1633 
Q 3950 1900 3950 2169 
Q 3950 2613 3861 3003 
Q 3772 3394 3559 3706 
Q 3375 3984 3090 4154 
Q 2806 4325 2491 4325 
Q 2169 4325 1886 4158 
Q 1603 3991 1416 3706 
Q 1197 3388 1111 2997 
Q 1025 2606 1025 2169 
Q 1025 1488 1256 930 
Q 1488 372 2028 141 
Q 1959 272 1959 416 
z
" transform="scale(0.015625)"/>
       <path id="Cmr10-75" d="M 691 763 
L 691 2175 
Q 691 2347 639 2423 
Q 588 2500 491 2517 
Q 394 2534 191 2534 
L 191 2759 
L 1159 2828 
L 1159 763 
Q 1159 513 1195 373 
Q 1231 234 1348 165 
Q 1466 97 1722 97 
Q 2066 97 2269 384 
Q 2472 672 2472 1038 
L 2472 2175 
Q 2472 2347 2419 2423 
Q 2366 2500 2270 2517 
Q 2175 2534 1972 2534 
L 1972 2759 
L 2938 2828 
L 2938 581 
Q 2938 413 2989 336 
Q 3041 259 3137 242 
Q 3234 225 3438 225 
L 3438 0 
L 2491 -72 
L 2491 469 
Q 2372 228 2159 78 
Q 1947 -72 1691 -72 
Q 1231 -72 961 123 
Q 691 319 691 763 
z
" transform="scale(0.015625)"/>
       <path id="Cmr10-72" d="M 166 0 
L 166 225 
Q 384 225 525 259 
Q 666 294 666 428 
L 666 2175 
Q 666 2347 614 2423 
Q 563 2500 466 2517 
Q 369 2534 166 2534 
L 166 2759 
L 1081 2828 
L 1081 2203 
Q 1184 2481 1375 2654 
Q 1566 2828 1838 2828 
Q 2028 2828 2178 2715 
Q 2328 2603 2328 2419 
Q 2328 2303 2245 2217 
Q 2163 2131 2041 2131 
Q 1922 2131 1837 2215 
Q 1753 2300 1753 2419 
Q 1753 2591 1875 2663 
L 1838 2663 
Q 1578 2663 1414 2475 
Q 1250 2288 1181 2009 
Q 1113 1731 1113 1478 
L 1113 428 
Q 1113 225 1734 225 
L 1734 0 
L 166 0 
z
" transform="scale(0.015625)"/>
       <path id="Cmr10-79" d="M 441 -1050 
Q 563 -1147 709 -1147 
Q 1113 -1147 1369 -538 
L 1588 0 
L 628 2350 
Q 569 2469 447 2501 
Q 325 2534 122 2534 
L 122 2759 
L 1466 2759 
L 1466 2534 
Q 1113 2534 1113 2381 
Q 1113 2356 1119 2344 
L 1831 594 
L 2472 2169 
Q 2491 2219 2491 2278 
Q 2491 2356 2448 2414 
Q 2406 2472 2339 2503 
Q 2272 2534 2188 2534 
L 2188 2759 
L 3250 2759 
L 3250 2534 
Q 3053 2534 2904 2443 
Q 2756 2353 2675 2175 
L 1569 -538 
Q 1481 -744 1364 -917 
Q 1247 -1091 1078 -1202 
Q 909 -1313 709 -1313 
Q 475 -1313 298 -1158 
Q 122 -1003 122 -775 
Q 122 -656 203 -575 
Q 284 -494 403 -494 
Q 484 -494 548 -530 
Q 613 -566 648 -628 
Q 684 -691 684 -775 
Q 684 -878 615 -959 
Q 547 -1041 441 -1050 
z
" transform="scale(0.015625)"/>
       <path id="Cmr10-69" d="M 197 0 
L 197 225 
Q 416 225 556 259 
Q 697 294 697 428 
L 697 2175 
Q 697 2422 601 2478 
Q 506 2534 225 2534 
L 225 2759 
L 1147 2828 
L 1147 428 
Q 1147 294 1269 259 
Q 1391 225 1594 225 
L 1594 0 
L 197 0 
z
M 469 3928 
Q 469 4069 575 4175 
Q 681 4281 819 4281 
Q 909 4281 993 4234 
Q 1078 4188 1125 4103 
Q 1172 4019 1172 3928 
Q 1172 3791 1065 3684 
Q 959 3578 819 3578 
Q 681 3578 575 3684 
Q 469 3791 469 3928 
z
" transform="scale(0.015625)"/>
       <path id="Cmr10-6d" d="M 191 0 
L 191 225 
Q 409 225 550 259 
Q 691 294 691 428 
L 691 2175 
Q 691 2347 639 2423 
Q 588 2500 491 2517 
Q 394 2534 191 2534 
L 191 2759 
L 1119 2828 
L 1119 2203 
Q 1247 2478 1498 2653 
Q 1750 2828 2047 2828 
Q 2784 2828 2913 2228 
Q 3041 2497 3287 2662 
Q 3534 2828 3828 2828 
Q 4119 2828 4317 2734 
Q 4516 2641 4616 2448 
Q 4716 2256 4716 1966 
L 4716 428 
Q 4716 294 4858 259 
Q 5000 225 5216 225 
L 5216 0 
L 3750 0 
L 3750 225 
Q 3969 225 4109 259 
Q 4250 294 4250 428 
L 4250 1947 
Q 4250 2269 4159 2466 
Q 4069 2663 3788 2663 
Q 3419 2663 3178 2366 
Q 2938 2069 2938 1691 
L 2938 428 
Q 2938 294 3078 259 
Q 3219 225 3438 225 
L 3438 0 
L 1972 0 
L 1972 225 
Q 2191 225 2331 259 
Q 2472 294 2472 428 
L 2472 1947 
Q 2472 2259 2381 2461 
Q 2291 2663 2009 2663 
Q 1638 2663 1398 2366 
Q 1159 2069 1159 1691 
L 1159 428 
Q 1159 294 1300 259 
Q 1441 225 1656 225 
L 1656 0 
L 191 0 
z
" transform="scale(0.015625)"/>
       <path id="Cmr10-28" d="M 1984 -1588 
Q 1628 -1306 1370 -942 
Q 1113 -578 948 -165 
Q 784 247 703 697 
Q 622 1147 622 1600 
Q 622 2059 703 2509 
Q 784 2959 951 3375 
Q 1119 3791 1378 4153 
Q 1638 4516 1984 4788 
Q 1984 4800 2016 4800 
L 2075 4800 
Q 2094 4800 2109 4783 
Q 2125 4766 2125 4744 
Q 2125 4716 2113 4703 
Q 1800 4397 1592 4047 
Q 1384 3697 1257 3301 
Q 1131 2906 1075 2482 
Q 1019 2059 1019 1600 
Q 1019 -434 2106 -1491 
Q 2125 -1509 2125 -1544 
Q 2125 -1559 2108 -1579 
Q 2091 -1600 2075 -1600 
L 2016 -1600 
Q 1984 -1600 1984 -1588 
z
" transform="scale(0.015625)"/>
       <path id="Cmr10-6e" d="M 191 0 
L 191 225 
Q 409 225 550 259 
Q 691 294 691 428 
L 691 2175 
Q 691 2347 639 2423 
Q 588 2500 491 2517 
Q 394 2534 191 2534 
L 191 2759 
L 1119 2828 
L 1119 2203 
Q 1247 2478 1498 2653 
Q 1750 2828 2047 2828 
Q 2491 2828 2714 2615 
Q 2938 2403 2938 1966 
L 2938 428 
Q 2938 294 3078 259 
Q 3219 225 3438 225 
L 3438 0 
L 1972 0 
L 1972 225 
Q 2191 225 2331 259 
Q 2472 294 2472 428 
L 2472 1947 
Q 2472 2259 2381 2461 
Q 2291 2663 2009 2663 
Q 1638 2663 1398 2366 
Q 1159 2069 1159 1691 
L 1159 428 
Q 1159 294 1300 259 
Q 1441 225 1656 225 
L 1656 0 
L 191 0 
z
" transform="scale(0.015625)"/>
       <path id="Cmr10-29" d="M 416 -1600 
Q 359 -1600 359 -1544 
Q 359 -1516 372 -1503 
Q 1466 -434 1466 1600 
Q 1466 3634 384 4691 
Q 359 4706 359 4744 
Q 359 4766 376 4783 
Q 394 4800 416 4800 
L 475 4800 
Q 494 4800 506 4788 
Q 966 4425 1272 3906 
Q 1578 3388 1720 2800 
Q 1863 2213 1863 1600 
Q 1863 1147 1786 708 
Q 1709 269 1542 -157 
Q 1375 -584 1119 -945 
Q 863 -1306 506 -1588 
Q 494 -1600 475 -1600 
L 416 -1600 
z
" transform="scale(0.015625)"/>
      </defs>
      <use xlink:href="#Cmr10-54"/>
      <use xlink:href="#Cmr10-6f" transform="translate(72.216797 0)"/>
      <use xlink:href="#Cmr10-74" transform="translate(122.216797 0)"/>
      <use xlink:href="#Cmr10-61" transform="translate(161.035156 0)"/>
      <use xlink:href="#Cmr10-6c" transform="translate(211.035156 0)"/>
      <use xlink:href="#Cmr10-20" transform="translate(238.720703 0)"/>
      <use xlink:href="#Cmr10-51" transform="translate(272.021484 0)"/>
      <use xlink:href="#Cmr10-75" transform="translate(349.707031 0)"/>
      <use xlink:href="#Cmr10-65" transform="translate(405.224609 0)"/>
      <use xlink:href="#Cmr10-72" transform="translate(449.609375 0)"/>
      <use xlink:href="#Cmr10-79" transform="translate(488.720703 0)"/>
      <use xlink:href="#Cmr10-20" transform="translate(541.40625 0)"/>
      <use xlink:href="#Cmr10-54" transform="translate(574.707031 0)"/>
      <use xlink:href="#Cmr10-69" transform="translate(646.923828 0)"/>
      <use xlink:href="#Cmr10-6d" transform="translate(674.609375 0)"/>
      <use xlink:href="#Cmr10-65" transform="translate(757.910156 0)"/>
      <use xlink:href="#Cmr10-20" transform="translate(802.294922 0)"/>
      <use xlink:href="#Cmr10-28" transform="translate(835.595703 0)"/>
      <use xlink:href="#Cmr10-6d" transform="translate(874.414062 0)"/>
      <use xlink:href="#Cmr10-69" transform="translate(957.714844 0)"/>
      <use xlink:href="#Cmr10-6e" transform="translate(985.400391 0)"/>
      <use xlink:href="#Cmr10-29" transform="translate(1040.917969 0)"/>
     </g>
    </g>
   </g>
   <g id="patch_38">
    <path d="M 50.367266 365.799988 
L 50.367266 12.96 
" style="fill: none; stroke: #000000; stroke-width: 0.8; stroke-linejoin: miter; stroke-linecap: square"/>
   </g>
   <g id="patch_39">
    <path d="M 840.63 365.799988 
L 840.63 12.96 
" style="fill: none; stroke: #000000; stroke-width: 0.8; stroke-linejoin: miter; stroke-linecap: square"/>
   </g>
   <g id="patch_40">
    <path d="M 50.367266 365.799988 
L 840.63 365.799988 
" style="fill: none; stroke: #000000; stroke-width: 0.8; stroke-linejoin: miter; stroke-linecap: square"/>
   </g>
   <g id="patch_41">
    <path d="M 50.367266 12.96 
L 840.63 12.96 
" style="fill: none; stroke: #000000; stroke-width: 0.8; stroke-linejoin: miter; stroke-linecap: square"/>
   </g>
   <g id="legend_1">
    <g id="patch_42">
     <path d="M 770.003727 106.194375 
L 836.751852 106.194375 
Q 839.151852 106.194375 839.151852 103.794375 
L 839.151852 21.36 
Q 839.151852 18.96 836.751852 18.96 
L 770.003727 18.96 
Q 767.603727 18.96 767.603727 21.36 
L 767.603727 103.794375 
Q 767.603727 106.194375 770.003727 106.194375 
z
" style="fill: #ffffff; opacity: 0.8; stroke: #cccccc; stroke-linejoin: miter"/>
    </g>
    <g id="patch_43">
     <path d="M 772.403727 32.16 
L 796.403727 32.16 
L 796.403727 23.76 
L 772.403727 23.76 
z
" style="fill: #1f77b4"/>
    </g>
    <g id="text_18">
     <!-- RatS -->
     <g transform="translate(806.003727 32.16) scale(0.12 -0.12)">
      <defs>
       <path id="Cmr10-53" d="M 359 -91 
L 359 1403 
Q 359 1453 416 1453 
L 494 1453 
Q 513 1453 528 1437 
Q 544 1422 544 1403 
Q 544 775 933 429 
Q 1322 84 1953 84 
Q 2175 84 2362 212 
Q 2550 341 2654 548 
Q 2759 756 2759 978 
Q 2759 1172 2681 1355 
Q 2603 1538 2456 1672 
Q 2309 1806 2125 1850 
L 1294 2053 
Q 881 2163 620 2502 
Q 359 2841 359 3263 
Q 359 3594 528 3884 
Q 697 4175 983 4344 
Q 1269 4513 1600 4513 
Q 2241 4513 2619 4078 
L 2881 4494 
Q 2900 4513 2925 4513 
L 2969 4513 
Q 2988 4513 3005 4498 
Q 3022 4484 3022 4459 
L 3022 2975 
Q 3022 2919 2969 2919 
L 2894 2919 
Q 2834 2919 2834 2975 
Q 2834 3138 2779 3331 
Q 2725 3525 2628 3703 
Q 2531 3881 2419 3994 
Q 2109 4306 1600 4306 
Q 1381 4306 1197 4195 
Q 1013 4084 903 3893 
Q 794 3703 794 3494 
Q 794 3219 964 2995 
Q 1134 2772 1409 2700 
L 2241 2497 
Q 2447 2447 2630 2317 
Q 2813 2188 2934 2016 
Q 3056 1844 3125 1633 
Q 3194 1422 3194 1197 
Q 3194 850 3034 542 
Q 2875 234 2586 46 
Q 2297 -141 1953 -141 
Q 1741 -141 1519 -94 
Q 1297 -47 1109 50 
Q 922 147 769 300 
L 500 -122 
Q 481 -141 453 -141 
L 416 -141 
Q 359 -141 359 -91 
z
" transform="scale(0.015625)"/>
      </defs>
      <use xlink:href="#Cmr10-52"/>
      <use xlink:href="#Cmr10-61" transform="translate(73.583984 0)"/>
      <use xlink:href="#Cmr10-74" transform="translate(123.583984 0)"/>
      <use xlink:href="#Cmr10-53" transform="translate(162.402344 0)"/>
     </g>
    </g>
    <g id="patch_44">
     <path d="M 772.403727 48.886875 
L 796.403727 48.886875 
L 796.403727 40.486875 
L 772.403727 40.486875 
z
" style="fill: #2ca02c"/>
    </g>
    <g id="text_19">
     <!-- EntS -->
     <g transform="translate(806.003727 48.886875) scale(0.12 -0.12)">
      <defs>
       <path id="Cmr10-45" d="M 197 0 
L 197 225 
Q 856 225 856 428 
L 856 3944 
Q 856 4147 197 4147 
L 197 4372 
L 3816 4372 
L 3994 2906 
L 3809 2906 
Q 3741 3459 3617 3709 
Q 3494 3959 3222 4053 
Q 2950 4147 2406 4147 
L 1778 4147 
Q 1663 4147 1598 4137 
Q 1534 4128 1493 4083 
Q 1453 4038 1453 3944 
L 1453 2381 
L 1925 2381 
Q 2250 2381 2411 2436 
Q 2572 2491 2633 2645 
Q 2694 2800 2694 3128 
L 2881 3128 
L 2881 1409 
L 2694 1409 
Q 2694 1734 2633 1890 
Q 2572 2047 2411 2101 
Q 2250 2156 1925 2156 
L 1453 2156 
L 1453 428 
Q 1453 291 1531 258 
Q 1609 225 1778 225 
L 2456 225 
Q 2900 225 3173 295 
Q 3447 366 3598 530 
Q 3750 694 3833 955 
Q 3916 1216 3988 1678 
L 4172 1678 
L 3903 0 
L 197 0 
z
" transform="scale(0.015625)"/>
      </defs>
      <use xlink:href="#Cmr10-45"/>
      <use xlink:href="#Cmr10-6e" transform="translate(68.017578 0)"/>
      <use xlink:href="#Cmr10-74" transform="translate(123.535156 0)"/>
      <use xlink:href="#Cmr10-53" transform="translate(162.353516 0)"/>
     </g>
    </g>
    <g id="patch_45">
     <path d="M 772.403727 65.61375 
L 796.403727 65.61375 
L 796.403727 57.21375 
L 772.403727 57.21375 
z
" style="fill: #d62728"/>
    </g>
    <g id="text_20">
     <!-- MarS -->
     <g transform="translate(806.003727 65.61375) scale(0.12 -0.12)">
      <use xlink:href="#Cmr10-4d"/>
      <use xlink:href="#Cmr10-61" transform="translate(91.601562 0)"/>
      <use xlink:href="#Cmr10-72" transform="translate(141.601562 0)"/>
      <use xlink:href="#Cmr10-53" transform="translate(180.712891 0)"/>
     </g>
    </g>
    <g id="patch_46">
     <path d="M 772.403727 82.340625 
L 796.403727 82.340625 
L 796.403727 73.940625 
L 772.403727 73.940625 
z
" style="fill: #ff7f0e"/>
    </g>
    <g id="text_21">
     <!-- RanS -->
     <g transform="translate(806.003727 82.340625) scale(0.12 -0.12)">
      <use xlink:href="#Cmr10-52"/>
      <use xlink:href="#Cmr10-61" transform="translate(73.583984 0)"/>
      <use xlink:href="#Cmr10-6e" transform="translate(123.583984 0)"/>
      <use xlink:href="#Cmr10-53" transform="translate(179.101562 0)"/>
     </g>
    </g>
    <g id="patch_47">
     <path d="M 772.403727 99.0675 
L 796.403727 99.0675 
L 796.403727 90.6675 
L 772.403727 90.6675 
z
" style="fill: #8c564b"/>
    </g>
    <g id="text_22">
     <!-- LCS -->
     <g transform="translate(806.003727 99.0675) scale(0.12 -0.12)">
      <use xlink:href="#Cmr10-4c"/>
      <use xlink:href="#Cmr10-43" transform="translate(62.5 0)"/>
      <use xlink:href="#Cmr10-53" transform="translate(134.716797 0)"/>
     </g>
    </g>
   </g>
  </g>
 </g>
 <defs>
  <clipPath id="pacd5dd7cca">
   <rect x="50.367266" y="12.96" width="790.262734" height="352.839988"/>
  </clipPath>
 </defs>
</svg>
