<?xml version="1.0" encoding="utf-8" standalone="no"?>
<!DOCTYPE svg PUBLIC "-//W3C//DTD SVG 1.1//EN"
  "http://www.w3.org/Graphics/SVG/1.1/DTD/svg11.dtd">
<svg xmlns:xlink="http://www.w3.org/1999/xlink" width="864pt" height="288pt" viewBox="0 0 864 288" xmlns="http://www.w3.org/2000/svg" version="1.1">
 <metadata>
  <rdf:RDF xmlns:dc="http://purl.org/dc/elements/1.1/" xmlns:cc="http://creativecommons.org/ns#" xmlns:rdf="http://www.w3.org/1999/02/22-rdf-syntax-ns#">
   <cc:Work>
    <dc:type rdf:resource="http://purl.org/dc/dcmitype/StillImage"/>
    <dc:date>2025-02-13T15:53:24.340250</dc:date>
    <dc:format>image/svg+xml</dc:format>
    <dc:creator>
     <cc:Agent>
      <dc:title>Matplotlib v3.10.0, https://matplotlib.org/</dc:title>
     </cc:Agent>
    </dc:creator>
   </cc:Work>
  </rdf:RDF>
 </metadata>
 <defs>
  <style type="text/css">*{stroke-linejoin: round; stroke-linecap: butt}</style>
 </defs>
 <g id="figure_1">
  <g id="patch_1">
   <path d="M 0 288 
L 864 288 
L 864 0 
L 0 0 
z
" style="fill: #ffffff"/>
  </g>
  <g id="axes_1">
   <g id="patch_2">
    <path d="M 108 256.32 
L 412.363636 256.32 
L 412.363636 34.56 
L 108 34.56 
z
" style="fill: #ffffff"/>
   </g>
   <g id="matplotlib.axis_1">
    <g id="xtick_1">
     <g id="line2d_1">
      <path d="M 121.834711 256.32 
L 121.834711 34.56 
" clip-path="url(#p3aa1e8d8be)" style="fill: none; stroke-dasharray: 3.7,1.6; stroke-dashoffset: 0; stroke: #808080"/>
     </g>
     <g id="line2d_2">
      <defs>
       <path id="m8f5ebfda90" d="M 0 0 
L 0 3.5 
" style="stroke: #000000; stroke-width: 0.8"/>
      </defs>
      <g>
       <use xlink:href="#m8f5ebfda90" x="121.834711" y="256.32" style="stroke: #000000; stroke-width: 0.8"/>
      </g>
     </g>
     <g id="text_1">
      <!-- $\mathdefault{0}$ -->
      <g transform="translate(118.834711 271.646875) scale(0.12 -0.12)">
       <defs>
        <path id="Cmr10-30" d="M 1600 -141 
Q 816 -141 533 504 
Q 250 1150 250 2041 
Q 250 2597 351 3087 
Q 453 3578 754 3920 
Q 1056 4263 1600 4263 
Q 2022 4263 2290 4056 
Q 2559 3850 2700 3523 
Q 2841 3197 2892 2823 
Q 2944 2450 2944 2041 
Q 2944 1491 2842 1011 
Q 2741 531 2444 195 
Q 2147 -141 1600 -141 
z
M 1600 25 
Q 1956 25 2131 390 
Q 2306 756 2347 1200 
Q 2388 1644 2388 2144 
Q 2388 2625 2347 3031 
Q 2306 3438 2132 3767 
Q 1959 4097 1600 4097 
Q 1238 4097 1063 3765 
Q 888 3434 847 3029 
Q 806 2625 806 2144 
Q 806 1788 823 1472 
Q 841 1156 916 820 
Q 991 484 1158 254 
Q 1325 25 1600 25 
z
" transform="scale(0.015625)"/>
       </defs>
       <use xlink:href="#Cmr10-30" transform="translate(0 0.390625)"/>
      </g>
     </g>
    </g>
    <g id="xtick_2">
     <g id="line2d_3">
      <path d="M 177.732532 256.32 
L 177.732532 34.56 
" clip-path="url(#p3aa1e8d8be)" style="fill: none; stroke-dasharray: 3.7,1.6; stroke-dashoffset: 0; stroke: #808080"/>
     </g>
     <g id="line2d_4">
      <g>
       <use xlink:href="#m8f5ebfda90" x="177.732532" y="256.32" style="stroke: #000000; stroke-width: 0.8"/>
      </g>
     </g>
     <g id="text_2">
      <!-- $\mathdefault{20}$ -->
      <g transform="translate(171.732532 271.646875) scale(0.12 -0.12)">
       <defs>
        <path id="Cmr10-32" d="M 319 0 
L 319 172 
Q 319 188 331 206 
L 1325 1306 
Q 1550 1550 1690 1715 
Q 1831 1881 1968 2097 
Q 2106 2313 2186 2536 
Q 2266 2759 2266 3009 
Q 2266 3272 2169 3511 
Q 2072 3750 1880 3894 
Q 1688 4038 1416 4038 
Q 1138 4038 916 3870 
Q 694 3703 603 3438 
Q 628 3444 672 3444 
Q 816 3444 917 3347 
Q 1019 3250 1019 3097 
Q 1019 2950 917 2848 
Q 816 2747 672 2747 
Q 522 2747 420 2851 
Q 319 2956 319 3097 
Q 319 3338 409 3548 
Q 500 3759 670 3923 
Q 841 4088 1055 4175 
Q 1269 4263 1509 4263 
Q 1875 4263 2190 4108 
Q 2506 3953 2690 3670 
Q 2875 3388 2875 3009 
Q 2875 2731 2753 2481 
Q 2631 2231 2440 2026 
Q 2250 1822 1953 1562 
Q 1656 1303 1563 1216 
L 838 519 
L 1453 519 
Q 1906 519 2211 526 
Q 2516 534 2534 550 
Q 2609 631 2688 1141 
L 2875 1141 
L 2694 0 
L 319 0 
z
" transform="scale(0.015625)"/>
       </defs>
       <use xlink:href="#Cmr10-32" transform="translate(0 0.390625)"/>
       <use xlink:href="#Cmr10-30" transform="translate(50 0.390625)"/>
      </g>
     </g>
    </g>
    <g id="xtick_3">
     <g id="line2d_5">
      <path d="M 233.630353 256.32 
L 233.630353 34.56 
" clip-path="url(#p3aa1e8d8be)" style="fill: none; stroke-dasharray: 3.7,1.6; stroke-dashoffset: 0; stroke: #808080"/>
     </g>
     <g id="line2d_6">
      <g>
       <use xlink:href="#m8f5ebfda90" x="233.630353" y="256.32" style="stroke: #000000; stroke-width: 0.8"/>
      </g>
     </g>
     <g id="text_3">
      <!-- $\mathdefault{40}$ -->
      <g transform="translate(227.630353 271.646875) scale(0.12 -0.12)">
       <defs>
        <path id="Cmr10-34" d="M 178 1056 
L 178 1281 
L 2156 4231 
Q 2178 4263 2222 4263 
L 2316 4263 
Q 2388 4263 2388 4191 
L 2388 1281 
L 3016 1281 
L 3016 1056 
L 2388 1056 
L 2388 428 
Q 2388 297 2575 261 
Q 2763 225 3009 225 
L 3009 0 
L 1247 0 
L 1247 225 
Q 1494 225 1681 261 
Q 1869 297 1869 428 
L 1869 1056 
L 178 1056 
z
M 391 1281 
L 1906 1281 
L 1906 3547 
L 391 1281 
z
" transform="scale(0.015625)"/>
       </defs>
       <use xlink:href="#Cmr10-34" transform="translate(0 0.390625)"/>
       <use xlink:href="#Cmr10-30" transform="translate(50 0.390625)"/>
      </g>
     </g>
    </g>
    <g id="xtick_4">
     <g id="line2d_7">
      <path d="M 289.528174 256.32 
L 289.528174 34.56 
" clip-path="url(#p3aa1e8d8be)" style="fill: none; stroke-dasharray: 3.7,1.6; stroke-dashoffset: 0; stroke: #808080"/>
     </g>
     <g id="line2d_8">
      <g>
       <use xlink:href="#m8f5ebfda90" x="289.528174" y="256.32" style="stroke: #000000; stroke-width: 0.8"/>
      </g>
     </g>
     <g id="text_4">
      <!-- $\mathdefault{60}$ -->
      <g transform="translate(283.528174 271.646875) scale(0.12 -0.12)">
       <defs>
        <path id="Cmr10-36" d="M 1600 -141 
Q 1203 -141 937 70 
Q 672 281 526 617 
Q 381 953 325 1322 
Q 269 1691 269 2069 
Q 269 2575 466 3084 
Q 663 3594 1045 3928 
Q 1428 4263 1953 4263 
Q 2172 4263 2361 4180 
Q 2550 4097 2658 3936 
Q 2766 3775 2766 3547 
Q 2766 3416 2677 3327 
Q 2588 3238 2456 3238 
Q 2331 3238 2240 3328 
Q 2150 3419 2150 3547 
Q 2150 3672 2240 3762 
Q 2331 3853 2456 3853 
L 2491 3853 
Q 2409 3969 2261 4023 
Q 2113 4078 1953 4078 
Q 1759 4078 1595 3993 
Q 1431 3909 1300 3765 
Q 1169 3622 1081 3448 
Q 994 3275 945 3053 
Q 897 2831 884 2637 
Q 872 2444 872 2150 
Q 984 2413 1190 2580 
Q 1397 2747 1656 2747 
Q 1941 2747 2175 2631 
Q 2409 2516 2578 2311 
Q 2747 2106 2836 1843 
Q 2925 1581 2925 1313 
Q 2925 938 2758 598 
Q 2591 259 2287 59 
Q 1984 -141 1600 -141 
z
M 1600 63 
Q 1847 63 1997 175 
Q 2147 288 2217 473 
Q 2288 659 2305 848 
Q 2322 1038 2322 1313 
Q 2322 1675 2287 1931 
Q 2253 2188 2100 2383 
Q 1947 2578 1631 2578 
Q 1372 2578 1205 2403 
Q 1038 2228 961 1961 
Q 884 1694 884 1447 
Q 884 1363 891 1319 
Q 891 1309 889 1303 
Q 888 1297 884 1288 
Q 884 1013 940 731 
Q 997 450 1156 256 
Q 1316 63 1600 63 
z
" transform="scale(0.015625)"/>
       </defs>
       <use xlink:href="#Cmr10-36" transform="translate(0 0.390625)"/>
       <use xlink:href="#Cmr10-30" transform="translate(50 0.390625)"/>
      </g>
     </g>
    </g>
    <g id="xtick_5">
     <g id="line2d_9">
      <path d="M 345.425995 256.32 
L 345.425995 34.56 
" clip-path="url(#p3aa1e8d8be)" style="fill: none; stroke-dasharray: 3.7,1.6; stroke-dashoffset: 0; stroke: #808080"/>
     </g>
     <g id="line2d_10">
      <g>
       <use xlink:href="#m8f5ebfda90" x="345.425995" y="256.32" style="stroke: #000000; stroke-width: 0.8"/>
      </g>
     </g>
     <g id="text_5">
      <!-- $\mathdefault{80}$ -->
      <g transform="translate(339.425995 271.646875) scale(0.12 -0.12)">
       <defs>
        <path id="Cmr10-38" d="M 269 972 
Q 269 1356 522 1651 
Q 775 1947 1172 2144 
L 934 2297 
Q 716 2441 578 2680 
Q 441 2919 441 3181 
Q 441 3488 602 3734 
Q 763 3981 1030 4122 
Q 1297 4263 1600 4263 
Q 1884 4263 2148 4147 
Q 2413 4031 2583 3815 
Q 2753 3600 2753 3303 
Q 2753 3088 2651 2903 
Q 2550 2719 2373 2572 
Q 2197 2425 1997 2322 
L 2363 2088 
Q 2616 1922 2770 1653 
Q 2925 1384 2925 1088 
Q 2925 741 2739 456 
Q 2553 172 2247 15 
Q 1941 -141 1600 -141 
Q 1269 -141 961 -6 
Q 653 128 461 383 
Q 269 638 269 972 
z
M 616 972 
Q 616 719 755 509 
Q 894 300 1122 181 
Q 1350 63 1600 63 
Q 1972 63 2275 280 
Q 2578 497 2578 856 
Q 2578 978 2529 1098 
Q 2481 1219 2395 1317 
Q 2309 1416 2203 1478 
L 1344 2034 
Q 1144 1928 976 1765 
Q 809 1603 712 1400 
Q 616 1197 616 972 
z
M 1056 2925 
L 1831 2425 
Q 2100 2581 2272 2803 
Q 2444 3025 2444 3303 
Q 2444 3519 2323 3698 
Q 2203 3878 2009 3978 
Q 1816 4078 1594 4078 
Q 1400 4078 1203 4003 
Q 1006 3928 878 3779 
Q 750 3631 750 3431 
Q 750 3131 1056 2925 
z
" transform="scale(0.015625)"/>
       </defs>
       <use xlink:href="#Cmr10-38" transform="translate(0 0.390625)"/>
       <use xlink:href="#Cmr10-30" transform="translate(50 0.390625)"/>
      </g>
     </g>
    </g>
    <g id="xtick_6">
     <g id="line2d_11">
      <path d="M 401.323817 256.32 
L 401.323817 34.56 
" clip-path="url(#p3aa1e8d8be)" style="fill: none; stroke-dasharray: 3.7,1.6; stroke-dashoffset: 0; stroke: #808080"/>
     </g>
     <g id="line2d_12">
      <g>
       <use xlink:href="#m8f5ebfda90" x="401.323817" y="256.32" style="stroke: #000000; stroke-width: 0.8"/>
      </g>
     </g>
     <g id="text_6">
      <!-- $\mathdefault{100}$ -->
      <g transform="translate(392.323817 271.646875) scale(0.12 -0.12)">
       <defs>
        <path id="Cmr10-31" d="M 594 0 
L 594 225 
Q 1394 225 1394 428 
L 1394 3788 
Q 1063 3628 556 3628 
L 556 3853 
Q 1341 3853 1741 4263 
L 1831 4263 
Q 1853 4263 1873 4245 
Q 1894 4228 1894 4206 
L 1894 428 
Q 1894 225 2694 225 
L 2694 0 
L 594 0 
z
" transform="scale(0.015625)"/>
       </defs>
       <use xlink:href="#Cmr10-31" transform="translate(0 0.390625)"/>
       <use xlink:href="#Cmr10-30" transform="translate(50 0.390625)"/>
       <use xlink:href="#Cmr10-30" transform="translate(100 0.390625)"/>
      </g>
     </g>
    </g>
    <g id="text_7">
     <!-- Epoch -->
     <g transform="translate(243.775568 292.300625) scale(0.12 -0.12)">
      <defs>
       <path id="Cmr10-45" d="M 197 0 
L 197 225 
Q 856 225 856 428 
L 856 3944 
Q 856 4147 197 4147 
L 197 4372 
L 3816 4372 
L 3994 2906 
L 3809 2906 
Q 3741 3459 3617 3709 
Q 3494 3959 3222 4053 
Q 2950 4147 2406 4147 
L 1778 4147 
Q 1663 4147 1598 4137 
Q 1534 4128 1493 4083 
Q 1453 4038 1453 3944 
L 1453 2381 
L 1925 2381 
Q 2250 2381 2411 2436 
Q 2572 2491 2633 2645 
Q 2694 2800 2694 3128 
L 2881 3128 
L 2881 1409 
L 2694 1409 
Q 2694 1734 2633 1890 
Q 2572 2047 2411 2101 
Q 2250 2156 1925 2156 
L 1453 2156 
L 1453 428 
Q 1453 291 1531 258 
Q 1609 225 1778 225 
L 2456 225 
Q 2900 225 3173 295 
Q 3447 366 3598 530 
Q 3750 694 3833 955 
Q 3916 1216 3988 1678 
L 4172 1678 
L 3903 0 
L 197 0 
z
" transform="scale(0.015625)"/>
       <path id="Cmr10-70" d="M 166 -1241 
L 166 -1019 
Q 384 -1019 525 -981 
Q 666 -944 666 -813 
L 666 2272 
Q 666 2447 541 2490 
Q 416 2534 166 2534 
L 166 2759 
L 1113 2828 
L 1113 2431 
Q 1288 2625 1520 2726 
Q 1753 2828 2016 2828 
Q 2394 2828 2697 2623 
Q 3000 2419 3170 2086 
Q 3341 1753 3341 1381 
Q 3341 994 3152 659 
Q 2963 325 2636 126 
Q 2309 -72 1919 -72 
Q 1453 -72 1131 306 
L 1131 -813 
Q 1131 -944 1273 -981 
Q 1416 -1019 1631 -1019 
L 1631 -1241 
L 166 -1241 
z
M 1131 622 
Q 1244 394 1444 245 
Q 1644 97 1881 97 
Q 2103 97 2273 215 
Q 2444 334 2559 534 
Q 2675 734 2729 954 
Q 2784 1175 2784 1381 
Q 2784 1638 2692 1936 
Q 2600 2234 2411 2439 
Q 2222 2644 1953 2644 
Q 1694 2644 1476 2511 
Q 1259 2378 1131 2150 
L 1131 622 
z
" transform="scale(0.015625)"/>
       <path id="Cmr10-6f" d="M 1600 -72 
Q 1216 -72 887 123 
Q 559 319 368 647 
Q 178 975 178 1363 
Q 178 1656 283 1928 
Q 388 2200 583 2414 
Q 778 2628 1037 2748 
Q 1297 2869 1600 2869 
Q 1994 2869 2317 2661 
Q 2641 2453 2828 2104 
Q 3016 1756 3016 1363 
Q 3016 978 2825 648 
Q 2634 319 2307 123 
Q 1981 -72 1600 -72 
z
M 1600 116 
Q 2113 116 2284 487 
Q 2456 859 2456 1434 
Q 2456 1756 2422 1967 
Q 2388 2178 2272 2350 
Q 2200 2456 2089 2536 
Q 1978 2616 1854 2658 
Q 1731 2700 1600 2700 
Q 1400 2700 1220 2609 
Q 1041 2519 922 2350 
Q 803 2169 770 1951 
Q 738 1734 738 1434 
Q 738 1075 800 789 
Q 863 503 1052 309 
Q 1241 116 1600 116 
z
" transform="scale(0.015625)"/>
       <path id="Cmr10-63" d="M 1594 -72 
Q 1206 -72 890 129 
Q 575 331 394 667 
Q 213 1003 213 1381 
Q 213 1759 392 2106 
Q 572 2453 889 2661 
Q 1206 2869 1594 2869 
Q 1969 2869 2276 2722 
Q 2584 2575 2584 2241 
Q 2584 2116 2495 2023 
Q 2406 1931 2278 1931 
Q 2150 1931 2061 2023 
Q 1972 2116 1972 2241 
Q 1972 2353 2044 2436 
Q 2116 2519 2222 2541 
Q 2000 2681 1600 2681 
Q 1294 2681 1106 2478 
Q 919 2275 844 1975 
Q 769 1675 769 1381 
Q 769 1072 861 783 
Q 953 494 1158 305 
Q 1363 116 1672 116 
Q 1975 116 2187 302 
Q 2400 488 2478 788 
Q 2478 825 2528 825 
L 2606 825 
Q 2625 825 2640 808 
Q 2656 791 2656 769 
L 2656 750 
Q 2559 372 2271 150 
Q 1984 -72 1594 -72 
z
" transform="scale(0.015625)"/>
       <path id="Cmr10-68" d="M 191 0 
L 191 225 
Q 409 225 550 259 
Q 691 294 691 428 
L 691 3788 
Q 691 3959 639 4036 
Q 588 4113 491 4130 
Q 394 4147 191 4147 
L 191 4372 
L 1141 4441 
L 1141 2241 
Q 1275 2506 1515 2667 
Q 1756 2828 2047 2828 
Q 2491 2828 2714 2615 
Q 2938 2403 2938 1966 
L 2938 428 
Q 2938 294 3078 259 
Q 3219 225 3438 225 
L 3438 0 
L 1972 0 
L 1972 225 
Q 2191 225 2331 259 
Q 2472 294 2472 428 
L 2472 1947 
Q 2472 2259 2381 2461 
Q 2291 2663 2009 2663 
Q 1638 2663 1398 2366 
Q 1159 2069 1159 1691 
L 1159 428 
Q 1159 294 1300 259 
Q 1441 225 1656 225 
L 1656 0 
L 191 0 
z
" transform="scale(0.015625)"/>
      </defs>
      <use xlink:href="#Cmr10-45"/>
      <use xlink:href="#Cmr10-70" transform="translate(68.017578 0)"/>
      <use xlink:href="#Cmr10-6f" transform="translate(123.535156 0)"/>
      <use xlink:href="#Cmr10-63" transform="translate(173.535156 0)"/>
      <use xlink:href="#Cmr10-68" transform="translate(217.919922 0)"/>
     </g>
    </g>
   </g>
   <g id="matplotlib.axis_2">
    <g id="ytick_1">
     <g id="line2d_13">
      <path d="M 108 246.24 
L 412.363636 246.24 
" clip-path="url(#p3aa1e8d8be)" style="fill: none; stroke-dasharray: 3.7,1.6; stroke-dashoffset: 0; stroke: #808080"/>
     </g>
     <g id="line2d_14">
      <defs>
       <path id="mdd24c1e4f7" d="M 0 0 
L -3.5 0 
" style="stroke: #000000; stroke-width: 0.8"/>
      </defs>
      <g>
       <use xlink:href="#mdd24c1e4f7" x="108" y="246.24" style="stroke: #000000; stroke-width: 0.8"/>
      </g>
     </g>
     <g id="text_8">
      <!-- $\mathdefault{0}$ -->
      <g transform="translate(95 250.403437) scale(0.12 -0.12)">
       <use xlink:href="#Cmr10-30" transform="translate(0 0.390625)"/>
      </g>
     </g>
    </g>
    <g id="ytick_2">
     <g id="line2d_15">
      <path d="M 108 205.92 
L 412.363636 205.92 
" clip-path="url(#p3aa1e8d8be)" style="fill: none; stroke-dasharray: 3.7,1.6; stroke-dashoffset: 0; stroke: #808080"/>
     </g>
     <g id="line2d_16">
      <g>
       <use xlink:href="#mdd24c1e4f7" x="108" y="205.92" style="stroke: #000000; stroke-width: 0.8"/>
      </g>
     </g>
     <g id="text_9">
      <!-- $\mathdefault{20}$ -->
      <g transform="translate(89 210.083438) scale(0.12 -0.12)">
       <use xlink:href="#Cmr10-32" transform="translate(0 0.390625)"/>
       <use xlink:href="#Cmr10-30" transform="translate(50 0.390625)"/>
      </g>
     </g>
    </g>
    <g id="ytick_3">
     <g id="line2d_17">
      <path d="M 108 165.6 
L 412.363636 165.6 
" clip-path="url(#p3aa1e8d8be)" style="fill: none; stroke-dasharray: 3.7,1.6; stroke-dashoffset: 0; stroke: #808080"/>
     </g>
     <g id="line2d_18">
      <g>
       <use xlink:href="#mdd24c1e4f7" x="108" y="165.6" style="stroke: #000000; stroke-width: 0.8"/>
      </g>
     </g>
     <g id="text_10">
      <!-- $\mathdefault{40}$ -->
      <g transform="translate(89 169.763438) scale(0.12 -0.12)">
       <use xlink:href="#Cmr10-34" transform="translate(0 0.390625)"/>
       <use xlink:href="#Cmr10-30" transform="translate(50 0.390625)"/>
      </g>
     </g>
    </g>
    <g id="ytick_4">
     <g id="line2d_19">
      <path d="M 108 125.28 
L 412.363636 125.28 
" clip-path="url(#p3aa1e8d8be)" style="fill: none; stroke-dasharray: 3.7,1.6; stroke-dashoffset: 0; stroke: #808080"/>
     </g>
     <g id="line2d_20">
      <g>
       <use xlink:href="#mdd24c1e4f7" x="108" y="125.28" style="stroke: #000000; stroke-width: 0.8"/>
      </g>
     </g>
     <g id="text_11">
      <!-- $\mathdefault{60}$ -->
      <g transform="translate(89 129.443437) scale(0.12 -0.12)">
       <use xlink:href="#Cmr10-36" transform="translate(0 0.390625)"/>
       <use xlink:href="#Cmr10-30" transform="translate(50 0.390625)"/>
      </g>
     </g>
    </g>
    <g id="ytick_5">
     <g id="line2d_21">
      <path d="M 108 84.96 
L 412.363636 84.96 
" clip-path="url(#p3aa1e8d8be)" style="fill: none; stroke-dasharray: 3.7,1.6; stroke-dashoffset: 0; stroke: #808080"/>
     </g>
     <g id="line2d_22">
      <g>
       <use xlink:href="#mdd24c1e4f7" x="108" y="84.96" style="stroke: #000000; stroke-width: 0.8"/>
      </g>
     </g>
     <g id="text_12">
      <!-- $\mathdefault{80}$ -->
      <g transform="translate(89 89.123437) scale(0.12 -0.12)">
       <use xlink:href="#Cmr10-38" transform="translate(0 0.390625)"/>
       <use xlink:href="#Cmr10-30" transform="translate(50 0.390625)"/>
      </g>
     </g>
    </g>
    <g id="ytick_6">
     <g id="line2d_23">
      <path d="M 108 44.64 
L 412.363636 44.64 
" clip-path="url(#p3aa1e8d8be)" style="fill: none; stroke-dasharray: 3.7,1.6; stroke-dashoffset: 0; stroke: #808080"/>
     </g>
     <g id="line2d_24">
      <g>
       <use xlink:href="#mdd24c1e4f7" x="108" y="44.64" style="stroke: #000000; stroke-width: 0.8"/>
      </g>
     </g>
     <g id="text_13">
      <!-- $\mathdefault{100}$ -->
      <g transform="translate(83 48.803438) scale(0.12 -0.12)">
       <use xlink:href="#Cmr10-31" transform="translate(0 0.390625)"/>
       <use xlink:href="#Cmr10-30" transform="translate(50 0.390625)"/>
       <use xlink:href="#Cmr10-30" transform="translate(100 0.390625)"/>
      </g>
     </g>
    </g>
    <g id="text_14">
     <!-- $\mu$ Train Accuracy [%] -->
     <g transform="translate(70 202.62) rotate(-90) scale(0.12 -0.12)">
      <defs>
       <path id="DejaVuSans-Oblique-3bc" d="M -84 -1331 
L 856 3500 
L 1434 3500 
L 1009 1322 
Q 997 1256 987 1175 
Q 978 1094 978 1013 
Q 978 722 1161 565 
Q 1344 409 1684 409 
Q 2147 409 2431 671 
Q 2716 934 2816 1459 
L 3213 3500 
L 3788 3500 
L 3266 809 
Q 3253 750 3248 706 
Q 3244 663 3244 628 
Q 3244 531 3283 486 
Q 3322 441 3406 441 
Q 3438 441 3492 456 
Q 3547 472 3647 513 
L 3559 50 
Q 3422 -19 3297 -55 
Q 3172 -91 3053 -91 
Q 2847 -91 2730 40 
Q 2613 172 2613 403 
Q 2438 153 2195 31 
Q 1953 -91 1625 -91 
Q 1334 -91 1117 43 
Q 900 178 831 397 
L 494 -1331 
L -84 -1331 
z
" transform="scale(0.015625)"/>
       <path id="Cmr10-20" transform="scale(0.015625)"/>
       <path id="Cmr10-54" d="M 1081 0 
L 1081 225 
Q 1403 225 1706 261 
Q 2009 297 2009 428 
L 2009 3944 
Q 2009 4081 1932 4114 
Q 1856 4147 1684 4147 
L 1416 4147 
Q 888 4147 666 3916 
Q 550 3800 500 3545 
Q 450 3291 416 2906 
L 231 2906 
L 353 4372 
L 4263 4372 
L 4384 2906 
L 4197 2906 
Q 4159 3319 4114 3561 
Q 4069 3803 3950 3916 
Q 3725 4147 3200 4147 
L 2931 4147 
Q 2816 4147 2752 4137 
Q 2688 4128 2647 4083 
Q 2606 4038 2606 3944 
L 2606 428 
Q 2606 297 2909 261 
Q 3213 225 3531 225 
L 3531 0 
L 1081 0 
z
" transform="scale(0.015625)"/>
       <path id="Cmr10-72" d="M 166 0 
L 166 225 
Q 384 225 525 259 
Q 666 294 666 428 
L 666 2175 
Q 666 2347 614 2423 
Q 563 2500 466 2517 
Q 369 2534 166 2534 
L 166 2759 
L 1081 2828 
L 1081 2203 
Q 1184 2481 1375 2654 
Q 1566 2828 1838 2828 
Q 2028 2828 2178 2715 
Q 2328 2603 2328 2419 
Q 2328 2303 2245 2217 
Q 2163 2131 2041 2131 
Q 1922 2131 1837 2215 
Q 1753 2300 1753 2419 
Q 1753 2591 1875 2663 
L 1838 2663 
Q 1578 2663 1414 2475 
Q 1250 2288 1181 2009 
Q 1113 1731 1113 1478 
L 1113 428 
Q 1113 225 1734 225 
L 1734 0 
L 166 0 
z
" transform="scale(0.015625)"/>
       <path id="Cmr10-61" d="M 256 628 
Q 256 1009 556 1248 
Q 856 1488 1276 1586 
Q 1697 1684 2075 1684 
L 2075 1947 
Q 2075 2131 1994 2304 
Q 1913 2478 1759 2589 
Q 1606 2700 1422 2700 
Q 997 2700 775 2509 
Q 897 2509 976 2417 
Q 1056 2325 1056 2203 
Q 1056 2075 965 1984 
Q 875 1894 750 1894 
Q 622 1894 531 1984 
Q 441 2075 441 2203 
Q 441 2541 747 2705 
Q 1053 2869 1422 2869 
Q 1681 2869 1943 2758 
Q 2206 2647 2373 2440 
Q 2541 2234 2541 1959 
L 2541 519 
Q 2541 394 2594 289 
Q 2647 184 2759 184 
Q 2866 184 2917 290 
Q 2969 397 2969 519 
L 2969 928 
L 3156 928 
L 3156 519 
Q 3156 375 3081 245 
Q 3006 116 2879 39 
Q 2753 -38 2606 -38 
Q 2419 -38 2283 107 
Q 2147 253 2131 453 
Q 2013 213 1781 70 
Q 1550 -72 1288 -72 
Q 1044 -72 808 0 
Q 572 72 414 226 
Q 256 381 256 628 
z
M 775 628 
Q 775 403 940 250 
Q 1106 97 1331 97 
Q 1538 97 1706 200 
Q 1875 303 1975 481 
Q 2075 659 2075 856 
L 2075 1522 
Q 1784 1522 1479 1426 
Q 1175 1331 975 1128 
Q 775 925 775 628 
z
" transform="scale(0.015625)"/>
       <path id="Cmr10-69" d="M 197 0 
L 197 225 
Q 416 225 556 259 
Q 697 294 697 428 
L 697 2175 
Q 697 2422 601 2478 
Q 506 2534 225 2534 
L 225 2759 
L 1147 2828 
L 1147 428 
Q 1147 294 1269 259 
Q 1391 225 1594 225 
L 1594 0 
L 197 0 
z
M 469 3928 
Q 469 4069 575 4175 
Q 681 4281 819 4281 
Q 909 4281 993 4234 
Q 1078 4188 1125 4103 
Q 1172 4019 1172 3928 
Q 1172 3791 1065 3684 
Q 959 3578 819 3578 
Q 681 3578 575 3684 
Q 469 3791 469 3928 
z
" transform="scale(0.015625)"/>
       <path id="Cmr10-6e" d="M 191 0 
L 191 225 
Q 409 225 550 259 
Q 691 294 691 428 
L 691 2175 
Q 691 2347 639 2423 
Q 588 2500 491 2517 
Q 394 2534 191 2534 
L 191 2759 
L 1119 2828 
L 1119 2203 
Q 1247 2478 1498 2653 
Q 1750 2828 2047 2828 
Q 2491 2828 2714 2615 
Q 2938 2403 2938 1966 
L 2938 428 
Q 2938 294 3078 259 
Q 3219 225 3438 225 
L 3438 0 
L 1972 0 
L 1972 225 
Q 2191 225 2331 259 
Q 2472 294 2472 428 
L 2472 1947 
Q 2472 2259 2381 2461 
Q 2291 2663 2009 2663 
Q 1638 2663 1398 2366 
Q 1159 2069 1159 1691 
L 1159 428 
Q 1159 294 1300 259 
Q 1441 225 1656 225 
L 1656 0 
L 191 0 
z
" transform="scale(0.015625)"/>
       <path id="Cmr10-41" d="M 206 0 
L 206 225 
Q 778 225 909 603 
L 2253 4513 
Q 2272 4581 2356 4581 
L 2438 4581 
Q 2522 4581 2541 4513 
L 3944 428 
Q 4003 294 4170 259 
Q 4338 225 4588 225 
L 4588 0 
L 2803 0 
L 2803 225 
Q 3334 225 3334 397 
L 3334 428 
L 2988 1428 
L 1434 1428 
L 1147 603 
Q 1141 581 1141 538 
Q 1141 378 1292 301 
Q 1444 225 1619 225 
L 1619 0 
L 206 0 
z
M 1509 1650 
L 2913 1650 
L 2209 3694 
L 1509 1650 
z
" transform="scale(0.015625)"/>
       <path id="Cmr10-75" d="M 691 763 
L 691 2175 
Q 691 2347 639 2423 
Q 588 2500 491 2517 
Q 394 2534 191 2534 
L 191 2759 
L 1159 2828 
L 1159 763 
Q 1159 513 1195 373 
Q 1231 234 1348 165 
Q 1466 97 1722 97 
Q 2066 97 2269 384 
Q 2472 672 2472 1038 
L 2472 2175 
Q 2472 2347 2419 2423 
Q 2366 2500 2270 2517 
Q 2175 2534 1972 2534 
L 1972 2759 
L 2938 2828 
L 2938 581 
Q 2938 413 2989 336 
Q 3041 259 3137 242 
Q 3234 225 3438 225 
L 3438 0 
L 2491 -72 
L 2491 469 
Q 2372 228 2159 78 
Q 1947 -72 1691 -72 
Q 1231 -72 961 123 
Q 691 319 691 763 
z
" transform="scale(0.015625)"/>
       <path id="Cmr10-79" d="M 441 -1050 
Q 563 -1147 709 -1147 
Q 1113 -1147 1369 -538 
L 1588 0 
L 628 2350 
Q 569 2469 447 2501 
Q 325 2534 122 2534 
L 122 2759 
L 1466 2759 
L 1466 2534 
Q 1113 2534 1113 2381 
Q 1113 2356 1119 2344 
L 1831 594 
L 2472 2169 
Q 2491 2219 2491 2278 
Q 2491 2356 2448 2414 
Q 2406 2472 2339 2503 
Q 2272 2534 2188 2534 
L 2188 2759 
L 3250 2759 
L 3250 2534 
Q 3053 2534 2904 2443 
Q 2756 2353 2675 2175 
L 1569 -538 
Q 1481 -744 1364 -917 
Q 1247 -1091 1078 -1202 
Q 909 -1313 709 -1313 
Q 475 -1313 298 -1158 
Q 122 -1003 122 -775 
Q 122 -656 203 -575 
Q 284 -494 403 -494 
Q 484 -494 548 -530 
Q 613 -566 648 -628 
Q 684 -691 684 -775 
Q 684 -878 615 -959 
Q 547 -1041 441 -1050 
z
" transform="scale(0.015625)"/>
       <path id="Cmr10-5b" d="M 756 -1600 
L 756 4800 
L 1631 4800 
L 1631 4544 
L 1013 4544 
L 1013 -1344 
L 1631 -1344 
L 1631 -1600 
L 756 -1600 
z
" transform="scale(0.015625)"/>
       <path id="Cmr10-25" d="M 891 -231 
Q 891 -194 909 -166 
L 3809 4153 
Q 3425 3938 2963 3938 
Q 2463 3938 2003 4197 
Q 2131 3891 2131 3513 
Q 2131 3306 2082 3086 
Q 2034 2866 1934 2670 
Q 1834 2475 1676 2348 
Q 1519 2222 1306 2222 
Q 1006 2222 790 2422 
Q 575 2622 467 2922 
Q 359 3222 359 3513 
Q 359 3797 467 4098 
Q 575 4400 790 4600 
Q 1006 4800 1306 4800 
Q 1544 4800 1741 4609 
Q 2256 4103 2963 4103 
Q 3341 4103 3669 4270 
Q 3997 4438 4206 4750 
Q 4238 4800 4306 4800 
Q 4363 4800 4398 4765 
Q 4434 4731 4434 4672 
Q 4434 4638 4416 4609 
L 1113 -319 
Q 1084 -359 1019 -359 
Q 966 -359 928 -318 
Q 891 -278 891 -231 
z
M 1306 2388 
Q 1622 2388 1784 2764 
Q 1947 3141 1947 3513 
Q 1947 3722 1880 3989 
Q 1813 4256 1669 4445 
Q 1525 4634 1306 4634 
Q 988 4634 884 4279 
Q 781 3925 781 3506 
Q 781 3103 887 2745 
Q 994 2388 1306 2388 
z
M 4141 -359 
Q 3841 -359 3625 -159 
Q 3409 41 3301 342 
Q 3194 644 3194 934 
Q 3194 1219 3301 1520 
Q 3409 1822 3625 2022 
Q 3841 2222 4141 2222 
Q 4419 2222 4606 2011 
Q 4794 1800 4880 1503 
Q 4966 1206 4966 934 
Q 4966 728 4917 509 
Q 4869 291 4770 92 
Q 4672 -106 4514 -232 
Q 4356 -359 4141 -359 
z
M 4141 -191 
Q 4356 -191 4503 1 
Q 4650 194 4715 459 
Q 4781 725 4781 934 
Q 4781 1303 4618 1678 
Q 4456 2053 4141 2053 
Q 3822 2053 3719 1698 
Q 3616 1344 3616 928 
Q 3616 522 3722 165 
Q 3828 -191 4141 -191 
z
" transform="scale(0.015625)"/>
       <path id="Cmr10-5d" d="M 141 -1600 
L 141 -1344 
L 763 -1344 
L 763 4544 
L 141 4544 
L 141 4800 
L 1019 4800 
L 1019 -1600 
L 141 -1600 
z
" transform="scale(0.015625)"/>
      </defs>
      <use xlink:href="#DejaVuSans-Oblique-3bc"/>
      <use xlink:href="#Cmr10-20" transform="translate(63.623047 0)"/>
      <use xlink:href="#Cmr10-54" transform="translate(96.923828 0)"/>
      <use xlink:href="#Cmr10-72" transform="translate(169.140625 0)"/>
      <use xlink:href="#Cmr10-61" transform="translate(208.251953 0)"/>
      <use xlink:href="#Cmr10-69" transform="translate(258.251953 0)"/>
      <use xlink:href="#Cmr10-6e" transform="translate(285.9375 0)"/>
      <use xlink:href="#Cmr10-20" transform="translate(341.455078 0)"/>
      <use xlink:href="#Cmr10-41" transform="translate(374.755859 0)"/>
      <use xlink:href="#Cmr10-63" transform="translate(449.755859 0)"/>
      <use xlink:href="#Cmr10-63" transform="translate(494.140625 0)"/>
      <use xlink:href="#Cmr10-75" transform="translate(538.525391 0)"/>
      <use xlink:href="#Cmr10-72" transform="translate(594.042969 0)"/>
      <use xlink:href="#Cmr10-61" transform="translate(633.154297 0)"/>
      <use xlink:href="#Cmr10-63" transform="translate(683.154297 0)"/>
      <use xlink:href="#Cmr10-79" transform="translate(727.539062 0)"/>
      <use xlink:href="#Cmr10-20" transform="translate(780.224609 0)"/>
      <use xlink:href="#Cmr10-5b" transform="translate(813.525391 0)"/>
      <use xlink:href="#Cmr10-25" transform="translate(841.210938 0)"/>
      <use xlink:href="#Cmr10-5d" transform="translate(924.511719 0)"/>
     </g>
    </g>
   </g>
   <g id="line2d_25">
    <path d="M 121.834711 199.158336 
L 124.629602 168.930432 
L 127.424493 154.782144 
L 130.219384 146.411712 
L 133.014275 139.646016 
L 135.809166 133.771392 
L 138.604057 128.259648 
L 141.398948 123.776064 
L 144.193839 119.461824 
L 146.98873 116.26848 
L 149.783621 113.006592 
L 152.578512 109.825344 
L 155.373403 107.365824 
L 158.168295 104.571648 
L 160.963186 102.309696 
L 163.758077 100.285632 
L 166.552968 98.543808 
L 169.347859 96.67296 
L 172.14275 95.048064 
L 174.937641 93.08448 
L 177.732532 91.745856 
L 180.527423 90.205632 
L 183.322314 88.838784 
L 186.117205 87.673536 
L 188.912096 86.560704 
L 191.706987 85.24224 
L 194.501878 83.943936 
L 197.296769 82.96416 
L 200.09166 81.750528 
L 202.886551 80.7264 
L 205.681443 80.016768 
L 208.476334 79.07328 
L 211.271225 77.920128 
L 214.066116 76.879872 
L 216.861007 75.783168 
L 219.655898 75.06144 
L 222.450789 74.263104 
L 225.24568 73.343808 
L 228.040571 72.7632 
L 230.835462 71.63424 
L 233.630353 70.811712 
L 236.425244 70.279488 
L 239.220135 69.384384 
L 242.015026 68.67072 
L 244.809917 67.892544 
L 247.604808 67.287744 
L 250.399699 66.449088 
L 253.194591 66.001536 
L 255.989482 65.04192 
L 258.784373 64.562112 
L 261.579264 64.03392 
L 264.374155 63.288 
L 267.169046 62.84448 
L 269.963937 62.243712 
L 272.758828 61.505856 
L 275.553719 61.142976 
L 278.34861 60.594624 
L 281.143501 60.054336 
L 283.938392 59.5584 
L 286.733283 59.272128 
L 289.528174 58.679424 
L 292.323065 58.320576 
L 295.117956 57.929472 
L 297.912847 57.598848 
L 300.707739 57.26016 
L 303.50263 56.586816 
L 306.297521 56.385216 
L 309.092412 56.223936 
L 311.887303 55.865088 
L 314.682194 55.288512 
L 317.477085 54.88128 
L 320.271976 54.865152 
L 323.066867 54.502272 
L 325.861758 54.183744 
L 328.656649 53.788608 
L 331.45154 53.679744 
L 334.246431 53.47008 
L 337.041322 53.018496 
L 339.836213 53.054784 
L 342.631104 52.853184 
L 345.425995 52.667712 
L 348.220887 52.5024 
L 351.015778 52.123392 
L 353.810669 51.986304 
L 356.60556 51.748416 
L 359.400451 51.510528 
L 362.195342 51.470208 
L 364.990233 51.288768 
L 367.785124 51.179904 
L 370.580015 51.034752 
L 373.374906 50.897664 
L 376.169797 50.740416 
L 378.964688 50.579136 
L 381.759579 50.44608 
L 384.55447 50.474304 
L 387.349361 50.240448 
L 390.144252 50.034816 
L 392.939144 49.905792 
L 395.734035 49.958208 
L 398.528926 49.889664 
" clip-path="url(#p3aa1e8d8be)" style="fill: none; stroke: #ffa500; stroke-width: 1.5; stroke-linecap: square"/>
   </g>
   <g id="line2d_26">
    <path d="M 121.834711 224.156736 
L 124.629602 220.463424 
L 127.424493 194.251392 
L 130.219384 177.704064 
L 133.014275 167.470848 
L 135.809166 159.443136 
L 138.604057 152.496 
L 141.398948 146.605248 
L 144.193839 141.500736 
L 146.98873 136.497024 
L 149.783621 132.041664 
L 152.578512 127.71936 
L 155.373403 123.538176 
L 158.168295 120.002112 
L 160.963186 116.494272 
L 163.758077 113.341248 
L 166.552968 110.349504 
L 169.347859 107.61984 
L 172.14275 105.333696 
L 174.937641 102.954816 
L 177.732532 100.656576 
L 180.527423 98.838144 
L 183.322314 96.918912 
L 186.117205 95.4432 
L 188.912096 93.624768 
L 191.706987 92.064384 
L 194.501878 90.983808 
L 197.296769 89.5968 
L 200.09166 88.310592 
L 202.886551 87.044544 
L 205.681443 85.863168 
L 208.476334 84.835008 
L 211.271225 83.903616 
L 214.066116 82.738368 
L 216.861007 81.702144 
L 219.655898 80.500608 
L 222.450789 79.964352 
L 225.24568 78.73056 
L 228.040571 77.847552 
L 230.835462 76.940352 
L 233.630353 76.093632 
L 236.425244 75.049344 
L 239.220135 74.351808 
L 242.015026 73.513152 
L 244.809917 72.714816 
L 247.604808 72.001152 
L 250.399699 71.041536 
L 253.194591 70.138368 
L 255.989482 69.303744 
L 258.784373 68.622336 
L 261.579264 68.021568 
L 264.374155 67.283712 
L 267.169046 66.646656 
L 269.963937 65.751552 
L 272.758828 65.32416 
L 275.553719 64.630656 
L 278.34861 63.860544 
L 281.143501 63.320256 
L 283.938392 62.457408 
L 286.733283 61.953408 
L 289.528174 61.263936 
L 292.323065 60.82848 
L 295.117956 59.94144 
L 297.912847 59.675328 
L 300.707739 59.078592 
L 303.50263 58.715712 
L 306.297521 58.16736 
L 309.092412 57.364992 
L 311.887303 57.127104 
L 314.682194 56.679552 
L 317.477085 56.102976 
L 320.271976 55.715904 
L 323.066867 55.272384 
L 325.861758 54.736128 
L 328.656649 54.465984 
L 331.45154 54.050688 
L 334.246431 53.619264 
L 337.041322 53.199936 
L 339.836213 53.0064 
L 342.631104 52.466112 
L 345.425995 52.127424 
L 348.220887 51.93792 
L 351.015778 51.700032 
L 353.810669 51.361344 
L 356.60556 51.067008 
L 359.400451 50.817024 
L 362.195342 50.522688 
L 364.990233 50.228352 
L 367.785124 50.135616 
L 370.580015 49.74048 
L 373.374906 49.59936 
L 376.169797 49.373568 
L 378.964688 49.176 
L 381.759579 48.881664 
L 384.55447 48.881664 
L 387.349361 48.809088 
L 390.144252 48.506688 
L 392.939144 48.397824 
L 395.734035 48.131712 
L 398.528926 48.095424 
" clip-path="url(#p3aa1e8d8be)" style="fill: none; stroke: #ff0000; stroke-width: 1.5; stroke-linecap: square"/>
   </g>
   <g id="line2d_27">
    <path d="M 121.834711 140.569344 
L 124.629602 105.115968 
L 127.424493 90.419328 
L 130.219384 81.476352 
L 133.014275 75.150144 
L 135.809166 70.198848 
L 138.604057 66.4128 
L 141.398948 63.376704 
L 144.193839 60.610752 
L 146.98873 58.239936 
L 149.783621 56.57472 
L 152.578512 55.179648 
L 155.373403 53.728128 
L 158.168295 52.812864 
L 160.963186 51.623424 
L 163.758077 51.163776 
L 166.552968 50.321088 
L 169.347859 49.76064 
L 172.14275 49.19616 
L 174.937641 48.89376 
L 177.732532 48.534912 
L 180.527423 48.055104 
L 183.322314 47.897856 
L 186.117205 47.486592 
L 188.912096 47.506752 
L 191.706987 47.325312 
L 194.501878 47.022912 
L 197.296769 46.873728 
L 200.09166 46.83744 
L 202.886551 46.619712 
L 205.681443 46.337472 
L 208.476334 46.43424 
L 211.271225 46.418112 
L 214.066116 46.59552 
L 216.861007 46.2528 
L 219.655898 45.918144 
L 222.450789 45.922176 
L 225.24568 45.760896 
L 228.040571 45.777024 
L 230.835462 45.994752 
L 233.630353 45.82944 
L 236.425244 45.853632 
L 239.220135 45.648 
L 242.015026 45.62784 
L 244.809917 45.700416 
L 247.604808 45.68832 
L 250.399699 45.781056 
L 253.194591 45.539136 
L 255.989482 45.611712 
L 258.784373 45.575424 
L 261.579264 45.66816 
L 264.374155 45.482688 
L 267.169046 45.393984 
L 269.963937 45.70848 
L 272.758828 45.50688 
L 275.553719 45.450432 
L 278.34861 45.442368 
L 281.143501 45.490752 
L 283.938392 45.46656 
L 286.733283 45.349632 
L 289.528174 45.309312 
L 292.323065 45.389952 
L 295.117956 45.52704 
L 297.912847 45.462528 
L 300.707739 45.648 
L 303.50263 45.5472 
L 306.297521 45.40608 
L 309.092412 45.410112 
L 311.887303 45.470592 
L 314.682194 45.450432 
L 317.477085 45.373824 
L 320.271976 45.22464 
L 323.066867 45.248832 
L 325.861758 45.313344 
L 328.656649 45.321408 
L 331.45154 45.631872 
L 334.246431 45.442368 
L 337.041322 45.232704 
L 339.836213 45.208512 
L 342.631104 45.188352 
L 345.425995 45.208512 
L 348.220887 45.115776 
L 351.015778 45.111744 
L 353.810669 45.139968 
L 356.60556 45.172224 
L 359.400451 45.18432 
L 362.195342 45.273024 
L 364.990233 44.994816 
L 367.785124 44.966592 
L 370.580015 45.059328 
L 373.374906 44.926272 
L 376.169797 44.910144 
L 378.964688 44.910144 
L 381.759579 44.934336 
L 384.55447 45.071424 
L 387.349361 44.910144 
L 390.144252 44.978688 
L 392.939144 44.90208 
L 395.734035 44.910144 
L 398.528926 44.8416 
" clip-path="url(#p3aa1e8d8be)" style="fill: none; stroke: #1e90ff; stroke-width: 1.5; stroke-linecap: square"/>
   </g>
   <g id="line2d_28">
    <path d="M 121.834711 213.230016 
L 124.629602 186.22368 
L 127.424493 171.341568 
L 130.219384 161.963136 
L 133.014275 155.395008 
L 135.809166 150.564672 
L 138.604057 146.625408 
L 141.398948 143.553024 
L 144.193839 140.96448 
L 146.98873 138.295296 
L 149.783621 136.138176 
L 152.578512 134.025408 
L 155.373403 132.037632 
L 158.168295 129.99744 
L 160.963186 128.332224 
L 163.758077 126.582336 
L 166.552968 124.985664 
L 169.347859 123.453504 
L 172.14275 122.001984 
L 174.937641 120.62304 
L 177.732532 119.199744 
L 180.527423 118.10304 
L 183.322314 116.808768 
L 186.117205 115.704 
L 188.912096 114.825024 
L 191.706987 113.591232 
L 194.501878 112.39776 
L 197.296769 111.466368 
L 200.09166 110.418048 
L 202.886551 109.647936 
L 205.681443 108.712512 
L 208.476334 107.970624 
L 211.271225 106.946496 
L 214.066116 106.24896 
L 216.861007 105.434496 
L 219.655898 104.547456 
L 222.450789 103.882176 
L 225.24568 103.079808 
L 228.040571 102.301632 
L 230.835462 101.85408 
L 233.630353 100.9872 
L 236.425244 100.317888 
L 239.220135 99.71712 
L 242.015026 99.160704 
L 244.809917 98.48736 
L 247.604808 97.999488 
L 250.399699 97.27776 
L 253.194591 96.73344 
L 255.989482 96.064128 
L 258.784373 95.68512 
L 261.579264 94.902912 
L 264.374155 94.306176 
L 267.169046 94.076352 
L 269.963937 93.419136 
L 272.758828 92.927232 
L 275.553719 92.669184 
L 278.34861 92.112768 
L 281.143501 91.512 
L 283.938392 91.197504 
L 286.733283 90.491904 
L 289.528174 90.298368 
L 292.323065 89.73792 
L 295.117956 89.330688 
L 297.912847 89.096832 
L 300.707739 88.516224 
L 303.50263 87.90336 
L 306.297521 87.72192 
L 309.092412 87.189696 
L 311.887303 86.778432 
L 314.682194 86.375232 
L 317.477085 86.113152 
L 320.271976 85.7664 
L 323.066867 85.230144 
L 325.861758 84.730176 
L 328.656649 84.633408 
L 331.45154 83.996352 
L 334.246431 83.714112 
L 337.041322 83.302848 
L 339.836213 82.90368 
L 342.631104 82.68192 
L 345.425995 82.2384 
L 348.220887 81.968256 
L 351.015778 81.609408 
L 353.810669 81.419904 
L 356.60556 80.944128 
L 359.400451 80.730432 
L 362.195342 80.153856 
L 364.990233 79.952256 
L 367.785124 79.77888 
L 370.580015 79.299072 
L 373.374906 79.129728 
L 376.169797 78.936192 
L 378.964688 78.5088 
L 381.759579 78.383808 
L 384.55447 78.14592 
L 387.349361 77.516928 
L 390.144252 77.2992 
L 392.939144 77.222592 
L 395.734035 76.738752 
L 398.528926 76.537152 
" clip-path="url(#p3aa1e8d8be)" style="fill: none; stroke: #008000; stroke-width: 1.5; stroke-linecap: square"/>
   </g>
   <g id="line2d_29">
    <path d="M 121.834711 225.846144 
L 124.629602 225.95904 
L 127.424493 225.563904 
L 130.219384 223.7616 
L 133.014275 214.75008 
L 135.809166 204.883776 
L 138.604057 196.811712 
L 141.398948 190.090368 
L 144.193839 182.385216 
L 146.98873 174.454272 
L 149.783621 167.874048 
L 152.578512 162.277632 
L 155.373403 157.527936 
L 158.168295 153.056448 
L 160.963186 148.54464 
L 163.758077 144.19008 
L 166.552968 140.166144 
L 169.347859 136.142208 
L 172.14275 132.267456 
L 174.937641 128.795904 
L 177.732532 125.80416 
L 180.527423 122.723712 
L 183.322314 120.155328 
L 186.117205 117.57888 
L 188.912096 115.518528 
L 191.706987 113.038848 
L 194.501878 110.962368 
L 197.296769 108.80928 
L 200.09166 106.918272 
L 202.886551 105.148224 
L 205.681443 103.353984 
L 208.476334 101.624256 
L 211.271225 99.543744 
L 214.066116 97.769664 
L 216.861007 96.338304 
L 219.655898 94.781952 
L 222.450789 93.169152 
L 225.24568 91.197504 
L 228.040571 90.008064 
L 230.835462 88.290432 
L 233.630353 86.63328 
L 236.425244 84.911616 
L 239.220135 83.718144 
L 242.015026 82.331136 
L 244.809917 80.68608 
L 247.604808 79.262784 
L 250.399699 78.270912 
L 253.194591 77.05728 
L 255.989482 76.133952 
L 258.784373 74.734848 
L 261.579264 73.372032 
L 264.374155 72.489024 
L 267.169046 71.630208 
L 269.963937 70.68672 
L 272.758828 69.763392 
L 275.553719 68.654592 
L 278.34861 66.880512 
L 281.143501 66.126528 
L 283.938392 64.844352 
L 286.733283 64.247616 
L 289.528174 63.562176 
L 292.323065 62.263872 
L 295.117956 61.546176 
L 297.912847 60.433344 
L 300.707739 59.461632 
L 303.50263 58.735872 
L 306.297521 58.441536 
L 309.092412 57.760128 
L 311.887303 57.19968 
L 314.682194 56.538432 
L 317.477085 55.94976 
L 320.271976 55.744128 
L 323.066867 55.038528 
L 325.861758 54.284544 
L 328.656649 54.086976 
L 331.45154 53.607168 
L 334.246431 53.078976 
L 337.041322 52.760448 
L 339.836213 52.091136 
L 342.631104 51.784704 
L 345.425995 51.405696 
L 348.220887 50.80896 
L 351.015778 50.7888 
L 353.810669 50.357376 
L 356.60556 49.885632 
L 359.400451 49.796928 
L 362.195342 49.450176 
L 364.990233 49.220352 
L 367.785124 49.067136 
L 370.580015 48.768768 
L 373.374906 48.393792 
L 376.169797 48.341376 
L 378.964688 48.063168 
L 381.759579 47.833344 
L 384.55447 47.833344 
L 387.349361 47.720448 
L 390.144252 47.5632 
L 392.939144 47.28096 
L 395.734035 47.409984 
L 398.528926 47.151936 
" clip-path="url(#p3aa1e8d8be)" style="fill: none; stroke: #000000; stroke-width: 1.5; stroke-linecap: square"/>
   </g>
   <g id="line2d_30">
    <path d="M 121.834711 224.156736 
L 124.629602 220.49568 
L 127.424493 194.416704 
L 130.219384 177.841152 
L 133.014275 167.309568 
L 135.809166 159.535872 
L 138.604057 152.407296 
L 141.398948 146.50848 
L 144.193839 141.270912 
L 146.98873 136.517184 
L 149.783621 131.896512 
L 152.578512 127.408896 
L 155.373403 123.40512 
L 158.168295 119.99808 
L 160.963186 116.49024 
L 163.758077 113.417856 
L 166.552968 110.438208 
L 169.347859 107.78112 
L 172.14275 105.128064 
L 174.937641 102.813696 
L 177.732532 100.531584 
L 180.527423 98.813952 
L 183.322314 97.03584 
L 186.117205 95.306112 
L 188.912096 93.782016 
L 191.706987 92.201472 
L 194.501878 90.818496 
L 197.296769 89.479872 
L 200.09166 88.254144 
L 202.886551 87.09696 
L 205.681443 85.923648 
L 208.476334 84.810816 
L 211.271225 83.746368 
L 214.066116 82.819008 
L 216.861007 81.581184 
L 219.655898 80.516736 
L 222.450789 79.7184 
L 225.24568 78.73056 
L 228.040571 77.815296 
L 230.835462 77.085504 
L 233.630353 76.27104 
L 236.425244 75.315456 
L 239.220135 74.472768 
L 242.015026 73.605888 
L 244.809917 72.7632 
L 247.604808 72.013248 
L 250.399699 70.92864 
L 253.194591 70.432704 
L 255.989482 69.400512 
L 258.784373 68.783616 
L 261.579264 68.098176 
L 264.374155 67.465152 
L 267.169046 66.686976 
L 269.963937 65.904768 
L 272.758828 65.4048 
L 275.553719 64.47744 
L 278.34861 63.925056 
L 281.143501 63.376704 
L 283.938392 62.638848 
L 286.733283 62.32032 
L 289.528174 61.348608 
L 292.323065 60.876864 
L 295.117956 60.340608 
L 297.912847 59.530176 
L 300.707739 59.23584 
L 303.50263 58.784256 
L 306.297521 58.223808 
L 309.092412 57.699648 
L 311.887303 57.252096 
L 314.682194 56.909376 
L 317.477085 56.260224 
L 320.271976 55.796544 
L 323.066867 55.482048 
L 325.861758 54.917568 
L 328.656649 54.566784 
L 331.45154 54.1152 
L 334.246431 53.9136 
L 337.041322 53.599104 
L 339.836213 53.272512 
L 342.631104 52.728192 
L 345.425995 52.445952 
L 348.220887 52.212096 
L 351.015778 51.921792 
L 353.810669 51.579072 
L 356.60556 51.236352 
L 359.400451 50.821056 
L 362.195342 50.635584 
L 364.990233 50.44608 
L 367.785124 50.256576 
L 370.580015 49.978368 
L 373.374906 49.7808 
L 376.169797 49.591296 
L 378.964688 49.514688 
L 381.759579 49.208256 
L 384.55447 49.111488 
L 387.349361 48.768768 
L 390.144252 48.780864 
L 392.939144 48.474432 
L 395.734035 48.357504 
L 398.528926 48.301056 
" clip-path="url(#p3aa1e8d8be)" style="fill: none; stroke: #0000ff; stroke-width: 1.5; stroke-linecap: square"/>
   </g>
   <g id="line2d_31">
    <path d="M 121.834711 148.782528 
L 124.629602 112.143744 
L 127.424493 95.729472 
L 130.219384 84.653568 
L 133.014275 76.121856 
L 135.809166 69.25536 
L 138.604057 64.300032 
L 141.398948 60.348672 
L 144.193839 56.832768 
L 146.98873 54.510336 
L 149.783621 52.595136 
L 152.578512 51.135552 
L 155.373403 49.792896 
L 158.168295 48.79296 
L 160.963186 47.938176 
L 163.758077 47.252736 
L 166.552968 46.563264 
L 169.347859 46.095552 
L 172.14275 45.656064 
L 174.937641 45.329472 
L 177.732532 45.067392 
L 180.527423 44.889984 
L 183.322314 44.744832 
L 186.117205 44.708544 
L 188.912096 44.656128 
L 191.706987 44.652096 
L 194.501878 44.64 
L 197.296769 44.64 
L 200.09166 44.64 
L 202.886551 44.64 
L 205.681443 44.64 
L 208.476334 44.64 
L 211.271225 44.64 
L 214.066116 44.64 
L 216.861007 44.64 
L 219.655898 44.64 
L 222.450789 44.64 
L 225.24568 44.64 
L 228.040571 44.64 
L 230.835462 44.64 
L 233.630353 44.64 
L 236.425244 44.64 
L 239.220135 44.64 
L 242.015026 44.64 
L 244.809917 44.64 
L 247.604808 44.64 
L 250.399699 44.64 
L 253.194591 44.64 
L 255.989482 44.64 
L 258.784373 44.64 
L 261.579264 44.64 
L 264.374155 44.64 
L 267.169046 44.64 
L 269.963937 44.64 
L 272.758828 44.64 
L 275.553719 44.64 
L 278.34861 44.64 
L 281.143501 44.64 
L 283.938392 44.64 
L 286.733283 44.64 
L 289.528174 44.64 
L 292.323065 44.64 
L 295.117956 44.64 
L 297.912847 44.64 
L 300.707739 44.64 
L 303.50263 44.64 
L 306.297521 44.64 
L 309.092412 44.64 
L 311.887303 44.64 
L 314.682194 44.64 
L 317.477085 44.64 
L 320.271976 44.64 
L 323.066867 44.64 
L 325.861758 44.64 
L 328.656649 44.64 
L 331.45154 44.64 
L 334.246431 44.64 
L 337.041322 44.64 
L 339.836213 44.64 
L 342.631104 44.64 
L 345.425995 44.64 
L 348.220887 44.64 
L 351.015778 44.64 
L 353.810669 44.64 
L 356.60556 44.64 
L 359.400451 44.64 
L 362.195342 44.64 
L 364.990233 44.64 
L 367.785124 44.64 
L 370.580015 44.64 
L 373.374906 44.64 
L 376.169797 44.64 
L 378.964688 44.64 
L 381.759579 44.64 
L 384.55447 44.64 
L 387.349361 44.64 
L 390.144252 44.64 
L 392.939144 44.64 
L 395.734035 44.64 
L 398.528926 44.64 
" clip-path="url(#p3aa1e8d8be)" style="fill: none; stroke: #8b4513; stroke-width: 1.5; stroke-linecap: square"/>
   </g>
   <g id="patch_3">
    <path d="M 108 256.32 
L 108 34.56 
" style="fill: none; stroke: #000000; stroke-width: 0.8; stroke-linejoin: miter; stroke-linecap: square"/>
   </g>
   <g id="patch_4">
    <path d="M 412.363636 256.32 
L 412.363636 34.56 
" style="fill: none; stroke: #000000; stroke-width: 0.8; stroke-linejoin: miter; stroke-linecap: square"/>
   </g>
   <g id="patch_5">
    <path d="M 108 256.32 
L 412.363636 256.32 
" style="fill: none; stroke: #000000; stroke-width: 0.8; stroke-linejoin: miter; stroke-linecap: square"/>
   </g>
   <g id="patch_6">
    <path d="M 108 34.56 
L 412.363636 34.56 
" style="fill: none; stroke: #000000; stroke-width: 0.8; stroke-linejoin: miter; stroke-linecap: square"/>
   </g>
   <g id="text_15">
    <!-- (a) -->
    <g transform="translate(252.524318 314.1072) scale(0.12 -0.12)">
     <defs>
      <path id="Cmr10-28" d="M 1984 -1588 
Q 1628 -1306 1370 -942 
Q 1113 -578 948 -165 
Q 784 247 703 697 
Q 622 1147 622 1600 
Q 622 2059 703 2509 
Q 784 2959 951 3375 
Q 1119 3791 1378 4153 
Q 1638 4516 1984 4788 
Q 1984 4800 2016 4800 
L 2075 4800 
Q 2094 4800 2109 4783 
Q 2125 4766 2125 4744 
Q 2125 4716 2113 4703 
Q 1800 4397 1592 4047 
Q 1384 3697 1257 3301 
Q 1131 2906 1075 2482 
Q 1019 2059 1019 1600 
Q 1019 -434 2106 -1491 
Q 2125 -1509 2125 -1544 
Q 2125 -1559 2108 -1579 
Q 2091 -1600 2075 -1600 
L 2016 -1600 
Q 1984 -1600 1984 -1588 
z
" transform="scale(0.015625)"/>
      <path id="Cmr10-29" d="M 416 -1600 
Q 359 -1600 359 -1544 
Q 359 -1516 372 -1503 
Q 1466 -434 1466 1600 
Q 1466 3634 384 4691 
Q 359 4706 359 4744 
Q 359 4766 376 4783 
Q 394 4800 416 4800 
L 475 4800 
Q 494 4800 506 4788 
Q 966 4425 1272 3906 
Q 1578 3388 1720 2800 
Q 1863 2213 1863 1600 
Q 1863 1147 1786 708 
Q 1709 269 1542 -157 
Q 1375 -584 1119 -945 
Q 863 -1306 506 -1588 
Q 494 -1600 475 -1600 
L 416 -1600 
z
" transform="scale(0.015625)"/>
     </defs>
     <use xlink:href="#Cmr10-28"/>
     <use xlink:href="#Cmr10-61" transform="translate(38.818359 0)"/>
     <use xlink:href="#Cmr10-29" transform="translate(88.818359 0)"/>
    </g>
   </g>
  </g>
  <g id="axes_2">
   <g id="patch_7">
    <path d="M 473.236364 256.32 
L 777.6 256.32 
L 777.6 34.56 
L 473.236364 34.56 
z
" style="fill: #ffffff"/>
   </g>
   <g id="matplotlib.axis_3">
    <g id="xtick_7">
     <g id="line2d_32">
      <path d="M 487.071074 256.32 
L 487.071074 34.56 
" clip-path="url(#p1a99c1471d)" style="fill: none; stroke-dasharray: 3.7,1.6; stroke-dashoffset: 0; stroke: #808080"/>
     </g>
     <g id="line2d_33">
      <g>
       <use xlink:href="#m8f5ebfda90" x="487.071074" y="256.32" style="stroke: #000000; stroke-width: 0.8"/>
      </g>
     </g>
     <g id="text_16">
      <!-- $\mathdefault{0}$ -->
      <g transform="translate(484.071074 271.646875) scale(0.12 -0.12)">
       <use xlink:href="#Cmr10-30" transform="translate(0 0.390625)"/>
      </g>
     </g>
    </g>
    <g id="xtick_8">
     <g id="line2d_34">
      <path d="M 542.968896 256.32 
L 542.968896 34.56 
" clip-path="url(#p1a99c1471d)" style="fill: none; stroke-dasharray: 3.7,1.6; stroke-dashoffset: 0; stroke: #808080"/>
     </g>
     <g id="line2d_35">
      <g>
       <use xlink:href="#m8f5ebfda90" x="542.968896" y="256.32" style="stroke: #000000; stroke-width: 0.8"/>
      </g>
     </g>
     <g id="text_17">
      <!-- $\mathdefault{20}$ -->
      <g transform="translate(536.968896 271.646875) scale(0.12 -0.12)">
       <use xlink:href="#Cmr10-32" transform="translate(0 0.390625)"/>
       <use xlink:href="#Cmr10-30" transform="translate(50 0.390625)"/>
      </g>
     </g>
    </g>
    <g id="xtick_9">
     <g id="line2d_36">
      <path d="M 598.866717 256.32 
L 598.866717 34.56 
" clip-path="url(#p1a99c1471d)" style="fill: none; stroke-dasharray: 3.7,1.6; stroke-dashoffset: 0; stroke: #808080"/>
     </g>
     <g id="line2d_37">
      <g>
       <use xlink:href="#m8f5ebfda90" x="598.866717" y="256.32" style="stroke: #000000; stroke-width: 0.8"/>
      </g>
     </g>
     <g id="text_18">
      <!-- $\mathdefault{40}$ -->
      <g transform="translate(592.866717 271.646875) scale(0.12 -0.12)">
       <use xlink:href="#Cmr10-34" transform="translate(0 0.390625)"/>
       <use xlink:href="#Cmr10-30" transform="translate(50 0.390625)"/>
      </g>
     </g>
    </g>
    <g id="xtick_10">
     <g id="line2d_38">
      <path d="M 654.764538 256.32 
L 654.764538 34.56 
" clip-path="url(#p1a99c1471d)" style="fill: none; stroke-dasharray: 3.7,1.6; stroke-dashoffset: 0; stroke: #808080"/>
     </g>
     <g id="line2d_39">
      <g>
       <use xlink:href="#m8f5ebfda90" x="654.764538" y="256.32" style="stroke: #000000; stroke-width: 0.8"/>
      </g>
     </g>
     <g id="text_19">
      <!-- $\mathdefault{60}$ -->
      <g transform="translate(648.764538 271.646875) scale(0.12 -0.12)">
       <use xlink:href="#Cmr10-36" transform="translate(0 0.390625)"/>
       <use xlink:href="#Cmr10-30" transform="translate(50 0.390625)"/>
      </g>
     </g>
    </g>
    <g id="xtick_11">
     <g id="line2d_40">
      <path d="M 710.662359 256.32 
L 710.662359 34.56 
" clip-path="url(#p1a99c1471d)" style="fill: none; stroke-dasharray: 3.7,1.6; stroke-dashoffset: 0; stroke: #808080"/>
     </g>
     <g id="line2d_41">
      <g>
       <use xlink:href="#m8f5ebfda90" x="710.662359" y="256.32" style="stroke: #000000; stroke-width: 0.8"/>
      </g>
     </g>
     <g id="text_20">
      <!-- $\mathdefault{80}$ -->
      <g transform="translate(704.662359 271.646875) scale(0.12 -0.12)">
       <use xlink:href="#Cmr10-38" transform="translate(0 0.390625)"/>
       <use xlink:href="#Cmr10-30" transform="translate(50 0.390625)"/>
      </g>
     </g>
    </g>
    <g id="xtick_12">
     <g id="line2d_42">
      <path d="M 766.56018 256.32 
L 766.56018 34.56 
" clip-path="url(#p1a99c1471d)" style="fill: none; stroke-dasharray: 3.7,1.6; stroke-dashoffset: 0; stroke: #808080"/>
     </g>
     <g id="line2d_43">
      <g>
       <use xlink:href="#m8f5ebfda90" x="766.56018" y="256.32" style="stroke: #000000; stroke-width: 0.8"/>
      </g>
     </g>
     <g id="text_21">
      <!-- $\mathdefault{100}$ -->
      <g transform="translate(757.56018 271.646875) scale(0.12 -0.12)">
       <use xlink:href="#Cmr10-31" transform="translate(0 0.390625)"/>
       <use xlink:href="#Cmr10-30" transform="translate(50 0.390625)"/>
       <use xlink:href="#Cmr10-30" transform="translate(100 0.390625)"/>
      </g>
     </g>
    </g>
    <g id="text_22">
     <!-- Epoch -->
     <g transform="translate(609.011932 292.300625) scale(0.12 -0.12)">
      <use xlink:href="#Cmr10-45"/>
      <use xlink:href="#Cmr10-70" transform="translate(68.017578 0)"/>
      <use xlink:href="#Cmr10-6f" transform="translate(123.535156 0)"/>
      <use xlink:href="#Cmr10-63" transform="translate(173.535156 0)"/>
      <use xlink:href="#Cmr10-68" transform="translate(217.919922 0)"/>
     </g>
    </g>
   </g>
   <g id="matplotlib.axis_4">
    <g id="ytick_7">
     <g id="line2d_44">
      <path d="M 473.236364 246.24 
L 777.6 246.24 
" clip-path="url(#p1a99c1471d)" style="fill: none; stroke-dasharray: 3.7,1.6; stroke-dashoffset: 0; stroke: #808080"/>
     </g>
     <g id="line2d_45">
      <g>
       <use xlink:href="#mdd24c1e4f7" x="473.236364" y="246.24" style="stroke: #000000; stroke-width: 0.8"/>
      </g>
     </g>
     <g id="text_23">
      <!-- $\mathdefault{0}$ -->
      <g transform="translate(460.236364 250.403437) scale(0.12 -0.12)">
       <use xlink:href="#Cmr10-30" transform="translate(0 0.390625)"/>
      </g>
     </g>
    </g>
    <g id="ytick_8">
     <g id="line2d_46">
      <path d="M 473.236364 205.92 
L 777.6 205.92 
" clip-path="url(#p1a99c1471d)" style="fill: none; stroke-dasharray: 3.7,1.6; stroke-dashoffset: 0; stroke: #808080"/>
     </g>
     <g id="line2d_47">
      <g>
       <use xlink:href="#mdd24c1e4f7" x="473.236364" y="205.92" style="stroke: #000000; stroke-width: 0.8"/>
      </g>
     </g>
     <g id="text_24">
      <!-- $\mathdefault{20}$ -->
      <g transform="translate(454.236364 210.083438) scale(0.12 -0.12)">
       <use xlink:href="#Cmr10-32" transform="translate(0 0.390625)"/>
       <use xlink:href="#Cmr10-30" transform="translate(50 0.390625)"/>
      </g>
     </g>
    </g>
    <g id="ytick_9">
     <g id="line2d_48">
      <path d="M 473.236364 165.6 
L 777.6 165.6 
" clip-path="url(#p1a99c1471d)" style="fill: none; stroke-dasharray: 3.7,1.6; stroke-dashoffset: 0; stroke: #808080"/>
     </g>
     <g id="line2d_49">
      <g>
       <use xlink:href="#mdd24c1e4f7" x="473.236364" y="165.6" style="stroke: #000000; stroke-width: 0.8"/>
      </g>
     </g>
     <g id="text_25">
      <!-- $\mathdefault{40}$ -->
      <g transform="translate(454.236364 169.763438) scale(0.12 -0.12)">
       <use xlink:href="#Cmr10-34" transform="translate(0 0.390625)"/>
       <use xlink:href="#Cmr10-30" transform="translate(50 0.390625)"/>
      </g>
     </g>
    </g>
    <g id="ytick_10">
     <g id="line2d_50">
      <path d="M 473.236364 125.28 
L 777.6 125.28 
" clip-path="url(#p1a99c1471d)" style="fill: none; stroke-dasharray: 3.7,1.6; stroke-dashoffset: 0; stroke: #808080"/>
     </g>
     <g id="line2d_51">
      <g>
       <use xlink:href="#mdd24c1e4f7" x="473.236364" y="125.28" style="stroke: #000000; stroke-width: 0.8"/>
      </g>
     </g>
     <g id="text_26">
      <!-- $\mathdefault{60}$ -->
      <g transform="translate(454.236364 129.443437) scale(0.12 -0.12)">
       <use xlink:href="#Cmr10-36" transform="translate(0 0.390625)"/>
       <use xlink:href="#Cmr10-30" transform="translate(50 0.390625)"/>
      </g>
     </g>
    </g>
    <g id="ytick_11">
     <g id="line2d_52">
      <path d="M 473.236364 84.96 
L 777.6 84.96 
" clip-path="url(#p1a99c1471d)" style="fill: none; stroke-dasharray: 3.7,1.6; stroke-dashoffset: 0; stroke: #808080"/>
     </g>
     <g id="line2d_53">
      <g>
       <use xlink:href="#mdd24c1e4f7" x="473.236364" y="84.96" style="stroke: #000000; stroke-width: 0.8"/>
      </g>
     </g>
     <g id="text_27">
      <!-- $\mathdefault{80}$ -->
      <g transform="translate(454.236364 89.123437) scale(0.12 -0.12)">
       <use xlink:href="#Cmr10-38" transform="translate(0 0.390625)"/>
       <use xlink:href="#Cmr10-30" transform="translate(50 0.390625)"/>
      </g>
     </g>
    </g>
    <g id="ytick_12">
     <g id="line2d_54">
      <path d="M 473.236364 44.64 
L 777.6 44.64 
" clip-path="url(#p1a99c1471d)" style="fill: none; stroke-dasharray: 3.7,1.6; stroke-dashoffset: 0; stroke: #808080"/>
     </g>
     <g id="line2d_55">
      <g>
       <use xlink:href="#mdd24c1e4f7" x="473.236364" y="44.64" style="stroke: #000000; stroke-width: 0.8"/>
      </g>
     </g>
     <g id="text_28">
      <!-- $\mathdefault{100}$ -->
      <g transform="translate(448.236364 48.803438) scale(0.12 -0.12)">
       <use xlink:href="#Cmr10-31" transform="translate(0 0.390625)"/>
       <use xlink:href="#Cmr10-30" transform="translate(50 0.390625)"/>
       <use xlink:href="#Cmr10-30" transform="translate(100 0.390625)"/>
      </g>
     </g>
    </g>
    <g id="text_29">
     <!-- $\mu$ Validation Accuracy [%] -->
     <g transform="translate(435.236364 215.4) rotate(-90) scale(0.12 -0.12)">
      <defs>
       <path id="Cmr10-56" d="M 2253 -72 
L 744 3944 
Q 688 4078 528 4112 
Q 369 4147 122 4147 
L 122 4372 
L 1881 4372 
L 1881 4147 
Q 1350 4147 1350 3981 
Q 1353 3972 1354 3964 
Q 1356 3956 1356 3944 
L 2584 678 
L 3744 3769 
Q 3756 3794 3756 3847 
Q 3756 4003 3612 4075 
Q 3469 4147 3291 4147 
L 3291 4372 
L 4672 4372 
L 4672 4147 
Q 4431 4147 4248 4058 
Q 4066 3969 3988 3769 
L 2541 -72 
Q 2522 -141 2438 -141 
L 2356 -141 
Q 2272 -141 2253 -72 
z
" transform="scale(0.015625)"/>
       <path id="Cmr10-6c" d="M 197 0 
L 197 225 
Q 416 225 556 259 
Q 697 294 697 428 
L 697 3788 
Q 697 3959 645 4036 
Q 594 4113 497 4130 
Q 400 4147 197 4147 
L 197 4372 
L 1147 4441 
L 1147 428 
Q 1147 294 1287 259 
Q 1428 225 1644 225 
L 1644 0 
L 197 0 
z
" transform="scale(0.015625)"/>
       <path id="Cmr10-64" d="M 1563 -72 
Q 1184 -72 871 133 
Q 559 338 386 672 
Q 213 1006 213 1381 
Q 213 1769 402 2101 
Q 591 2434 916 2631 
Q 1241 2828 1631 2828 
Q 1866 2828 2075 2729 
Q 2284 2631 2438 2456 
L 2438 3788 
Q 2438 3959 2386 4036 
Q 2334 4113 2239 4130 
Q 2144 4147 1941 4147 
L 1941 4372 
L 2888 4441 
L 2888 581 
Q 2888 413 2939 336 
Q 2991 259 3086 242 
Q 3181 225 3384 225 
L 3384 0 
L 2419 -72 
L 2419 331 
Q 2253 141 2025 34 
Q 1797 -72 1563 -72 
z
M 909 556 
Q 1019 347 1201 222 
Q 1384 97 1600 97 
Q 1866 97 2087 250 
Q 2309 403 2419 647 
L 2419 2181 
Q 2344 2322 2230 2433 
Q 2116 2544 1973 2603 
Q 1831 2663 1672 2663 
Q 1338 2663 1134 2473 
Q 931 2284 850 1990 
Q 769 1697 769 1375 
Q 769 1119 795 928 
Q 822 738 909 556 
z
" transform="scale(0.015625)"/>
       <path id="Cmr10-74" d="M 653 769 
L 653 2534 
L 122 2534 
L 122 2700 
Q 541 2700 737 3090 
Q 934 3481 934 3938 
L 1119 3938 
L 1119 2759 
L 2022 2759 
L 2022 2534 
L 1119 2534 
L 1119 781 
Q 1119 516 1208 316 
Q 1297 116 1528 116 
Q 1747 116 1844 327 
Q 1941 538 1941 781 
L 1941 1159 
L 2125 1159 
L 2125 769 
Q 2125 569 2051 373 
Q 1978 178 1834 53 
Q 1691 -72 1484 -72 
Q 1100 -72 876 158 
Q 653 388 653 769 
z
" transform="scale(0.015625)"/>
      </defs>
      <use xlink:href="#DejaVuSans-Oblique-3bc"/>
      <use xlink:href="#Cmr10-20" transform="translate(63.623047 0)"/>
      <use xlink:href="#Cmr10-56" transform="translate(96.923828 0)"/>
      <use xlink:href="#Cmr10-61" transform="translate(171.923828 0)"/>
      <use xlink:href="#Cmr10-6c" transform="translate(221.923828 0)"/>
      <use xlink:href="#Cmr10-69" transform="translate(249.609375 0)"/>
      <use xlink:href="#Cmr10-64" transform="translate(277.294922 0)"/>
      <use xlink:href="#Cmr10-61" transform="translate(332.8125 0)"/>
      <use xlink:href="#Cmr10-74" transform="translate(382.8125 0)"/>
      <use xlink:href="#Cmr10-69" transform="translate(421.630859 0)"/>
      <use xlink:href="#Cmr10-6f" transform="translate(449.316406 0)"/>
      <use xlink:href="#Cmr10-6e" transform="translate(499.316406 0)"/>
      <use xlink:href="#Cmr10-20" transform="translate(554.833984 0)"/>
      <use xlink:href="#Cmr10-41" transform="translate(588.134766 0)"/>
      <use xlink:href="#Cmr10-63" transform="translate(663.134766 0)"/>
      <use xlink:href="#Cmr10-63" transform="translate(707.519531 0)"/>
      <use xlink:href="#Cmr10-75" transform="translate(751.904297 0)"/>
      <use xlink:href="#Cmr10-72" transform="translate(807.421875 0)"/>
      <use xlink:href="#Cmr10-61" transform="translate(846.533203 0)"/>
      <use xlink:href="#Cmr10-63" transform="translate(896.533203 0)"/>
      <use xlink:href="#Cmr10-79" transform="translate(940.917969 0)"/>
      <use xlink:href="#Cmr10-20" transform="translate(993.603516 0)"/>
      <use xlink:href="#Cmr10-5b" transform="translate(1026.904297 0)"/>
      <use xlink:href="#Cmr10-25" transform="translate(1054.589844 0)"/>
      <use xlink:href="#Cmr10-5d" transform="translate(1137.890625 0)"/>
     </g>
    </g>
   </g>
   <g id="line2d_56">
    <path d="M 487.071074 178.526592 
L 489.865965 157.29408 
L 492.660856 147.947904 
L 495.455748 140.020992 
L 498.250639 133.723008 
L 501.04553 127.844352 
L 503.840421 122.884992 
L 506.635312 119.59488 
L 509.430203 117.05472 
L 512.225094 114.482304 
L 515.019985 111.982464 
L 517.814876 109.127808 
L 520.609767 106.595712 
L 523.404658 104.926464 
L 526.199549 103.241088 
L 528.99444 101.378304 
L 531.789331 99.991296 
L 534.584222 98.684928 
L 537.379113 97.62048 
L 540.174005 95.854464 
L 542.968896 95.36256 
L 545.763787 95.007744 
L 548.558678 93.983616 
L 551.353569 92.927232 
L 554.14846 92.604672 
L 556.943351 91.830528 
L 559.738242 91.822464 
L 562.533133 91.540224 
L 565.328024 91.524096 
L 568.122915 90.2016 
L 570.917806 90.419328 
L 573.712697 90.056448 
L 576.507588 89.814528 
L 579.302479 89.846784 
L 582.09737 89.701632 
L 584.892261 89.048448 
L 587.687153 89.338752 
L 590.482044 88.693632 
L 593.276935 89.008128 
L 596.071826 89.225856 
L 598.866717 88.379136 
L 601.661608 88.193664 
L 604.456499 88.02432 
L 607.25139 87.82272 
L 610.046281 88.314624 
L 612.841172 88.22592 
L 615.636063 87.669504 
L 618.430954 87.959808 
L 621.225845 88.10496 
L 624.020736 87.790464 
L 626.815627 87.911424 
L 629.610518 88.048512 
L 632.405409 87.895296 
L 635.200301 87.572736 
L 637.995192 87.919488 
L 640.790083 87.717888 
L 643.584974 88.193664 
L 646.379865 87.911424 
L 649.174756 87.169536 
L 651.969647 86.65344 
L 654.764538 87.25824 
L 657.559429 87.685632 
L 660.35432 87.395328 
L 663.149211 87.3792 
L 665.944102 88.22592 
L 668.738993 87.153408 
L 671.533884 87.29856 
L 674.328775 87.443712 
L 677.123666 87.105024 
L 679.918557 87.90336 
L 682.713449 87.403392 
L 685.50834 87.072768 
L 688.303231 87.193728 
L 691.098122 87.088896 
L 693.893013 87.250176 
L 696.687904 87.330816 
L 699.482795 86.93568 
L 702.277686 87.01632 
L 705.072577 86.846976 
L 707.867468 86.782464 
L 710.662359 87.435648 
L 713.45725 86.89536 
L 716.252141 86.976 
L 719.047032 87.032448 
L 721.841923 87.064704 
L 724.636814 87.387264 
L 727.431705 86.822784 
L 730.226597 86.467968 
L 733.021488 86.556672 
L 735.816379 87.193728 
L 738.61127 87.13728 
L 741.406161 86.871168 
L 744.201052 86.992128 
L 746.995943 87.161472 
L 749.790834 86.548608 
L 752.585725 86.605056 
L 755.380616 87.129216 
L 758.175507 87.13728 
L 760.970398 87.225984 
L 763.765289 87.145344 
" clip-path="url(#p1a99c1471d)" style="fill: none; stroke: #ffa500; stroke-width: 1.5; stroke-linecap: square"/>
   </g>
   <g id="line2d_57">
    <path d="M 487.071074 224.805888 
L 489.865965 206.976384 
L 492.660856 185.703552 
L 495.455748 171.906048 
L 498.250639 160.769664 
L 501.04553 153.149184 
L 503.840421 147.359232 
L 506.635312 141.698304 
L 509.430203 137.827584 
L 512.225094 133.247232 
L 515.019985 127.989504 
L 517.814876 124.167168 
L 520.609767 120.215808 
L 523.404658 117.183744 
L 526.199549 113.917824 
L 528.99444 111.192192 
L 531.789331 108.619776 
L 534.584222 105.950592 
L 537.379113 104.507136 
L 540.174005 101.991168 
L 542.968896 100.015488 
L 545.763787 98.83008 
L 548.558678 97.507584 
L 551.353569 95.580288 
L 554.14846 94.225536 
L 556.943351 93.290112 
L 559.738242 92.169216 
L 562.533133 91.749888 
L 565.328024 90.991872 
L 568.122915 90.112896 
L 570.917806 89.225856 
L 573.712697 88.274304 
L 576.507588 87.475968 
L 579.302479 87.234048 
L 582.09737 86.484096 
L 584.892261 85.774464 
L 587.687153 84.951936 
L 590.482044 85.12128 
L 593.276935 84.468096 
L 596.071826 83.50848 
L 598.866717 82.814976 
L 601.661608 83.314944 
L 604.456499 82.82304 
L 607.25139 82.363392 
L 610.046281 82.145664 
L 612.841172 82.05696 
L 615.636063 81.605376 
L 618.430954 81.347328 
L 621.225845 81.355392 
L 624.020736 80.976384 
L 626.815627 80.694144 
L 629.610518 80.80704 
L 632.405409 79.774848 
L 635.200301 80.290944 
L 637.995192 80.008704 
L 640.790083 79.855488 
L 643.584974 79.573248 
L 646.379865 80.057088 
L 649.174756 80.105472 
L 651.969647 80.08128 
L 654.764538 79.565184 
L 657.559429 79.670016 
L 660.35432 80.274816 
L 663.149211 80.016768 
L 665.944102 79.444224 
L 668.738993 79.605504 
L 671.533884 79.266816 
L 674.328775 80.049024 
L 677.123666 80.024832 
L 679.918557 79.170048 
L 682.713449 79.774848 
L 685.50834 79.726464 
L 688.303231 79.887744 
L 691.098122 80.00064 
L 693.893013 80.460288 
L 696.687904 79.258752 
L 699.482795 79.992576 
L 702.277686 79.202304 
L 705.072577 78.895872 
L 707.867468 79.323264 
L 710.662359 78.62976 
L 713.45725 79.049088 
L 716.252141 78.016896 
L 719.047032 79.39584 
L 721.841923 78.5088 
L 724.636814 77.98464 
L 727.431705 78.34752 
L 730.226597 78.766848 
L 733.021488 78.250752 
L 735.816379 78.855552 
L 738.61127 78.726528 
L 741.406161 78.057216 
L 744.201052 78.621696 
L 746.995943 78.678144 
L 749.790834 77.678208 
L 752.585725 77.976576 
L 755.380616 77.54112 
L 758.175507 77.629824 
L 760.970398 77.694336 
L 763.765289 77.726592 
" clip-path="url(#p1a99c1471d)" style="fill: none; stroke: #ff0000; stroke-width: 1.5; stroke-linecap: square"/>
   </g>
   <g id="line2d_58">
    <path d="M 487.071074 118.030464 
L 489.865965 102.652416 
L 492.660856 97.289856 
L 495.455748 94.975488 
L 498.250639 90.620928 
L 501.04553 87.790464 
L 503.840421 86.016384 
L 506.635312 85.226112 
L 509.430203 86.322816 
L 512.225094 84.943872 
L 515.019985 84.645504 
L 517.814876 82.944 
L 520.609767 85.774464 
L 523.404658 81.863424 
L 526.199549 81.37152 
L 528.99444 80.355456 
L 531.789331 79.331328 
L 534.584222 79.750656 
L 537.379113 78.476544 
L 540.174005 79.847424 
L 542.968896 78.79104 
L 545.763787 78.532992 
L 548.558678 77.000832 
L 551.353569 77.645952 
L 554.14846 77.436288 
L 556.943351 77.266944 
L 559.738242 76.565376 
L 562.533133 76.807296 
L 565.328024 77.000832 
L 568.122915 75.904128 
L 570.917806 75.549312 
L 573.712697 76.081536 
L 576.507588 76.436352 
L 579.302479 75.56544 
L 582.09737 75.4848 
L 584.892261 74.017152 
L 587.687153 75.452544 
L 590.482044 74.686464 
L 593.276935 74.4768 
L 596.071826 75.4848 
L 598.866717 74.380032 
L 601.661608 74.39616 
L 604.456499 74.339712 
L 607.25139 74.952576 
L 610.046281 74.388096 
L 612.841172 74.388096 
L 615.636063 73.50912 
L 618.430954 73.452672 
L 621.225845 73.815552 
L 624.020736 74.331648 
L 626.815627 74.105856 
L 629.610518 73.541376 
L 632.405409 73.2672 
L 635.200301 74.105856 
L 637.995192 73.484928 
L 640.790083 74.533248 
L 643.584974 74.0736 
L 646.379865 73.920384 
L 649.174756 73.525248 
L 651.969647 73.734912 
L 654.764538 73.517184 
L 657.559429 74.226816 
L 660.35432 73.968768 
L 663.149211 73.75104 
L 665.944102 75.234816 
L 668.738993 74.218752 
L 671.533884 73.58976 
L 674.328775 73.372032 
L 677.123666 74.121984 
L 679.918557 73.057536 
L 682.713449 73.009152 
L 685.50834 72.09792 
L 688.303231 73.081728 
L 691.098122 72.726912 
L 693.893013 72.614016 
L 696.687904 73.6704 
L 699.482795 72.791424 
L 702.277686 72.90432 
L 705.072577 72.396288 
L 707.867468 72.09792 
L 710.662359 72.4608 
L 713.45725 73.484928 
L 716.252141 72.872064 
L 719.047032 72.388224 
L 721.841923 72.186624 
L 724.636814 72.081792 
L 727.431705 71.597952 
L 730.226597 71.93664 
L 733.021488 72.01728 
L 735.816379 71.622144 
L 738.61127 70.848 
L 741.406161 70.993152 
L 744.201052 71.69472 
L 746.995943 71.073792 
L 749.790834 71.581824 
L 752.585725 71.460864 
L 755.380616 71.00928 
L 758.175507 70.783488 
L 760.970398 70.227072 
L 763.765289 70.670592 
" clip-path="url(#p1a99c1471d)" style="fill: none; stroke: #1e90ff; stroke-width: 1.5; stroke-linecap: square"/>
   </g>
   <g id="line2d_59">
    <path d="M 487.071074 196.517376 
L 489.865965 177.8976 
L 492.660856 166.438656 
L 495.455748 158.931072 
L 498.250639 153.165312 
L 501.04553 148.439808 
L 503.840421 145.351296 
L 506.635312 142.383744 
L 509.430203 140.045184 
L 512.225094 137.988864 
L 515.019985 136.255104 
L 517.814876 134.827776 
L 520.609767 133.392384 
L 523.404658 131.698944 
L 526.199549 130.618368 
L 528.99444 129.578112 
L 531.789331 128.34432 
L 534.584222 126.513792 
L 537.379113 125.538048 
L 540.174005 124.723584 
L 542.968896 123.449472 
L 545.763787 122.675328 
L 548.558678 121.868928 
L 551.353569 121.151232 
L 554.14846 120.022272 
L 556.943351 119.35296 
L 559.738242 118.207872 
L 562.533133 117.998208 
L 565.328024 117.675648 
L 568.122915 117.119232 
L 570.917806 116.836992 
L 573.712697 116.224128 
L 576.507588 116.151552 
L 579.302479 115.92576 
L 582.09737 115.716096 
L 584.892261 114.845184 
L 587.687153 115.022592 
L 590.482044 114.31296 
L 593.276935 114.643584 
L 596.071826 113.659776 
L 598.866717 113.780736 
L 601.661608 113.86944 
L 604.456499 113.288832 
L 607.25139 113.474304 
L 610.046281 113.474304 
L 612.841172 113.111424 
L 615.636063 113.135616 
L 618.430954 112.555008 
L 621.225845 113.054976 
L 624.020736 112.514688 
L 626.815627 112.321152 
L 629.610518 112.796928 
L 632.405409 112.684032 
L 635.200301 112.563072 
L 637.995192 111.716352 
L 640.790083 112.030848 
L 643.584974 112.071168 
L 646.379865 112.079232 
L 649.174756 111.950208 
L 651.969647 111.788928 
L 654.764538 111.724416 
L 657.559429 112.103424 
L 660.35432 111.869568 
L 663.149211 111.829248 
L 665.944102 111.990528 
L 668.738993 112.184064 
L 671.533884 111.869568 
L 674.328775 112.087296 
L 677.123666 111.966336 
L 679.918557 111.32928 
L 682.713449 112.200192 
L 685.50834 111.708288 
L 688.303231 111.9744 
L 691.098122 112.3776 
L 693.893013 111.232512 
L 696.687904 111.65184 
L 699.482795 111.788928 
L 702.277686 112.3776 
L 705.072577 111.901824 
L 707.867468 112.272768 
L 710.662359 112.401792 
L 713.45725 111.377664 
L 716.252141 112.442112 
L 719.047032 112.764672 
L 721.841923 112.127616 
L 724.636814 111.780864 
L 727.431705 111.869568 
L 730.226597 112.288896 
L 733.021488 112.627584 
L 735.816379 112.813056 
L 738.61127 112.61952 
L 741.406161 112.853376 
L 744.201052 112.869504 
L 746.995943 113.184 
L 749.790834 112.33728 
L 752.585725 113.02272 
L 755.380616 113.22432 
L 758.175507 112.732416 
L 760.970398 113.740416 
L 763.765289 113.700096 
" clip-path="url(#p1a99c1471d)" style="fill: none; stroke: #008000; stroke-width: 1.5; stroke-linecap: square"/>
   </g>
   <g id="line2d_60">
    <path d="M 487.071074 225.71712 
L 489.865965 225.55584 
L 492.660856 225.055872 
L 495.455748 219.74976 
L 498.250639 208.790784 
L 501.04553 199.734912 
L 503.840421 194.856192 
L 506.635312 187.284096 
L 509.430203 177.663744 
L 512.225094 170.269056 
L 515.019985 163.753344 
L 517.814876 159.71328 
L 520.609767 153.447552 
L 523.404658 149.254272 
L 526.199549 145.891584 
L 528.99444 141.585408 
L 531.789331 137.593728 
L 534.584222 134.5536 
L 537.379113 132.045696 
L 540.174005 129.360384 
L 542.968896 126.554112 
L 545.763787 125.271936 
L 548.558678 123.078528 
L 551.353569 121.393152 
L 554.14846 119.135232 
L 556.943351 117.393408 
L 559.738242 116.28864 
L 562.533133 116.095104 
L 565.328024 115.449984 
L 568.122915 114.192 
L 570.917806 113.716224 
L 573.712697 112.208256 
L 576.507588 110.909952 
L 579.302479 111.143808 
L 582.09737 110.168064 
L 584.892261 109.861632 
L 587.687153 108.26496 
L 590.482044 107.111808 
L 593.276935 105.998976 
L 596.071826 105.257088 
L 598.866717 105.708672 
L 601.661608 104.563584 
L 604.456499 103.716864 
L 607.25139 104.039424 
L 610.046281 103.676544 
L 612.841172 102.999168 
L 615.636063 103.95072 
L 618.430954 102.321792 
L 621.225845 102.289536 
L 624.020736 102.241152 
L 626.815627 102.120192 
L 629.610518 102.612096 
L 632.405409 102.507264 
L 635.200301 101.797632 
L 637.995192 103.128192 
L 640.790083 103.06368 
L 643.584974 103.7088 
L 646.379865 101.636352 
L 649.174756 102.636288 
L 651.969647 102.595968 
L 654.764538 102.466944 
L 657.559429 102.370176 
L 660.35432 101.950848 
L 663.149211 100.410624 
L 665.944102 100.426752 
L 668.738993 101.797632 
L 671.533884 101.555712 
L 674.328775 100.781568 
L 677.123666 102.265344 
L 679.918557 101.04768 
L 682.713449 101.878272 
L 685.50834 102.491136 
L 688.303231 102.636288 
L 691.098122 103.353984 
L 693.893013 101.999232 
L 696.687904 101.950848 
L 699.482795 100.459008 
L 702.277686 100.297728 
L 705.072577 100.16064 
L 707.867468 100.862208 
L 710.662359 98.459136 
L 713.45725 99.467136 
L 716.252141 98.95104 
L 719.047032 99.11232 
L 721.841923 99.346176 
L 724.636814 98.886528 
L 727.431705 98.854272 
L 730.226597 99.217152 
L 733.021488 99.055872 
L 735.816379 99.217152 
L 738.61127 98.2656 
L 741.406161 98.91072 
L 744.201052 98.78976 
L 746.995943 97.725312 
L 749.790834 97.547904 
L 752.585725 97.74144 
L 755.380616 97.265664 
L 758.175507 98.289792 
L 760.970398 97.773696 
L 763.765289 98.047872 
" clip-path="url(#p1a99c1471d)" style="fill: none; stroke: #000000; stroke-width: 1.5; stroke-linecap: square"/>
   </g>
   <g id="line2d_61">
    <path d="M 487.071074 224.080128 
L 489.865965 205.500672 
L 492.660856 185.050368 
L 495.455748 172.61568 
L 498.250639 160.92288 
L 501.04553 153.278208 
L 503.840421 146.673792 
L 506.635312 141.657984 
L 509.430203 136.867968 
L 512.225094 133.037568 
L 515.019985 127.505664 
L 517.814876 123.901056 
L 520.609767 119.731968 
L 523.404658 117.280512 
L 526.199549 113.14368 
L 528.99444 110.474496 
L 531.789331 107.934336 
L 534.584222 105.571584 
L 537.379113 102.918528 
L 540.174005 101.4912 
L 542.968896 100.112256 
L 545.763787 98.459136 
L 548.558678 96.765696 
L 551.353569 95.177088 
L 554.14846 93.822336 
L 556.943351 92.693376 
L 559.738242 91.49184 
L 562.533133 90.346752 
L 565.328024 90.395136 
L 568.122915 89.572608 
L 570.917806 88.532352 
L 573.712697 87.984 
L 576.507588 86.758272 
L 579.302479 86.314752 
L 582.09737 85.500288 
L 584.892261 84.774528 
L 587.687153 84.258432 
L 590.482044 83.83104 
L 593.276935 83.581056 
L 596.071826 82.879488 
L 598.866717 82.524672 
L 601.661608 81.839232 
L 604.456499 82.048896 
L 607.25139 81.710208 
L 610.046281 81.137664 
L 612.841172 81.266688 
L 615.636063 80.653824 
L 618.430954 80.557056 
L 621.225845 80.00064 
L 624.020736 80.145792 
L 626.815627 79.952256 
L 629.610518 80.36352 
L 632.405409 79.831296 
L 635.200301 79.186176 
L 637.995192 79.000704 
L 640.790083 79.145856 
L 643.584974 80.065152 
L 646.379865 79.178112 
L 649.174756 78.863616 
L 651.969647 79.379712 
L 654.764538 79.452288 
L 657.559429 79.323264 
L 660.35432 78.742656 
L 663.149211 79.065216 
L 665.944102 79.024896 
L 668.738993 78.694272 
L 671.533884 78.75072 
L 674.328775 78.855552 
L 677.123666 79.161984 
L 679.918557 79.734528 
L 682.713449 78.799104 
L 685.50834 78.436224 
L 688.303231 79.492608 
L 691.098122 78.54912 
L 693.893013 77.912064 
L 696.687904 79.145856 
L 699.482795 78.718464 
L 702.277686 77.710464 
L 705.072577 78.403968 
L 707.867468 78.057216 
L 710.662359 78.976512 
L 713.45725 79.661952 
L 716.252141 78.162048 
L 719.047032 76.847616 
L 721.841923 77.887872 
L 724.636814 77.250816 
L 727.431705 77.468544 
L 730.226597 77.928192 
L 733.021488 77.694336 
L 735.816379 77.920128 
L 738.61127 77.162112 
L 741.406161 77.54112 
L 744.201052 77.436288 
L 746.995943 76.85568 
L 749.790834 77.46048 
L 752.585725 77.065344 
L 755.380616 76.718592 
L 758.175507 76.97664 
L 760.970398 76.807296 
L 763.765289 76.928256 
" clip-path="url(#p1a99c1471d)" style="fill: none; stroke: #0000ff; stroke-width: 1.5; stroke-linecap: square"/>
   </g>
   <g id="line2d_62">
    <path d="M 487.071074 131.77152 
L 489.865965 112.45824 
L 492.660856 100.338048 
L 495.455748 98.273664 
L 498.250639 93.87072 
L 501.04553 93.717504 
L 503.840421 94.531968 
L 506.635312 92.653056 
L 509.430203 91.911168 
L 512.225094 89.725824 
L 515.019985 88.854912 
L 517.814876 88.895232 
L 520.609767 87.911424 
L 523.404658 85.911552 
L 526.199549 85.008384 
L 528.99444 83.839104 
L 531.789331 83.605248 
L 534.584222 83.193984 
L 537.379113 81.234432 
L 540.174005 80.919936 
L 542.968896 79.726464 
L 545.763787 79.024896 
L 548.558678 78.218496 
L 551.353569 77.774976 
L 554.14846 77.355648 
L 556.943351 77.008896 
L 559.738242 77.000832 
L 562.533133 76.928256 
L 565.328024 76.73472 
L 568.122915 76.783104 
L 570.917806 76.871808 
L 573.712697 76.831488 
L 576.507588 76.686336 
L 579.302479 76.646016 
L 582.09737 76.637952 
L 584.892261 76.589568 
L 587.687153 76.597632 
L 590.482044 76.686336 
L 593.276935 76.702464 
L 596.071826 76.557312 
L 598.866717 76.589568 
L 601.661608 76.678272 
L 604.456499 76.710528 
L 607.25139 76.581504 
L 610.046281 76.637952 
L 612.841172 76.57344 
L 615.636063 76.508928 
L 618.430954 76.57344 
L 621.225845 76.678272 
L 624.020736 76.710528 
L 626.815627 76.4928 
L 629.610518 76.61376 
L 632.405409 76.541184 
L 635.200301 76.57344 
L 637.995192 76.476672 
L 640.790083 76.420224 
L 643.584974 76.396032 
L 646.379865 76.484736 
L 649.174756 76.557312 
L 651.969647 76.41216 
L 654.764538 76.347648 
L 657.559429 76.468608 
L 660.35432 76.565376 
L 663.149211 76.605696 
L 665.944102 76.516992 
L 668.738993 76.500864 
L 671.533884 76.476672 
L 674.328775 76.404096 
L 677.123666 76.508928 
L 679.918557 76.53312 
L 682.713449 76.45248 
L 685.50834 76.516992 
L 688.303231 76.57344 
L 691.098122 76.541184 
L 693.893013 76.621824 
L 696.687904 76.45248 
L 699.482795 76.629888 
L 702.277686 76.557312 
L 705.072577 76.686336 
L 707.867468 76.53312 
L 710.662359 76.621824 
L 713.45725 76.678272 
L 716.252141 76.702464 
L 719.047032 76.57344 
L 721.841923 76.686336 
L 724.636814 76.605696 
L 727.431705 76.6944 
L 730.226597 76.670208 
L 733.021488 76.565376 
L 735.816379 76.678272 
L 738.61127 76.791168 
L 741.406161 76.702464 
L 744.201052 76.646016 
L 746.995943 76.904064 
L 749.790834 76.73472 
L 752.585725 76.670208 
L 755.380616 76.678272 
L 758.175507 76.6944 
L 760.970398 76.750848 
L 763.765289 76.686336 
" clip-path="url(#p1a99c1471d)" style="fill: none; stroke: #8b4513; stroke-width: 1.5; stroke-linecap: square"/>
   </g>
   <g id="patch_8">
    <path d="M 473.236364 256.32 
L 473.236364 34.56 
" style="fill: none; stroke: #000000; stroke-width: 0.8; stroke-linejoin: miter; stroke-linecap: square"/>
   </g>
   <g id="patch_9">
    <path d="M 777.6 256.32 
L 777.6 34.56 
" style="fill: none; stroke: #000000; stroke-width: 0.8; stroke-linejoin: miter; stroke-linecap: square"/>
   </g>
   <g id="patch_10">
    <path d="M 473.236364 256.32 
L 777.6 256.32 
" style="fill: none; stroke: #000000; stroke-width: 0.8; stroke-linejoin: miter; stroke-linecap: square"/>
   </g>
   <g id="patch_11">
    <path d="M 473.236364 34.56 
L 777.6 34.56 
" style="fill: none; stroke: #000000; stroke-width: 0.8; stroke-linejoin: miter; stroke-linecap: square"/>
   </g>
   <g id="text_30">
    <!-- (b) -->
    <g transform="translate(617.429744 314.1072) scale(0.12 -0.12)">
     <defs>
      <path id="Cmr10-62" d="M 666 0 
L 666 3788 
Q 666 3959 614 4036 
Q 563 4113 466 4130 
Q 369 4147 166 4147 
L 166 4372 
L 1113 4441 
L 1113 2438 
Q 1219 2556 1361 2645 
Q 1503 2734 1665 2781 
Q 1828 2828 1997 2828 
Q 2284 2828 2529 2712 
Q 2775 2597 2956 2394 
Q 3138 2191 3239 1927 
Q 3341 1663 3341 1381 
Q 3341 994 3152 659 
Q 2963 325 2636 126 
Q 2309 -72 1919 -72 
Q 1675 -72 1447 53 
Q 1219 178 1069 384 
L 850 0 
L 666 0 
z
M 1131 628 
Q 1238 394 1438 245 
Q 1638 97 1881 97 
Q 2213 97 2417 287 
Q 2622 478 2703 768 
Q 2784 1059 2784 1381 
Q 2784 1922 2644 2203 
Q 2581 2328 2473 2434 
Q 2366 2541 2233 2602 
Q 2100 2663 1953 2663 
Q 1697 2663 1478 2527 
Q 1259 2391 1131 2163 
L 1131 628 
z
" transform="scale(0.015625)"/>
     </defs>
     <use xlink:href="#Cmr10-28"/>
     <use xlink:href="#Cmr10-62" transform="translate(38.818359 0)"/>
     <use xlink:href="#Cmr10-29" transform="translate(94.335938 0)"/>
    </g>
   </g>
   <g id="legend_1">
    <g id="patch_12">
     <path d="M 781.993636 161.248125 
L 906.163636 161.248125 
Q 908.563636 161.248125 908.563636 158.848125 
L 908.563636 42.96 
Q 908.563636 40.56 906.163636 40.56 
L 781.993636 40.56 
Q 779.593636 40.56 779.593636 42.96 
L 779.593636 158.848125 
Q 779.593636 161.248125 781.993636 161.248125 
z
" style="fill: #ffffff; opacity: 0.8; stroke: #cccccc; stroke-linejoin: miter"/>
    </g>
    <g id="line2d_63">
     <path d="M 784.393636 49.56 
L 796.393636 49.56 
L 808.393636 49.56 
" style="fill: none; stroke: #ffa500; stroke-width: 1.5; stroke-linecap: square"/>
    </g>
    <g id="text_31">
     <!-- AlexNetTH_VIB -->
     <g transform="translate(817.993636 53.76) scale(0.12 -0.12)">
      <defs>
       <path id="Cmr10-65" d="M 1594 -72 
Q 1203 -72 876 133 
Q 550 338 364 680 
Q 178 1022 178 1403 
Q 178 1778 348 2115 
Q 519 2453 823 2661 
Q 1128 2869 1503 2869 
Q 1797 2869 2014 2770 
Q 2231 2672 2372 2497 
Q 2513 2322 2584 2084 
Q 2656 1847 2656 1563 
Q 2656 1478 2591 1478 
L 738 1478 
L 738 1409 
Q 738 878 952 497 
Q 1166 116 1650 116 
Q 1847 116 2014 203 
Q 2181 291 2304 447 
Q 2428 603 2472 781 
Q 2478 803 2495 820 
Q 2513 838 2534 838 
L 2591 838 
Q 2656 838 2656 756 
Q 2566 394 2266 161 
Q 1966 -72 1594 -72 
z
M 744 1638 
L 2203 1638 
Q 2203 1878 2136 2125 
Q 2069 2372 1912 2536 
Q 1756 2700 1503 2700 
Q 1141 2700 942 2361 
Q 744 2022 744 1638 
z
" transform="scale(0.015625)"/>
       <path id="Cmr10-78" d="M 78 0 
L 78 225 
Q 322 225 537 320 
Q 753 416 903 603 
L 1484 1344 
L 728 2328 
Q 616 2469 483 2501 
Q 350 2534 109 2534 
L 109 2759 
L 1441 2759 
L 1441 2534 
Q 1356 2534 1282 2496 
Q 1209 2459 1209 2388 
Q 1209 2363 1228 2328 
L 1741 1663 
L 2125 2156 
Q 2203 2250 2203 2344 
Q 2203 2422 2151 2478 
Q 2100 2534 2016 2534 
L 2016 2759 
L 3194 2759 
L 3194 2534 
Q 2947 2534 2730 2439 
Q 2513 2344 2363 2156 
L 1856 1509 
L 2675 428 
Q 2797 288 2928 256 
Q 3059 225 3303 225 
L 3303 0 
L 1972 0 
L 1972 225 
Q 2050 225 2122 262 
Q 2194 300 2194 372 
Q 2194 400 2175 428 
L 1600 1191 
L 1141 603 
Q 1069 522 1069 416 
Q 1069 338 1122 281 
Q 1175 225 1247 225 
L 1247 0 
L 78 0 
z
" transform="scale(0.015625)"/>
       <path id="Cmr10-4e" d="M 197 0 
L 197 225 
Q 856 225 856 603 
L 856 4109 
Q 647 4147 197 4147 
L 197 4372 
L 1422 4372 
Q 1453 4372 1466 4347 
L 3731 1013 
L 3731 3769 
Q 3731 4147 3072 4147 
L 3072 4372 
L 4594 4372 
L 4594 4147 
Q 3938 4147 3938 3769 
L 3938 56 
Q 3938 38 3913 19 
Q 3888 0 3872 0 
L 3794 0 
Q 3763 0 3750 25 
L 1063 3981 
L 1063 603 
Q 1063 225 1722 225 
L 1722 0 
L 197 0 
z
" transform="scale(0.015625)"/>
       <path id="Cmr10-48" d="M 197 0 
L 197 225 
Q 856 225 856 428 
L 856 3944 
Q 856 4147 197 4147 
L 197 4372 
L 2113 4372 
L 2113 4147 
Q 1453 4147 1453 3944 
L 1453 2388 
L 3341 2388 
L 3341 3944 
Q 3341 4147 2681 4147 
L 2681 4372 
L 4594 4372 
L 4594 4147 
Q 3938 4147 3938 3944 
L 3938 428 
Q 3938 225 4594 225 
L 4594 0 
L 2681 0 
L 2681 225 
Q 3341 225 3341 428 
L 3341 2163 
L 1453 2163 
L 1453 428 
Q 1453 225 2113 225 
L 2113 0 
L 197 0 
z
" transform="scale(0.015625)"/>
       <path id="Cmr10-5f" d="M 538 3928 
Q 538 4069 644 4175 
Q 750 4281 891 4281 
Q 978 4281 1062 4234 
Q 1147 4188 1194 4103 
Q 1241 4019 1241 3928 
Q 1241 3791 1137 3684 
Q 1034 3578 891 3578 
Q 750 3578 644 3684 
Q 538 3791 538 3928 
z
" transform="scale(0.015625)"/>
       <path id="Cmr10-49" d="M 166 0 
L 166 225 
Q 856 225 856 428 
L 856 3944 
Q 856 4147 166 4147 
L 166 4372 
L 2144 4372 
L 2144 4147 
Q 1453 4147 1453 3944 
L 1453 428 
Q 1453 225 2144 225 
L 2144 0 
L 166 0 
z
" transform="scale(0.015625)"/>
       <path id="Cmr10-42" d="M 219 0 
L 219 225 
Q 878 225 878 428 
L 878 3944 
Q 878 4147 219 4147 
L 219 4372 
L 2572 4372 
Q 2897 4372 3228 4245 
Q 3559 4119 3776 3870 
Q 3994 3622 3994 3284 
Q 3994 2894 3673 2630 
Q 3353 2366 2925 2284 
Q 3203 2284 3497 2131 
Q 3791 1978 3978 1722 
Q 4166 1466 4166 1178 
Q 4166 828 3958 559 
Q 3750 291 3419 145 
Q 3088 0 2753 0 
L 219 0 
z
M 1434 428 
Q 1434 291 1512 258 
Q 1591 225 1759 225 
L 2572 225 
Q 2822 225 3036 356 
Q 3250 488 3375 708 
Q 3500 928 3500 1178 
Q 3500 1422 3397 1655 
Q 3294 1888 3101 2038 
Q 2909 2188 2663 2188 
L 1434 2188 
L 1434 428 
z
M 1434 2356 
L 2394 2356 
Q 2588 2356 2758 2426 
Q 2928 2497 3064 2630 
Q 3200 2763 3273 2930 
Q 3347 3097 3347 3284 
Q 3347 3450 3292 3603 
Q 3238 3756 3131 3881 
Q 3025 4006 2881 4076 
Q 2738 4147 2572 4147 
L 1759 4147 
Q 1644 4147 1580 4137 
Q 1516 4128 1475 4083 
Q 1434 4038 1434 3944 
L 1434 2356 
z
" transform="scale(0.015625)"/>
      </defs>
      <use xlink:href="#Cmr10-41"/>
      <use xlink:href="#Cmr10-6c" transform="translate(75 0)"/>
      <use xlink:href="#Cmr10-65" transform="translate(102.685547 0)"/>
      <use xlink:href="#Cmr10-78" transform="translate(147.070312 0)"/>
      <use xlink:href="#Cmr10-4e" transform="translate(199.755859 0)"/>
      <use xlink:href="#Cmr10-65" transform="translate(274.755859 0)"/>
      <use xlink:href="#Cmr10-74" transform="translate(319.140625 0)"/>
      <use xlink:href="#Cmr10-54" transform="translate(357.958984 0)"/>
      <use xlink:href="#Cmr10-48" transform="translate(430.175781 0)"/>
      <use xlink:href="#Cmr10-5f" transform="translate(505.175781 0)"/>
      <use xlink:href="#Cmr10-56" transform="translate(532.861328 0)"/>
      <use xlink:href="#Cmr10-49" transform="translate(607.861328 0)"/>
      <use xlink:href="#Cmr10-42" transform="translate(643.945312 0)"/>
     </g>
    </g>
    <g id="line2d_64">
     <path d="M 784.393636 66.286875 
L 796.393636 66.286875 
L 808.393636 66.286875 
" style="fill: none; stroke: #ff0000; stroke-width: 1.5; stroke-linecap: square"/>
    </g>
    <g id="text_32">
     <!-- AlexNetMCDO -->
     <g transform="translate(817.993636 70.486875) scale(0.12 -0.12)">
      <defs>
       <path id="Cmr10-4d" d="M 225 0 
L 225 225 
Q 884 225 884 603 
L 884 3944 
Q 884 4147 225 4147 
L 225 4372 
L 1434 4372 
Q 1513 4372 1538 4300 
L 2931 678 
L 4325 4300 
Q 4350 4372 4428 4372 
L 5638 4372 
L 5638 4147 
Q 4978 4147 4978 3944 
L 4978 428 
Q 4978 225 5638 225 
L 5638 0 
L 3775 0 
L 3775 225 
Q 4434 225 4434 428 
L 4434 4153 
L 2859 72 
Q 2831 0 2753 0 
Q 2672 0 2644 72 
L 1088 4103 
L 1088 603 
Q 1088 225 1747 225 
L 1747 0 
L 225 0 
z
" transform="scale(0.015625)"/>
       <path id="Cmr10-43" d="M 1459 684 
Q 1678 406 2006 245 
Q 2334 84 2688 84 
Q 2984 84 3237 201 
Q 3491 319 3680 528 
Q 3869 738 3970 1003 
Q 4072 1269 4072 1563 
Q 4072 1613 4128 1613 
L 4206 1613 
Q 4256 1613 4256 1550 
Q 4256 1216 4128 905 
Q 4000 594 3765 358 
Q 3531 122 3226 -9 
Q 2922 -141 2591 -141 
Q 2131 -141 1720 45 
Q 1309 231 1004 554 
Q 700 878 529 1303 
Q 359 1728 359 2188 
Q 359 2647 529 3072 
Q 700 3497 1004 3822 
Q 1309 4147 1720 4330 
Q 2131 4513 2591 4513 
Q 2919 4513 3219 4370 
Q 3519 4228 3744 3969 
L 4116 4494 
Q 4153 4513 4159 4513 
L 4206 4513 
Q 4225 4513 4240 4497 
Q 4256 4481 4256 4459 
L 4256 2731 
Q 4256 2675 4206 2675 
L 4091 2675 
Q 4031 2675 4031 2731 
Q 4031 2916 3957 3144 
Q 3884 3372 3770 3576 
Q 3656 3781 3506 3938 
Q 3147 4288 2681 4288 
Q 2328 4288 2004 4128 
Q 1681 3969 1459 3688 
Q 1225 3388 1134 3005 
Q 1044 2622 1044 2188 
Q 1044 1753 1134 1368 
Q 1225 984 1459 684 
z
" transform="scale(0.015625)"/>
       <path id="Cmr10-44" d="M 213 0 
L 213 225 
Q 872 225 872 428 
L 872 3944 
Q 872 4147 213 4147 
L 213 4372 
L 2572 4372 
Q 3009 4372 3371 4183 
Q 3734 3994 3990 3678 
Q 4247 3363 4386 2963 
Q 4525 2563 4525 2144 
Q 4525 1738 4384 1355 
Q 4244 972 3980 664 
Q 3716 356 3355 178 
Q 2994 0 2572 0 
L 213 0 
z
M 1447 428 
Q 1447 291 1525 258 
Q 1603 225 1772 225 
L 2406 225 
Q 2734 225 3029 367 
Q 3325 509 3519 763 
Q 3722 1031 3790 1364 
Q 3859 1697 3859 2144 
Q 3859 2609 3790 2959 
Q 3722 3309 3519 3584 
Q 3328 3856 3034 4001 
Q 2741 4147 2406 4147 
L 1772 4147 
Q 1656 4147 1592 4137 
Q 1528 4128 1487 4083 
Q 1447 4038 1447 3944 
L 1447 428 
z
" transform="scale(0.015625)"/>
       <path id="Cmr10-4f" d="M 2491 -141 
Q 1881 -141 1395 182 
Q 909 506 634 1042 
Q 359 1578 359 2169 
Q 359 2606 517 3034 
Q 675 3463 958 3794 
Q 1241 4125 1637 4319 
Q 2034 4513 2491 4513 
Q 2944 4513 3342 4317 
Q 3741 4122 4025 3787 
Q 4309 3453 4462 3037 
Q 4616 2622 4616 2169 
Q 4616 1578 4341 1042 
Q 4066 506 3578 182 
Q 3091 -141 2491 -141 
z
M 1428 691 
Q 1616 397 1891 223 
Q 2166 50 2491 50 
Q 2700 50 2901 134 
Q 3103 219 3267 366 
Q 3431 513 3547 691 
Q 3928 1266 3928 2272 
Q 3928 3194 3547 3731 
Q 3359 4000 3079 4162 
Q 2800 4325 2491 4325 
Q 2178 4325 1897 4162 
Q 1616 4000 1428 3731 
Q 1278 3522 1195 3286 
Q 1113 3050 1078 2797 
Q 1044 2544 1044 2272 
Q 1044 1981 1076 1704 
Q 1109 1428 1198 1162 
Q 1288 897 1428 691 
z
" transform="scale(0.015625)"/>
      </defs>
      <use xlink:href="#Cmr10-41"/>
      <use xlink:href="#Cmr10-6c" transform="translate(75 0)"/>
      <use xlink:href="#Cmr10-65" transform="translate(102.685547 0)"/>
      <use xlink:href="#Cmr10-78" transform="translate(147.070312 0)"/>
      <use xlink:href="#Cmr10-4e" transform="translate(199.755859 0)"/>
      <use xlink:href="#Cmr10-65" transform="translate(274.755859 0)"/>
      <use xlink:href="#Cmr10-74" transform="translate(319.140625 0)"/>
      <use xlink:href="#Cmr10-4d" transform="translate(357.958984 0)"/>
      <use xlink:href="#Cmr10-43" transform="translate(449.560547 0)"/>
      <use xlink:href="#Cmr10-44" transform="translate(521.777344 0)"/>
      <use xlink:href="#Cmr10-4f" transform="translate(598.095703 0)"/>
     </g>
    </g>
    <g id="line2d_65">
     <path d="M 784.393636 83.01375 
L 796.393636 83.01375 
L 808.393636 83.01375 
" style="fill: none; stroke: #1e90ff; stroke-width: 1.5; stroke-linecap: square"/>
    </g>
    <g id="text_33">
     <!-- VGG -->
     <g transform="translate(817.993636 87.21375) scale(0.12 -0.12)">
      <defs>
       <path id="Cmr10-47" d="M 1472 684 
Q 1703 403 2036 243 
Q 2369 84 2731 84 
Q 3088 84 3378 265 
Q 3669 447 3669 781 
L 3669 1319 
Q 3669 1522 2869 1522 
L 2869 1747 
L 4703 1747 
L 4703 1522 
Q 4500 1522 4381 1487 
Q 4263 1453 4263 1319 
L 4263 56 
Q 4263 34 4245 17 
Q 4228 0 4206 0 
Q 4147 0 4008 140 
Q 3869 281 3788 391 
Q 3631 122 3297 -9 
Q 2963 -141 2597 -141 
Q 1975 -141 1464 179 
Q 953 500 656 1036 
Q 359 1572 359 2188 
Q 359 2641 531 3069 
Q 703 3497 1011 3822 
Q 1319 4147 1728 4330 
Q 2138 4513 2597 4513 
Q 2928 4513 3223 4370 
Q 3519 4228 3750 3969 
L 4122 4494 
Q 4159 4513 4166 4513 
L 4213 4513 
Q 4231 4513 4247 4497 
Q 4263 4481 4263 4459 
L 4263 2731 
Q 4263 2675 4213 2675 
L 4097 2675 
Q 4038 2675 4038 2731 
Q 4038 2916 3964 3144 
Q 3891 3372 3777 3576 
Q 3663 3781 3513 3938 
Q 3153 4288 2688 4288 
Q 2331 4288 2006 4128 
Q 1681 3969 1459 3688 
Q 1225 3388 1134 3005 
Q 1044 2622 1044 2188 
Q 1044 1206 1472 684 
z
" transform="scale(0.015625)"/>
      </defs>
      <use xlink:href="#Cmr10-56"/>
      <use xlink:href="#Cmr10-47" transform="translate(75 0)"/>
      <use xlink:href="#Cmr10-47" transform="translate(153.417969 0)"/>
     </g>
    </g>
    <g id="line2d_66">
     <path d="M 784.393636 99.740625 
L 796.393636 99.740625 
L 808.393636 99.740625 
" style="fill: none; stroke: #008000; stroke-width: 1.5; stroke-linecap: square"/>
    </g>
    <g id="text_34">
     <!-- LeNet -->
     <g transform="translate(817.993636 103.940625) scale(0.12 -0.12)">
      <defs>
       <path id="Cmr10-4c" d="M 197 0 
L 197 225 
Q 856 225 856 428 
L 856 3944 
Q 856 4147 197 4147 
L 197 4372 
L 2272 4372 
L 2272 4147 
Q 1453 4147 1453 3944 
L 1453 428 
Q 1453 291 1531 258 
Q 1609 225 1778 225 
L 2272 225 
Q 2750 225 3009 400 
Q 3269 575 3376 876 
Q 3484 1178 3541 1678 
L 3725 1678 
L 3547 0 
L 197 0 
z
" transform="scale(0.015625)"/>
      </defs>
      <use xlink:href="#Cmr10-4c"/>
      <use xlink:href="#Cmr10-65" transform="translate(62.5 0)"/>
      <use xlink:href="#Cmr10-4e" transform="translate(106.884766 0)"/>
      <use xlink:href="#Cmr10-65" transform="translate(181.884766 0)"/>
      <use xlink:href="#Cmr10-74" transform="translate(226.269531 0)"/>
     </g>
    </g>
    <g id="line2d_67">
     <path d="M 784.393636 116.4675 
L 796.393636 116.4675 
L 808.393636 116.4675 
" style="fill: none; stroke: #000000; stroke-width: 1.5; stroke-linecap: square"/>
    </g>
    <g id="text_35">
     <!-- AlexNetVIB -->
     <g transform="translate(817.993636 120.6675) scale(0.12 -0.12)">
      <use xlink:href="#Cmr10-41"/>
      <use xlink:href="#Cmr10-6c" transform="translate(75 0)"/>
      <use xlink:href="#Cmr10-65" transform="translate(102.685547 0)"/>
      <use xlink:href="#Cmr10-78" transform="translate(147.070312 0)"/>
      <use xlink:href="#Cmr10-4e" transform="translate(199.755859 0)"/>
      <use xlink:href="#Cmr10-65" transform="translate(274.755859 0)"/>
      <use xlink:href="#Cmr10-74" transform="translate(319.140625 0)"/>
      <use xlink:href="#Cmr10-56" transform="translate(357.958984 0)"/>
      <use xlink:href="#Cmr10-49" transform="translate(432.958984 0)"/>
      <use xlink:href="#Cmr10-42" transform="translate(469.042969 0)"/>
     </g>
    </g>
    <g id="line2d_68">
     <path d="M 784.393636 133.194375 
L 796.393636 133.194375 
L 808.393636 133.194375 
" style="fill: none; stroke: #0000ff; stroke-width: 1.5; stroke-linecap: square"/>
    </g>
    <g id="text_36">
     <!-- AlexNet -->
     <g transform="translate(817.993636 137.394375) scale(0.12 -0.12)">
      <use xlink:href="#Cmr10-41"/>
      <use xlink:href="#Cmr10-6c" transform="translate(75 0)"/>
      <use xlink:href="#Cmr10-65" transform="translate(102.685547 0)"/>
      <use xlink:href="#Cmr10-78" transform="translate(147.070312 0)"/>
      <use xlink:href="#Cmr10-4e" transform="translate(199.755859 0)"/>
      <use xlink:href="#Cmr10-65" transform="translate(274.755859 0)"/>
      <use xlink:href="#Cmr10-74" transform="translate(319.140625 0)"/>
     </g>
    </g>
    <g id="line2d_69">
     <path d="M 784.393636 149.92125 
L 796.393636 149.92125 
L 808.393636 149.92125 
" style="fill: none; stroke: #8b4513; stroke-width: 1.5; stroke-linecap: square"/>
    </g>
    <g id="text_37">
     <!-- ResNet -->
     <g transform="translate(817.993636 154.12125) scale(0.12 -0.12)">
      <defs>
       <path id="Cmr10-52" d="M 213 0 
L 213 225 
Q 872 225 872 428 
L 872 3944 
Q 872 4147 213 4147 
L 213 4372 
L 2222 4372 
Q 2581 4372 2976 4242 
Q 3372 4113 3637 3847 
Q 3903 3581 3903 3213 
Q 3903 2944 3742 2733 
Q 3581 2522 3329 2380 
Q 3078 2238 2816 2175 
Q 3103 2075 3318 1856 
Q 3534 1638 3578 1356 
L 3669 788 
Q 3731 403 3800 214 
Q 3869 25 4103 25 
Q 4303 25 4401 211 
Q 4500 397 4500 616 
Q 4500 638 4520 655 
Q 4541 672 4563 672 
L 4622 672 
Q 4684 672 4684 588 
Q 4684 413 4615 245 
Q 4547 78 4417 -31 
Q 4288 -141 4109 -141 
Q 3647 -141 3314 89 
Q 2981 319 2981 763 
L 2981 1331 
Q 2981 1650 2759 1878 
Q 2538 2106 2216 2106 
L 1447 2106 
L 1447 428 
Q 1447 225 2106 225 
L 2106 0 
L 213 0 
z
M 1447 2272 
L 2131 2272 
Q 2663 2272 2941 2486 
Q 3219 2700 3219 3213 
Q 3219 3722 2944 3934 
Q 2669 4147 2131 4147 
L 1772 4147 
Q 1656 4147 1592 4137 
Q 1528 4128 1487 4083 
Q 1447 4038 1447 3944 
L 1447 2272 
z
" transform="scale(0.015625)"/>
       <path id="Cmr10-73" d="M 213 -19 
L 213 1025 
Q 213 1075 269 1075 
L 347 1075 
Q 384 1075 397 1025 
Q 575 97 1259 97 
Q 1563 97 1767 234 
Q 1972 372 1972 659 
Q 1972 866 1812 1011 
Q 1653 1156 1434 1209 
L 1006 1294 
Q 791 1341 614 1437 
Q 438 1534 325 1695 
Q 213 1856 213 2069 
Q 213 2350 361 2529 
Q 509 2709 746 2789 
Q 984 2869 1259 2869 
Q 1588 2869 1831 2694 
L 2016 2853 
Q 2016 2869 2047 2869 
L 2094 2869 
Q 2113 2869 2128 2851 
Q 2144 2834 2144 2816 
L 2144 1978 
Q 2144 1919 2094 1919 
L 2016 1919 
Q 1959 1919 1959 1978 
Q 1959 2313 1773 2516 
Q 1588 2719 1253 2719 
Q 966 2719 755 2612 
Q 544 2506 544 2247 
Q 544 2069 695 1955 
Q 847 1841 1050 1791 
L 1484 1709 
Q 1703 1659 1892 1540 
Q 2081 1422 2192 1240 
Q 2303 1059 2303 831 
Q 2303 600 2223 429 
Q 2144 259 2001 146 
Q 1859 34 1665 -19 
Q 1472 -72 1259 -72 
Q 859 -72 575 197 
L 341 -56 
Q 341 -72 306 -72 
L 269 -72 
Q 213 -72 213 -19 
z
" transform="scale(0.015625)"/>
      </defs>
      <use xlink:href="#Cmr10-52"/>
      <use xlink:href="#Cmr10-65" transform="translate(73.583984 0)"/>
      <use xlink:href="#Cmr10-73" transform="translate(117.96875 0)"/>
      <use xlink:href="#Cmr10-4e" transform="translate(157.373047 0)"/>
      <use xlink:href="#Cmr10-65" transform="translate(232.373047 0)"/>
      <use xlink:href="#Cmr10-74" transform="translate(276.757812 0)"/>
     </g>
    </g>
   </g>
  </g>
 </g>
 <defs>
  <clipPath id="p3aa1e8d8be">
   <rect x="108" y="34.56" width="304.363636" height="221.76"/>
  </clipPath>
  <clipPath id="p1a99c1471d">
   <rect x="473.236364" y="34.56" width="304.363636" height="221.76"/>
  </clipPath>
 </defs>
</svg>
